<svg width="24" height="25" viewBox="0 0 24 25" fill="none" xmlns="http://www.w3.org/2000/svg">
<path fill-rule="evenodd" clip-rule="evenodd" d="M17.3857 6.53279C16.9619 6.60817 16.3829 6.79981 15.5388 7.08115L9.04785 9.24481C8.22578 9.51883 7.62763 9.71838 7.19316 9.8879C6.74171 10.064 6.54362 10.1806 6.46067 10.2603C5.84644 10.8506 5.84644 11.8332 6.46067 12.4235C6.54362 12.5032 6.74171 12.6198 7.19316 12.7959C7.62762 12.9654 8.22578 13.165 9.04784 13.439C9.06091 13.4433 9.0738 13.4476 9.08651 13.4519C9.37848 13.5491 9.58004 13.6163 9.76307 13.7131C10.2068 13.9477 10.5696 14.3105 10.8043 14.7543C10.9011 14.9373 10.9682 15.1389 11.0655 15.4308C11.0697 15.4435 11.074 15.4564 11.0784 15.4695C11.3524 16.2916 11.5519 16.8897 11.7214 17.3242C11.8976 17.7756 12.0142 17.9737 12.0939 18.0567C12.6841 18.6709 13.6668 18.6709 14.257 18.0567C14.3367 17.9737 14.4533 17.7756 14.6294 17.3242C14.799 16.8897 14.9985 16.2916 15.2725 15.4695L17.4362 8.97852C17.7175 8.13448 17.9092 7.55541 17.9846 7.13167C18.0606 6.70431 17.9856 6.60722 17.9479 6.56949C17.9101 6.53175 17.813 6.45676 17.3857 6.53279ZM17.2105 5.54825C17.7203 5.45756 18.2557 5.4631 18.655 5.86238C19.0542 6.26166 19.0598 6.79703 18.9691 7.30681C18.8793 7.81158 18.6629 8.46071 18.3985 9.25386L18.3849 9.29475L16.2212 15.7857L16.2163 15.8006C15.9482 16.6048 15.7408 17.2269 15.561 17.6877C15.3868 18.1343 15.2109 18.5072 14.9781 18.7496C13.9943 19.7733 12.3566 19.7733 11.3728 18.7496C11.1399 18.5072 10.9641 18.1343 10.7898 17.6877C10.6101 17.2269 10.4027 16.6048 10.1346 15.8006L10.1297 15.7857C10.0146 15.4406 9.97364 15.3227 9.92029 15.2218C9.77949 14.9555 9.5618 14.7379 9.29556 14.5971C9.19469 14.5437 9.07677 14.5027 8.73162 14.3877L8.71672 14.3827C7.91254 14.1146 7.29043 13.9073 6.82968 13.7275C6.38307 13.5533 6.01013 13.3774 5.76778 13.1445C4.74407 12.1608 4.74407 10.523 5.76778 9.53929C6.01013 9.3064 6.38307 9.13055 6.82968 8.9563C7.29044 8.77652 7.91256 8.56915 8.71678 8.30108L8.73162 8.29613L15.2226 6.13247L15.2634 6.11885C16.0566 5.85444 16.7058 5.63804 17.2105 5.54825Z" fill="#051070"/>
</svg>
