<svg width="134" height="41" viewBox="0 0 134 41" fill="none" xmlns="http://www.w3.org/2000/svg">
    <rect x="0.847656" y="1" width="132.153" height="39.0599" rx="5.20799" fill="white"
        stroke="#CFCFCF" stroke-width="0.650999" />
    <path fill-rule="evenodd" clip-rule="evenodd"
        d="M34.326 19.6395C34.3026 16.8428 36.6149 15.4835 36.7165 15.421C35.404 13.5149 33.3729 13.2492 32.662 13.2258C30.959 13.0461 29.3029 14.2492 28.4358 14.2492C27.553 14.2492 26.2093 13.2492 24.7719 13.2727C22.9205 13.3039 21.1784 14.3742 20.2332 16.0459C18.2724 19.4442 19.7332 24.4438 21.6159 27.1936C22.5611 28.5373 23.6548 30.045 25.1 29.9903C26.5062 29.9357 27.0374 29.092 28.7326 29.092C30.42 29.092 30.9122 29.9903 32.3808 29.9591C33.8963 29.9357 34.8416 28.6076 35.7556 27.2483C36.8415 25.7094 37.2789 24.186 37.2945 24.1079C37.2555 24.0923 34.3572 22.983 34.326 19.6395Z"
        fill="black" />
    <path fill-rule="evenodd" clip-rule="evenodd"
        d="M31.5523 11.4212C32.3101 10.4759 32.8257 9.18693 32.685 7.87451C31.5914 7.92138 30.2165 8.63227 29.4274 9.5619C28.7322 10.3822 28.1072 11.718 28.2635 12.9757C29.4978 13.0695 30.7633 12.3508 31.5523 11.4212Z"
        fill="black" />
    <path fill-rule="evenodd" clip-rule="evenodd"
        d="M51.3638 24.9828L50.3873 21.9752C50.2858 21.6627 50.0905 20.944 49.8092 19.8035H49.7702C49.653 20.2956 49.4733 21.0221 49.2233 21.9752L48.2625 24.9828H51.3638ZM54.7308 29.7951H52.7622L51.6841 26.4047H47.9344L46.911 29.7951H44.9971L48.7078 18.2568H51.0045L54.7308 29.7951Z"
        fill="black" />
    <path fill-rule="evenodd" clip-rule="evenodd"
        d="M62.3863 25.6C62.3863 24.7875 62.2066 24.1235 61.8395 23.6001C61.441 23.0533 60.902 22.7799 60.2302 22.7799C59.7771 22.7799 59.3631 22.9361 58.9881 23.2329C58.6209 23.5376 58.3709 23.9282 58.2616 24.4204C58.2069 24.6469 58.1756 24.8344 58.1756 24.9828V26.3734C58.1756 26.9749 58.3631 27.4905 58.7303 27.9045C59.0975 28.3186 59.5818 28.5295 60.1755 28.5295C60.8708 28.5295 61.4098 28.2561 61.8004 27.7248C62.191 27.1858 62.3863 26.4827 62.3863 25.6ZM64.269 25.5373C64.269 26.9513 63.8862 28.0684 63.1128 28.8887C62.4254 29.623 61.5661 29.9823 60.5505 29.9823C59.449 29.9823 58.66 29.5917 58.1757 28.8027V33.1696H56.3242V24.2093C56.3242 23.3187 56.3008 22.4125 56.2539 21.4751H57.8788L57.9804 22.7953H58.0116C58.6288 21.8032 59.5662 21.3032 60.8161 21.3032C61.8004 21.3032 62.6129 21.6938 63.2691 22.4672C63.9409 23.2484 64.269 24.264 64.269 25.5373Z"
        fill="black" />
    <path fill-rule="evenodd" clip-rule="evenodd"
        d="M71.9488 25.6C71.9488 24.7875 71.7691 24.1235 71.402 23.6001C71.0036 23.0533 70.4645 22.7799 69.7927 22.7799C69.3396 22.7799 68.9256 22.9361 68.5506 23.2329C68.1834 23.5376 67.9413 23.9282 67.8241 24.4204C67.7694 24.6469 67.7381 24.8344 67.7381 24.9828V26.3734C67.7381 26.9749 67.9256 27.4905 68.2928 27.9045C68.66 28.3186 69.1443 28.5295 69.738 28.5295C70.4333 28.5295 70.9801 28.2561 71.3629 27.7248C71.7613 27.1858 71.9488 26.4827 71.9488 25.6ZM73.8315 25.5373C73.8315 26.9513 73.4487 28.0684 72.6753 28.8887C71.9879 29.623 71.1286 29.9823 70.113 29.9823C69.0115 29.9823 68.2225 29.5917 67.7382 28.8027V33.1696H65.8867V24.2093C65.8867 23.3187 65.8633 22.4125 65.8164 21.4751H67.4413L67.5429 22.7953H67.5741C68.1913 21.8032 69.1287 21.3032 70.3786 21.3032C71.3629 21.3032 72.1754 21.6938 72.8316 22.4672C73.5034 23.2484 73.8315 24.264 73.8315 25.5373Z"
        fill="black" />
    <path fill-rule="evenodd" clip-rule="evenodd"
        d="M84.5337 26.561C84.5337 27.5453 84.19 28.3421 83.5103 28.9592C82.7604 29.6311 81.7136 29.967 80.3699 29.967C79.1278 29.967 78.1357 29.7248 77.3857 29.2483L77.8154 27.7093C78.6278 28.1859 79.5184 28.428 80.4871 28.428C81.1824 28.428 81.7292 28.2718 82.112 27.9593C82.5026 27.6468 82.6979 27.225 82.6979 26.7016C82.6979 26.2329 82.5338 25.8423 82.2214 25.522C81.9011 25.2017 81.3699 24.9048 80.6277 24.6314C78.5888 23.8736 77.581 22.7722 77.581 21.3269C77.581 20.3817 77.9404 19.6083 78.6513 18.999C79.3622 18.3974 80.3074 18.0928 81.487 18.0928C82.5338 18.0928 83.4088 18.2724 84.1041 18.6396L83.6353 20.1395C82.9791 19.788 82.2448 19.6083 81.4167 19.6083C80.7683 19.6083 80.2527 19.7724 79.8856 20.0848C79.5809 20.3739 79.4247 20.7176 79.4247 21.1316C79.4247 21.5847 79.6043 21.9675 79.9559 22.2566C80.2606 22.53 80.823 22.8268 81.6355 23.1471C82.6276 23.5455 83.3541 24.0143 83.8228 24.5533C84.2993 25.0923 84.5337 25.7641 84.5337 26.561Z"
        fill="black" />
    <path fill-rule="evenodd" clip-rule="evenodd"
        d="M90.6579 22.8655H88.6189V26.9043C88.6189 27.9277 88.9783 28.4433 89.697 28.4433C90.0251 28.4433 90.2985 28.412 90.5173 28.3573L90.5719 29.7635C90.2048 29.8963 89.7282 29.9666 89.1345 29.9666C88.4002 29.9666 87.8377 29.74 87.4237 29.2948C87.0097 28.8495 86.8066 28.0995 86.8066 27.0527V22.8577H85.5957V21.475H86.8066V19.9516L88.6189 19.4048V21.475H90.6579V22.8655Z"
        fill="black" />
    <path fill-rule="evenodd" clip-rule="evenodd"
        d="M97.9156 25.6077C97.9156 24.8421 97.7515 24.1937 97.4234 23.6469C97.0328 22.9829 96.4782 22.6548 95.7595 22.6548C95.0174 22.6548 94.4471 22.9829 94.0643 23.6469C93.7284 24.1937 93.5721 24.8578 93.5721 25.6468C93.5721 26.4123 93.7362 27.0685 94.0643 27.6076C94.4627 28.2716 95.0252 28.5997 95.7439 28.5997C96.4469 28.5997 97.0016 28.2638 97.4078 27.5919C97.7437 27.0295 97.9156 26.3733 97.9156 25.6077ZM99.8295 25.5686C99.8295 26.8497 99.4624 27.8965 98.7359 28.7168C97.9703 29.5605 96.9547 29.9823 95.6892 29.9823C94.4705 29.9823 93.494 29.5761 92.7675 28.7715C92.041 27.9668 91.6816 26.9435 91.6816 25.7092C91.6816 24.4202 92.0566 23.3656 92.7988 22.5453C93.5487 21.7251 94.5565 21.311 95.822 21.311C97.0407 21.311 98.025 21.7173 98.7671 22.5297C99.478 23.3109 99.8295 24.3265 99.8295 25.5686Z"
        fill="black" />
    <path fill-rule="evenodd" clip-rule="evenodd"
        d="M105.844 23.1C105.665 23.0687 105.469 23.0531 105.259 23.0531C104.61 23.0531 104.102 23.2953 103.751 23.7874C103.446 24.2171 103.29 24.7717 103.29 25.428V29.7949H101.438V24.0921C101.438 23.1312 101.423 22.2563 101.384 21.4751H102.993L103.063 23.0687H103.118C103.313 22.5219 103.618 22.0766 104.04 21.7485C104.454 21.4517 104.899 21.3032 105.376 21.3032C105.548 21.3032 105.704 21.3188 105.837 21.3345L105.844 23.1Z"
        fill="black" />
    <path fill-rule="evenodd" clip-rule="evenodd"
        d="M112.344 24.764C112.36 24.2171 112.235 23.7406 111.985 23.3422C111.665 22.8266 111.172 22.5688 110.516 22.5688C109.915 22.5688 109.423 22.8188 109.048 23.3187C108.743 23.7171 108.556 24.2015 108.501 24.7561L112.344 24.764ZM114.11 25.2405C114.11 25.5686 114.086 25.8498 114.04 26.0763H108.493C108.516 26.8966 108.782 27.5294 109.297 27.959C109.766 28.3418 110.368 28.5371 111.11 28.5371C111.93 28.5371 112.68 28.4043 113.352 28.1465L113.641 29.4277C112.852 29.7714 111.922 29.9433 110.852 29.9433C109.563 29.9433 108.548 29.5605 107.813 28.8027C107.079 28.045 106.712 27.0216 106.712 25.7482C106.712 24.4983 107.055 23.4515 107.743 22.6156C108.462 21.7251 109.43 21.2798 110.649 21.2798C111.844 21.2798 112.758 21.7251 113.368 22.6156C113.86 23.3343 114.11 24.2015 114.11 25.2405Z"
        fill="black" />
    <path fill-rule="evenodd" clip-rule="evenodd"
        d="M48.8094 11.765L48.3328 10.2807C48.2859 10.1323 48.1922 9.7729 48.0438 9.21044H48.0282C47.9657 9.45261 47.8875 9.80415 47.7547 10.2807L47.286 11.765H48.8094ZM50.4733 14.132H49.5046L48.9734 12.468H47.1298L46.622 14.132H45.6846L47.5048 8.46045H48.6297L50.4733 14.132Z"
        fill="black" />
    <path fill-rule="evenodd" clip-rule="evenodd"
        d="M55.0359 10.0386L53.4891 14.1321H52.6063L51.1064 10.0386H52.0829L52.7782 12.2025C52.8954 12.5618 52.9969 12.9056 53.0751 13.2337H53.0985C53.1688 12.9368 53.2704 12.5931 53.3954 12.2025L54.0828 10.0386H55.0359Z"
        fill="black" />
    <path fill-rule="evenodd" clip-rule="evenodd"
        d="M58.2069 12.0931C57.1991 12.0931 56.6914 12.3353 56.6914 12.9212C56.6914 13.3509 56.9492 13.5618 57.3163 13.5618C57.7772 13.5618 58.2069 13.2102 58.2069 12.7259V12.0931ZM58.3319 14.1321L58.2616 13.6633H58.2381C57.9569 14.0383 57.5585 14.2258 57.0429 14.2258C56.3086 14.2258 55.793 13.7102 55.793 13.0227C55.793 12.015 56.6679 11.4916 58.1834 11.4916V11.4135C58.1834 10.8745 57.8944 10.6088 57.3319 10.6088C56.9257 10.6088 56.5742 10.7104 56.2617 10.9135L56.0742 10.3198C56.4492 10.0854 56.9257 9.96826 57.4804 9.96826C58.5506 9.96826 59.0896 10.5307 59.0896 11.6635V13.1712C59.0896 13.5852 59.1053 13.9055 59.1521 14.1477L58.3319 14.1321Z"
        fill="black" />
    <mask id="mask0_1_7439" style="mask-type:luminance" maskUnits="userSpaceOnUse" x="0" y="1"
        width="133" height="40">
        <path fill-rule="evenodd" clip-rule="evenodd"
            d="M0.847656 40.0599H132.675V1H0.847656V40.0599Z" fill="white" />
    </mask>
    <g mask="url(#mask0_1_7439)">
        <path fill-rule="evenodd" clip-rule="evenodd"
            d="M60.6758 14.1242H61.582V10.0385H60.6758V14.1242ZM61.1132 9.36663C60.8086 9.36663 60.5742 9.13227 60.5742 8.81979C60.5742 8.50731 60.8164 8.28076 61.1289 8.28076C61.4413 8.28076 61.6913 8.50731 61.6835 8.81979C61.6835 9.14789 61.4492 9.36663 61.1132 9.36663Z"
            fill="black" />
        <path fill-rule="evenodd" clip-rule="evenodd"
            d="M63.1992 14.1241H64.1054V8.16357H63.1992V14.1241Z" fill="black" />
        <path fill-rule="evenodd" clip-rule="evenodd"
            d="M67.8397 12.0931C66.832 12.0931 66.3242 12.3353 66.3242 12.9212C66.3242 13.3509 66.582 13.5618 66.9491 13.5618C67.41 13.5618 67.8397 13.2102 67.8397 12.7259V12.0931ZM67.9647 14.132L67.8944 13.6633H67.8709C67.5897 14.0383 67.1913 14.2258 66.6757 14.2258C65.9414 14.2258 65.4258 13.7102 65.4258 13.0227C65.4258 12.015 66.3007 11.4916 67.8162 11.4916V11.4135C67.8162 10.8745 67.5272 10.6088 66.9647 10.6088C66.5585 10.6088 66.207 10.7104 65.8945 10.9135L65.707 10.312C66.082 10.0776 66.5585 9.96045 67.1132 9.96045C68.1834 9.96045 68.7224 10.5229 68.7224 11.6557V13.1634C68.7224 13.5774 68.7381 13.8977 68.7771 14.1399H67.9647V14.132Z"
            fill="black" />
        <path fill-rule="evenodd" clip-rule="evenodd"
            d="M72.2216 10.6712C71.6981 10.6712 71.2216 11.1243 71.2216 11.7571V12.4758C71.2216 13.0382 71.6513 13.4991 72.2059 13.4991C72.8856 13.4991 73.2918 12.9445 73.2918 12.0617C73.2918 11.2337 72.8699 10.6712 72.2216 10.6712ZM72.409 14.2257C71.831 14.2257 71.4013 13.9835 71.1201 13.4992H71.1044L71.0498 14.1319H70.2764C70.2998 13.8038 70.3076 13.4367 70.3076 13.0304V8.16357H71.2216V10.64H71.2372C71.5107 10.1869 71.9403 9.96033 72.5418 9.96033C73.5262 9.96033 74.2136 10.804 74.2136 12.0305C74.2136 13.296 73.448 14.2257 72.409 14.2257Z"
            fill="black" />
        <path fill-rule="evenodd" clip-rule="evenodd"
            d="M75.5576 14.1241H76.4638V8.16357H75.5576V14.1241Z" fill="black" />
        <path fill-rule="evenodd" clip-rule="evenodd"
            d="M80.5809 11.6555C80.5809 11.0227 80.2606 10.5774 79.6825 10.5774C79.1591 10.5774 78.7529 11.0305 78.6904 11.6555H80.5809ZM81.4089 12.304H78.6826C78.6982 13.0774 79.2138 13.5149 79.9715 13.5149C80.3778 13.5149 80.7449 13.4446 81.073 13.3196L81.2136 13.9524C80.8309 14.1242 80.3778 14.2024 79.8465 14.2024C78.5654 14.2024 77.8076 13.3977 77.8076 12.14C77.8076 10.8901 78.581 9.94482 79.745 9.94482C80.784 9.94482 81.448 10.7182 81.448 11.89C81.448 12.0541 81.4402 12.1947 81.4089 12.304Z"
            fill="black" />
        <path fill-rule="evenodd" clip-rule="evenodd"
            d="M86.9549 10.6246C86.2987 10.6246 85.8769 11.2417 85.8769 12.0932C85.8769 12.9369 86.3065 13.5463 86.9471 13.5463C87.5877 13.5463 88.0174 12.89 88.0174 12.0698C88.0096 11.2417 87.5955 10.6246 86.9549 10.6246ZM86.9159 14.2258C85.7207 14.2258 84.9473 13.3352 84.9473 12.1244C84.9473 10.8588 85.7363 9.96045 86.9862 9.96045C88.1658 9.96045 88.9548 10.812 88.9548 12.0541C88.9548 13.3274 88.1424 14.2258 86.9159 14.2258Z"
            fill="black" />
        <path fill-rule="evenodd" clip-rule="evenodd"
            d="M93.8377 14.132H92.9315V11.7806C92.9315 11.0541 92.6502 10.6948 92.1034 10.6948C91.5644 10.6948 91.1972 11.1557 91.1972 11.6947V14.1242H90.291V11.2104C90.291 10.851 90.2832 10.4604 90.2598 10.0386H91.0566L91.0956 10.6713H91.1191C91.3613 10.2339 91.8612 9.95264 92.4159 9.95264C93.2752 9.95264 93.8377 10.6088 93.8377 11.6791V14.132Z"
            fill="black" />
        <path fill-rule="evenodd" clip-rule="evenodd"
            d="M99.783 10.726H98.7831V12.7102C98.7831 13.218 98.9628 13.468 99.3143 13.468C99.4706 13.468 99.6112 13.4523 99.7205 13.4289L99.744 14.1164C99.5643 14.1867 99.3299 14.2179 99.0409 14.2179C98.3222 14.2179 97.9004 13.8195 97.9004 12.7883V10.726H97.3066V10.0463H97.9004V9.29637L98.7909 9.02295V10.0385H99.7909V10.726"
            fill="black" />
        <path fill-rule="evenodd" clip-rule="evenodd"
            d="M104.594 14.1319H103.688V11.7961C103.688 11.0618 103.407 10.6947 102.86 10.6947C102.392 10.6947 101.954 11.0149 101.954 11.6633V14.1241H101.048V8.16357H101.954V10.6165H101.97C102.259 10.1713 102.665 9.95252 103.196 9.95252C104.063 9.95252 104.594 10.6243 104.594 11.6946V14.1319Z"
            fill="black" />
        <path fill-rule="evenodd" clip-rule="evenodd"
            d="M108.407 11.6555C108.407 11.0227 108.087 10.5774 107.509 10.5774C106.985 10.5774 106.571 11.0305 106.517 11.6555H108.407ZM109.235 12.304H106.509C106.524 13.0774 107.04 13.5149 107.798 13.5149C108.204 13.5149 108.571 13.4446 108.899 13.3196L109.04 13.9524C108.657 14.1242 108.204 14.2024 107.673 14.2024C106.392 14.2024 105.634 13.3977 105.634 12.14C105.634 10.8901 106.407 9.94482 107.571 9.94482C108.61 9.94482 109.274 10.7182 109.274 11.89C109.274 12.0541 109.266 12.1947 109.235 12.304Z"
            fill="black" />
    </g>
</svg>
    