<svg width="36" height="35" viewBox="0 0 36 35" fill="none" xmlns="http://www.w3.org/2000/svg">
<path d="M28.8543 8.81494L26.7315 10.407C26.2305 10.7828 25.621 10.986 24.9947 10.986H20.1339C19.2691 10.986 18.4784 11.4746 18.0917 12.2482V12.2482C17.6144 13.2028 17.862 14.3607 18.688 15.0365L21.5827 17.4049C23.8608 19.2688 25.0397 22.1597 24.7147 25.0851L24.6858 25.3448C24.5706 26.3816 24.3159 27.398 23.9285 28.3665L23.0649 30.5255" stroke="#051070" stroke-width="1.44737"/>
<path d="M4.25 15.3282L8.93672 14.5471C10.8959 14.2206 12.5945 15.9191 12.268 17.8783L12.0733 19.0465C11.7247 21.1379 12.7809 23.2121 14.6774 24.1603V24.1603C16.1959 24.9196 16.9833 26.6317 16.5716 28.2788L15.8289 31.2493" stroke="#051070" stroke-width="1.44737"/>
<circle cx="17.9991" cy="17.4991" r="13.75" stroke="#051070" stroke-width="1.44737"/>
</svg>
