<svg width="151" height="155" viewBox="0 0 164 168" fill="none" xmlns="http://www.w3.org/2000/svg">
<rect x="1.5" y="1.5" width="161" height="165" rx="6.73157" fill="#00AF54"/>
<rect x="1.5" y="1.5" width="161" height="165" rx="6.73157" stroke="#01774B" stroke-width="3"/>
<path d="M18.5182 17.7729L16.3277 14.4671H17.2023L18.9675 17.1711H18.5744L20.3476 14.4671H21.2062L18.9996 17.7729H18.5182ZM18.3898 20.0356V17.2754H19.144V20.0356H18.3898ZM22.5187 20.1159C22.1443 20.1159 21.8073 20.0276 21.5077 19.8511C21.2081 19.6746 20.9701 19.4365 20.7936 19.137C20.6171 18.8321 20.5288 18.4924 20.5288 18.1179C20.5288 17.7488 20.6171 17.4172 20.7936 17.123C20.9701 16.8234 21.2081 16.5854 21.5077 16.4089C21.8073 16.2323 22.1443 16.1441 22.5187 16.1441C22.8878 16.1441 23.2221 16.2323 23.5217 16.4089C23.8266 16.58 24.0673 16.8154 24.2438 17.115C24.4204 17.4145 24.5086 17.7488 24.5086 18.1179C24.5086 18.4924 24.4204 18.8321 24.2438 19.137C24.0673 19.4365 23.8266 19.6746 23.5217 19.8511C23.2221 20.0276 22.8878 20.1159 22.5187 20.1159ZM22.5187 19.4178C22.7594 19.4178 22.9734 19.3616 23.1606 19.2493C23.3478 19.137 23.495 18.9845 23.6019 18.7919C23.7089 18.594 23.7624 18.3694 23.7624 18.1179C23.7624 17.8719 23.7062 17.6526 23.5939 17.46C23.4869 17.2674 23.3398 17.1176 23.1526 17.0106C22.9707 16.8983 22.7594 16.8421 22.5187 16.8421C22.278 16.8421 22.064 16.8983 21.8768 17.0106C21.6896 17.1176 21.5425 17.2674 21.4355 17.46C21.3285 17.6526 21.275 17.8719 21.275 18.1179C21.275 18.3694 21.3285 18.594 21.4355 18.7919C21.5425 18.9845 21.6896 19.137 21.8768 19.2493C22.064 19.3616 22.278 19.4178 22.5187 19.4178ZM26.8549 20.1159C26.5446 20.1159 26.2638 20.0463 26.0124 19.9073C25.7663 19.7628 25.5737 19.5649 25.4346 19.3135C25.2956 19.0621 25.226 18.7705 25.226 18.4389V16.2243H25.9482V18.4068C25.9482 18.6154 25.9829 18.7973 26.0525 18.9524C26.1274 19.1022 26.2344 19.2172 26.3734 19.2974C26.5125 19.3777 26.6757 19.4178 26.8629 19.4178C27.1464 19.4178 27.3684 19.3295 27.5289 19.153C27.6894 18.9711 27.7696 18.7224 27.7696 18.4068V16.2243H28.4917V18.4389C28.4917 18.7705 28.4222 19.0621 28.2831 19.3135C28.144 19.5649 27.9515 19.7628 27.7054 19.9073C27.4647 20.0463 27.1812 20.1159 26.8549 20.1159ZM33.8247 20.0356V17.813C33.8247 17.5242 33.7337 17.2861 33.5519 17.0989C33.37 16.9117 33.1346 16.8181 32.8458 16.8181C32.6532 16.8181 32.482 16.8609 32.3322 16.9465C32.1825 17.032 32.0648 17.1497 31.9792 17.2995C31.8936 17.4493 31.8508 17.6205 31.8508 17.813L31.5539 17.6445C31.5539 17.3557 31.6181 17.0989 31.7465 16.8742C31.8749 16.6496 32.0541 16.473 32.2841 16.3447C32.5141 16.2109 32.7735 16.1441 33.0624 16.1441C33.3513 16.1441 33.6054 16.2083 33.8247 16.3366C34.0493 16.465 34.2259 16.6442 34.3543 16.8742C34.4826 17.1043 34.5468 17.369 34.5468 17.6686V20.0356H33.8247ZM31.1287 20.0356V14.3066H31.8508V20.0356H31.1287ZM37.1454 20.1159C36.7977 20.1159 36.4821 20.0303 36.1986 19.8591C35.915 19.6826 35.6904 19.4446 35.5245 19.145C35.3641 18.8454 35.2838 18.5084 35.2838 18.134C35.2838 17.7595 35.3641 17.4225 35.5245 17.123C35.6904 16.8234 35.9124 16.5854 36.1905 16.4089C36.474 16.2323 36.7923 16.1441 37.1454 16.1441C37.4342 16.1441 37.691 16.2056 37.9157 16.3286C38.1457 16.4463 38.3302 16.6121 38.4693 16.8261C38.6084 17.0347 38.686 17.2781 38.702 17.5563V18.7037C38.686 18.9765 38.6084 19.2199 38.4693 19.4339C38.3356 19.6478 38.1537 19.8163 37.9237 19.9394C37.699 20.057 37.4396 20.1159 37.1454 20.1159ZM37.2657 19.4339C37.6241 19.4339 37.913 19.3135 38.1323 19.0728C38.3516 18.8267 38.4613 18.5138 38.4613 18.134C38.4613 17.8719 38.4105 17.6445 38.3088 17.452C38.2125 17.254 38.0735 17.1016 37.8916 16.9946C37.7097 16.8823 37.4984 16.8261 37.2577 16.8261C37.017 16.8261 36.803 16.8823 36.6158 16.9946C36.4339 17.1069 36.2895 17.2621 36.1825 17.46C36.0809 17.6526 36.0301 17.8745 36.0301 18.126C36.0301 18.3827 36.0809 18.6101 36.1825 18.808C36.2895 19.0006 36.4366 19.153 36.6238 19.2654C36.811 19.3777 37.025 19.4339 37.2657 19.4339ZM38.4131 20.0356V19.0086L38.5496 18.0778L38.4131 17.1551V16.2243H39.1433V20.0356H38.4131ZM41.5026 20.0356L39.7534 16.2243H40.5558L41.96 19.4419H41.4946L42.9068 16.2243H43.6771L41.9279 20.0356H41.5026ZM45.9092 20.1159C45.5294 20.1159 45.1871 20.0303 44.8821 19.8591C44.5772 19.6826 44.3365 19.4446 44.16 19.145C43.9835 18.8454 43.8952 18.5058 43.8952 18.126C43.8952 17.7515 43.9808 17.4145 44.152 17.115C44.3285 16.8154 44.5639 16.58 44.8581 16.4089C45.1576 16.2323 45.492 16.1441 45.8611 16.1441C46.2141 16.1441 46.5244 16.2243 46.7918 16.3848C47.0646 16.5453 47.2759 16.7673 47.4257 17.0508C47.5808 17.3343 47.6584 17.6552 47.6584 18.0136C47.6584 18.0671 47.6557 18.126 47.6504 18.1902C47.645 18.249 47.6343 18.3185 47.6183 18.3988H44.4007V17.797H47.2331L46.9684 18.0297C46.9684 17.7729 46.9229 17.5563 46.832 17.3797C46.741 17.1979 46.6126 17.0588 46.4468 16.9625C46.281 16.8609 46.0804 16.81 45.845 16.81C45.5989 16.81 45.3823 16.8635 45.1951 16.9705C45.0079 17.0775 44.8634 17.2273 44.7618 17.4199C44.6602 17.6124 44.6093 17.8398 44.6093 18.1019C44.6093 18.3694 44.6628 18.6047 44.7698 18.808C44.8768 19.0059 45.0293 19.161 45.2272 19.2734C45.4251 19.3804 45.6524 19.4339 45.9092 19.4339C46.1232 19.4339 46.3184 19.3964 46.4949 19.3215C46.6768 19.2466 46.832 19.1343 46.9603 18.9845L47.4257 19.4579C47.2438 19.6719 47.0192 19.835 46.7517 19.9474C46.4896 20.0597 46.2088 20.1159 45.9092 20.1159ZM51.8801 20.1159C51.5003 20.1159 51.158 20.0303 50.853 19.8591C50.5481 19.6826 50.3074 19.4446 50.1309 19.145C49.9544 18.8454 49.8661 18.5058 49.8661 18.126C49.8661 17.7515 49.9517 17.4145 50.1229 17.115C50.2994 16.8154 50.5348 16.58 50.829 16.4089C51.1285 16.2323 51.4629 16.1441 51.832 16.1441C52.185 16.1441 52.4953 16.2243 52.7627 16.3848C53.0355 16.5453 53.2468 16.7673 53.3966 17.0508C53.5517 17.3343 53.6293 17.6552 53.6293 18.0136C53.6293 18.0671 53.6266 18.126 53.6213 18.1902C53.6159 18.249 53.6052 18.3185 53.5892 18.3988H50.3716V17.797H53.204L52.9393 18.0297C52.9393 17.7729 52.8938 17.5563 52.8028 17.3797C52.7119 17.1979 52.5835 17.0588 52.4177 16.9625C52.2519 16.8609 52.0513 16.81 51.8159 16.81C51.5698 16.81 51.3532 16.8635 51.166 16.9705C50.9788 17.0775 50.8343 17.2273 50.7327 17.4199C50.631 17.6124 50.5802 17.8398 50.5802 18.1019C50.5802 18.3694 50.6337 18.6047 50.7407 18.808C50.8477 19.0059 51.0001 19.161 51.1981 19.2734C51.396 19.3804 51.6233 19.4339 51.8801 19.4339C52.0941 19.4339 52.2893 19.3964 52.4658 19.3215C52.6477 19.2466 52.8028 19.1343 52.9312 18.9845L53.3966 19.4579C53.2147 19.6719 52.9901 19.835 52.7226 19.9474C52.4605 20.0597 52.1797 20.1159 51.8801 20.1159ZM56.0375 20.1159C55.6898 20.1159 55.3742 20.0303 55.0907 19.8591C54.8072 19.6826 54.5825 19.4446 54.4167 19.145C54.2562 18.8454 54.176 18.5084 54.176 18.134C54.176 17.7595 54.2562 17.4225 54.4167 17.123C54.5825 16.8234 54.8045 16.5854 55.0827 16.4089C55.3662 16.2323 55.6845 16.1441 56.0375 16.1441C56.3264 16.1441 56.5832 16.2056 56.8078 16.3286C57.0378 16.4463 57.2224 16.6121 57.3615 16.8261C57.5006 17.0347 57.5781 17.2781 57.5942 17.5563V18.7037C57.5781 18.9765 57.5006 19.2199 57.3615 19.4339C57.2277 19.6478 57.0459 19.8163 56.8159 19.9394C56.5912 20.057 56.3317 20.1159 56.0375 20.1159ZM56.1579 19.4339C56.5163 19.4339 56.8052 19.3135 57.0245 19.0728C57.2438 18.8267 57.3535 18.5138 57.3535 18.134C57.3535 17.8719 57.3026 17.6445 57.201 17.452C57.1047 17.254 56.9656 17.1016 56.7838 16.9946C56.6019 16.8823 56.3906 16.8261 56.1499 16.8261C55.9092 16.8261 55.6952 16.8823 55.508 16.9946C55.3261 17.1069 55.1817 17.2621 55.0747 17.46C54.973 17.6526 54.9222 17.8745 54.9222 18.126C54.9222 18.3827 54.973 18.6101 55.0747 18.808C55.1817 19.0006 55.3288 19.153 55.516 19.2654C55.7032 19.3777 55.9172 19.4339 56.1579 19.4339ZM57.3053 20.0356V19.0086L57.4417 18.0778L57.3053 17.1551V16.2243H58.0355V20.0356H57.3053ZM59.0869 20.0356V16.2243H59.809V20.0356H59.0869ZM59.809 17.8612L59.5362 17.7408C59.5362 17.254 59.6485 16.8662 59.8732 16.5774C60.0979 16.2885 60.4215 16.1441 60.8441 16.1441C61.0367 16.1441 61.2105 16.1788 61.3656 16.2484C61.5208 16.3126 61.6652 16.4222 61.7989 16.5774L61.3255 17.0668C61.2453 16.9812 61.157 16.9197 61.0607 16.8823C60.9644 16.8448 60.8521 16.8261 60.7237 16.8261C60.4563 16.8261 60.237 16.9117 60.0658 17.0829C59.8946 17.254 59.809 17.5135 59.809 17.8612ZM65.0191 20.0356V17.813C65.0191 17.5242 64.9281 17.2861 64.7463 17.0989C64.5644 16.9117 64.329 16.8181 64.0402 16.8181C63.8476 16.8181 63.6764 16.8609 63.5266 16.9465C63.3769 17.032 63.2592 17.1497 63.1736 17.2995C63.088 17.4493 63.0452 17.6205 63.0452 17.813L62.7483 17.6445C62.7483 17.3557 62.8125 17.0989 62.9409 16.8742C63.0693 16.6496 63.2485 16.473 63.4785 16.3447C63.7085 16.2109 63.968 16.1441 64.2568 16.1441C64.5457 16.1441 64.7998 16.2163 65.0191 16.3607C65.2437 16.5051 65.4203 16.695 65.5487 16.9304C65.677 17.1604 65.7412 17.4065 65.7412 17.6686V20.0356H65.0191ZM62.3231 20.0356V16.2243H63.0452V20.0356H62.3231ZM68.4842 20.1159C68.1044 20.1159 67.7621 20.0303 67.4572 19.8591C67.1522 19.6826 66.9115 19.4446 66.735 19.145C66.5585 18.8454 66.4702 18.5058 66.4702 18.126C66.4702 17.7515 66.5558 17.4145 66.727 17.115C66.9035 16.8154 67.1389 16.58 67.4331 16.4089C67.7326 16.2323 68.067 16.1441 68.4361 16.1441C68.7891 16.1441 69.0994 16.2243 69.3668 16.3848C69.6396 16.5453 69.8509 16.7673 70.0007 17.0508C70.1558 17.3343 70.2334 17.6552 70.2334 18.0136C70.2334 18.0671 70.2307 18.126 70.2254 18.1902C70.22 18.249 70.2093 18.3185 70.1933 18.3988H66.9757V17.797H69.8081L69.5434 18.0297C69.5434 17.7729 69.4979 17.5563 69.407 17.3797C69.316 17.1979 69.1876 17.0588 69.0218 16.9625C68.856 16.8609 68.6554 16.81 68.42 16.81C68.174 16.81 67.9573 16.8635 67.7701 16.9705C67.5829 17.0775 67.4384 17.2273 67.3368 17.4199C67.2352 17.6124 67.1843 17.8398 67.1843 18.1019C67.1843 18.3694 67.2378 18.6047 67.3448 18.808C67.4518 19.0059 67.6043 19.161 67.8022 19.2734C68.0001 19.3804 68.2274 19.4339 68.4842 19.4339C68.6982 19.4339 68.8934 19.3964 69.07 19.3215C69.2518 19.2466 69.407 19.1343 69.5353 18.9845L70.0007 19.4579C69.8188 19.6719 69.5942 19.835 69.3267 19.9474C69.0646 20.0597 68.7838 20.1159 68.4842 20.1159ZM72.6336 20.1159C72.2806 20.1159 71.965 20.0303 71.6868 19.8591C71.4086 19.6826 71.1866 19.4446 71.0208 19.145C70.8603 18.8454 70.7801 18.5084 70.7801 18.134C70.7801 17.7595 70.8603 17.4225 71.0208 17.123C71.1866 16.8234 71.4086 16.5854 71.6868 16.4089C71.965 16.2323 72.2806 16.1441 72.6336 16.1441C72.9171 16.1441 73.1739 16.2056 73.4039 16.3286C73.6339 16.4463 73.8185 16.6121 73.9576 16.8261C74.102 17.0347 74.1822 17.2781 74.1983 17.5563V18.7037C74.1822 18.9765 74.1047 19.2199 73.9656 19.4339C73.8265 19.6478 73.642 19.8163 73.4119 19.9394C73.1819 20.057 72.9225 20.1159 72.6336 20.1159ZM72.754 19.4339C72.9947 19.4339 73.2033 19.3777 73.3798 19.2654C73.5617 19.153 73.7035 19.0006 73.8051 18.808C73.9067 18.6101 73.9576 18.3854 73.9576 18.134C73.9576 17.8719 73.9041 17.6445 73.7971 17.452C73.6954 17.2594 73.5537 17.1069 73.3718 16.9946C73.1953 16.8823 72.9867 16.8261 72.746 16.8261C72.5052 16.8261 72.2939 16.8823 72.1121 16.9946C71.9302 17.1069 71.7858 17.2621 71.6788 17.46C71.5771 17.6526 71.5263 17.8745 71.5263 18.126C71.5263 18.3827 71.5771 18.6101 71.6788 18.808C71.7858 19.0006 71.9302 19.153 72.1121 19.2654C72.2993 19.3777 72.5133 19.4339 72.754 19.4339ZM74.6396 20.0356H73.9094V19.0086L74.0458 18.0778L73.9094 17.1551V14.3066H74.6396V20.0356ZM77.4884 20.0356V14.4671H78.018L78.2426 15.3417V20.0356H77.4884ZM81.3398 20.0356L77.9217 15.4701L78.018 14.4671L81.4442 19.0246L81.3398 20.0356ZM81.3398 20.0356L81.1152 19.2092V14.4671H81.8694V20.0356H81.3398ZM84.8941 20.1159C84.525 20.1159 84.1907 20.0303 83.8911 19.8591C83.5916 19.6879 83.3562 19.4579 83.185 19.1691C83.0138 18.8802 82.9283 18.5593 82.9283 18.2062C82.9283 17.7087 83.0994 17.2193 83.4418 16.7378L85.1188 14.4671H85.9934L84.2923 16.7539L84.0195 16.8983C84.0837 16.786 84.1613 16.6924 84.2522 16.6175C84.3431 16.5372 84.4555 16.4757 84.5892 16.4329C84.7283 16.3901 84.8888 16.3687 85.0706 16.3687C85.4023 16.3687 85.7018 16.4463 85.9693 16.6014C86.2421 16.7566 86.4588 16.9705 86.6192 17.2433C86.7851 17.5108 86.868 17.8237 86.868 18.1821C86.868 18.5352 86.7797 18.8588 86.6032 19.153C86.4267 19.4472 86.1886 19.6826 85.8891 19.8591C85.5895 20.0303 85.2579 20.1159 84.8941 20.1159ZM84.8941 19.4098C85.1241 19.4098 85.3301 19.3563 85.5119 19.2493C85.6992 19.137 85.8463 18.9899 85.9533 18.808C86.0602 18.6208 86.1137 18.4121 86.1137 18.1821C86.1137 17.9521 86.0602 17.7462 85.9533 17.5643C85.8463 17.3771 85.6992 17.23 85.5119 17.123C85.3301 17.016 85.1241 16.9625 84.8941 16.9625C84.6641 16.9625 84.4555 17.016 84.2682 17.123C84.0864 17.23 83.9419 17.3771 83.835 17.5643C83.7333 17.7462 83.6825 17.9521 83.6825 18.1821C83.6825 18.4121 83.7333 18.6208 83.835 18.808C83.9419 18.9952 84.0864 19.1423 84.2682 19.2493C84.4555 19.3563 84.6641 19.4098 84.8941 19.4098ZM87.6691 19.5783L89.7954 17.4118C90.0094 17.1979 90.1779 17.0133 90.301 16.8582C90.424 16.6977 90.5122 16.5506 90.5657 16.4169C90.6192 16.2831 90.646 16.1441 90.646 15.9996C90.646 15.7161 90.5497 15.4941 90.3571 15.3337C90.1699 15.1732 89.9238 15.0929 89.6189 15.0929C89.3354 15.0929 89.0786 15.1598 88.8486 15.2935C88.624 15.4219 88.4234 15.6332 88.2468 15.9274L87.7092 15.4861C87.9339 15.1224 88.2067 14.8495 88.5277 14.6677C88.8486 14.4804 89.2204 14.3868 89.643 14.3868C89.996 14.3868 90.301 14.4537 90.5577 14.5874C90.8198 14.7212 91.0231 14.9084 91.1675 15.1491C91.312 15.3898 91.3842 15.6707 91.3842 15.9916C91.3842 16.227 91.3548 16.4356 91.2959 16.6175C91.2371 16.7993 91.1354 16.9839 90.991 17.1711C90.8466 17.3583 90.6433 17.583 90.3812 17.8451L88.6561 19.5542L87.6691 19.5783ZM87.6691 20.0356V19.5783L88.303 19.3616H91.5206V20.0356H87.6691ZM92.5624 20.9183L93.0599 19.9634L93.3167 19.8992C93.2899 19.9581 93.2552 20.0062 93.2124 20.0437C93.1749 20.0811 93.1268 20.0998 93.0679 20.0998C92.9556 20.0998 92.8513 20.0544 92.755 19.9634C92.6641 19.8671 92.6186 19.7495 92.6186 19.6104C92.6186 19.4553 92.6694 19.3269 92.7711 19.2252C92.8727 19.1182 93.0011 19.0648 93.1562 19.0648C93.2953 19.0648 93.4183 19.1182 93.5253 19.2252C93.6323 19.3269 93.6858 19.4553 93.6858 19.6104C93.6858 19.6692 93.6724 19.7414 93.6457 19.827C93.6243 19.9073 93.5788 20.0116 93.5093 20.14L92.9797 21.1429L92.5624 20.9183ZM96.5775 20.1159C96.1763 20.1159 95.8099 19.9982 95.4782 19.7628C95.1519 19.5275 94.8898 19.1931 94.6919 18.7598C94.494 18.3266 94.395 17.8211 94.395 17.2433C94.395 16.6603 94.4913 16.1548 94.6839 15.7268C94.8818 15.2989 95.1439 14.9699 95.4702 14.7399C95.8019 14.5045 96.1683 14.3868 96.5695 14.3868C96.9707 14.3868 97.3344 14.5045 97.6607 14.7399C97.9924 14.9699 98.2545 15.2989 98.4471 15.7268C98.645 16.1548 98.744 16.6629 98.744 17.2514C98.744 17.8344 98.645 18.3426 98.4471 18.7759C98.2545 19.2038 97.9951 19.5355 97.6688 19.7709C97.3425 20.0009 96.9787 20.1159 96.5775 20.1159ZM96.5695 19.4018C96.8476 19.4018 97.091 19.3215 97.2997 19.161C97.5136 18.9952 97.6795 18.7518 97.7971 18.4309C97.9202 18.1099 97.9817 17.7141 97.9817 17.2433C97.9817 16.7726 97.9202 16.3794 97.7971 16.0638C97.6795 15.7429 97.5136 15.5022 97.2997 15.3417C97.091 15.1758 96.8476 15.0929 96.5695 15.0929C96.2913 15.0929 96.0453 15.1758 95.8313 15.3417C95.6227 15.5022 95.4568 15.7429 95.3338 16.0638C95.2161 16.3794 95.1573 16.7726 95.1573 17.2433C95.1573 17.7141 95.2161 18.1099 95.3338 18.4309C95.4568 18.7518 95.6253 18.9952 95.8393 19.161C96.0533 19.3215 96.2967 19.4018 96.5695 19.4018ZM101.31 20.1159C100.909 20.1159 100.543 19.9982 100.211 19.7628C99.8848 19.5275 99.6227 19.1931 99.4247 18.7598C99.2268 18.3266 99.1278 17.8211 99.1278 17.2433C99.1278 16.6603 99.2241 16.1548 99.4167 15.7268C99.6146 15.2989 99.8767 14.9699 100.203 14.7399C100.535 14.5045 100.901 14.3868 101.302 14.3868C101.704 14.3868 102.067 14.5045 102.394 14.7399C102.725 14.9699 102.987 15.2989 103.18 15.7268C103.378 16.1548 103.477 16.6629 103.477 17.2514C103.477 17.8344 103.378 18.3426 103.18 18.7759C102.987 19.2038 102.728 19.5355 102.402 19.7709C102.075 20.0009 101.712 20.1159 101.31 20.1159ZM101.302 19.4018C101.58 19.4018 101.824 19.3215 102.032 19.161C102.246 18.9952 102.412 18.7518 102.53 18.4309C102.653 18.1099 102.715 17.7141 102.715 17.2433C102.715 16.7726 102.653 16.3794 102.53 16.0638C102.412 15.7429 102.246 15.5022 102.032 15.3417C101.824 15.1758 101.58 15.0929 101.302 15.0929C101.024 15.0929 100.778 15.1758 100.564 15.3417C100.355 15.5022 100.19 15.7429 100.067 16.0638C99.949 16.3794 99.8901 16.7726 99.8901 17.2433C99.8901 17.7141 99.949 18.1099 100.067 18.4309C100.19 18.7518 100.358 18.9952 100.572 19.161C100.786 19.3215 101.03 19.4018 101.302 19.4018ZM106.043 20.1159C105.642 20.1159 105.276 19.9982 104.944 19.7628C104.618 19.5275 104.355 19.1931 104.158 18.7598C103.96 18.3266 103.861 17.8211 103.861 17.2433C103.861 16.6603 103.957 16.1548 104.15 15.7268C104.347 15.2989 104.61 14.9699 104.936 14.7399C105.268 14.5045 105.634 14.3868 106.035 14.3868C106.436 14.3868 106.8 14.5045 107.126 14.7399C107.458 14.9699 107.72 15.2989 107.913 15.7268C108.111 16.1548 108.21 16.6629 108.21 17.2514C108.21 17.8344 108.111 18.3426 107.913 18.7759C107.72 19.2038 107.461 19.5355 107.134 19.7709C106.808 20.0009 106.444 20.1159 106.043 20.1159ZM106.035 19.4018C106.313 19.4018 106.557 19.3215 106.765 19.161C106.979 18.9952 107.145 18.7518 107.263 18.4309C107.386 18.1099 107.447 17.7141 107.447 17.2433C107.447 16.7726 107.386 16.3794 107.263 16.0638C107.145 15.7429 106.979 15.5022 106.765 15.3417C106.557 15.1758 106.313 15.0929 106.035 15.0929C105.757 15.0929 105.511 15.1758 105.297 15.3417C105.088 15.5022 104.923 15.7429 104.799 16.0638C104.682 16.3794 104.623 16.7726 104.623 17.2433C104.623 17.7141 104.682 18.1099 104.799 18.4309C104.923 18.7518 105.091 18.9952 105.305 19.161C105.519 19.3215 105.762 19.4018 106.035 19.4018ZM112.22 20.1159C111.873 20.1159 111.557 20.0303 111.274 19.8591C110.99 19.6826 110.765 19.4446 110.6 19.145C110.439 18.8454 110.359 18.5084 110.359 18.134C110.359 17.7595 110.439 17.4225 110.6 17.123C110.765 16.8234 110.987 16.5854 111.266 16.4089C111.549 16.2323 111.867 16.1441 112.22 16.1441C112.509 16.1441 112.766 16.2056 112.991 16.3286C113.221 16.4463 113.405 16.6121 113.544 16.8261C113.683 17.0347 113.761 17.2781 113.777 17.5563V18.7037C113.761 18.9765 113.683 19.2199 113.544 19.4339C113.411 19.6478 113.229 19.8163 112.999 19.9394C112.774 20.057 112.515 20.1159 112.22 20.1159ZM112.341 19.4339C112.699 19.4339 112.988 19.3135 113.207 19.0728C113.427 18.8267 113.536 18.5138 113.536 18.134C113.536 17.8719 113.485 17.6445 113.384 17.452C113.288 17.254 113.148 17.1016 112.967 16.9946C112.785 16.8823 112.573 16.8261 112.333 16.8261C112.092 16.8261 111.878 16.8823 111.691 16.9946C111.509 17.1069 111.364 17.2621 111.258 17.46C111.156 17.6526 111.105 17.8745 111.105 18.126C111.105 18.3827 111.156 18.6101 111.258 18.808C111.364 19.0006 111.512 19.153 111.699 19.2654C111.886 19.3777 112.1 19.4339 112.341 19.4339ZM113.488 20.0356V19.0086L113.625 18.0778L113.488 17.1551V16.2243H114.218V20.0356H113.488ZM116.481 20.1159C116.267 20.1159 116.064 20.0891 115.871 20.0356C115.684 19.9768 115.51 19.8966 115.35 19.7949C115.189 19.6879 115.05 19.5622 114.933 19.4178L115.398 18.9524C115.537 19.1236 115.698 19.252 115.88 19.3376C116.061 19.4178 116.265 19.4579 116.489 19.4579C116.714 19.4579 116.888 19.4205 117.011 19.3456C117.134 19.2654 117.195 19.1557 117.195 19.0166C117.195 18.8775 117.145 18.7705 117.043 18.6957C116.947 18.6154 116.821 18.5512 116.666 18.5031C116.511 18.4496 116.345 18.3988 116.168 18.3506C115.997 18.2971 115.834 18.2303 115.679 18.15C115.524 18.0698 115.395 17.9601 115.294 17.8211C115.197 17.682 115.149 17.4974 115.149 17.2674C115.149 17.0374 115.206 16.8395 115.318 16.6736C115.43 16.5025 115.585 16.3714 115.783 16.2805C115.987 16.1895 116.23 16.1441 116.513 16.1441C116.813 16.1441 117.078 16.1976 117.308 16.3045C117.543 16.4062 117.736 16.5613 117.885 16.7699L117.42 17.2353C117.313 17.0962 117.179 16.9892 117.019 16.9144C116.864 16.8395 116.687 16.802 116.489 16.802C116.281 16.802 116.12 16.8395 116.008 16.9144C115.901 16.9839 115.847 17.0829 115.847 17.2112C115.847 17.3396 115.896 17.4386 115.992 17.5081C116.088 17.5777 116.214 17.6365 116.369 17.6846C116.529 17.7328 116.695 17.7836 116.866 17.8371C117.038 17.8852 117.201 17.9521 117.356 18.0377C117.511 18.1233 117.637 18.2383 117.733 18.3827C117.835 18.5272 117.885 18.7171 117.885 18.9524C117.885 19.3108 117.757 19.5943 117.5 19.803C117.249 20.0116 116.909 20.1159 116.481 20.1159ZM120.371 20.0356V16.2243H121.093V20.0356H120.371ZM120.732 15.462C120.598 15.462 120.489 15.4192 120.403 15.3337C120.318 15.2427 120.275 15.1304 120.275 14.9966C120.275 14.8683 120.318 14.7613 120.403 14.6757C120.489 14.5848 120.598 14.5393 120.732 14.5393C120.866 14.5393 120.975 14.5848 121.061 14.6757C121.147 14.7613 121.189 14.8683 121.189 14.9966C121.189 15.1304 121.147 15.2427 121.061 15.3337C120.975 15.4192 120.866 15.462 120.732 15.462ZM124.853 20.0356V17.813C124.853 17.5242 124.762 17.2861 124.581 17.0989C124.399 16.9117 124.163 16.8181 123.875 16.8181C123.682 16.8181 123.511 16.8609 123.361 16.9465C123.211 17.032 123.094 17.1497 123.008 17.2995C122.922 17.4493 122.88 17.6205 122.88 17.813L122.583 17.6445C122.583 17.3557 122.647 17.0989 122.775 16.8742C122.904 16.6496 123.083 16.473 123.313 16.3447C123.543 16.2109 123.802 16.1441 124.091 16.1441C124.38 16.1441 124.634 16.2163 124.853 16.3607C125.078 16.5051 125.255 16.695 125.383 16.9304C125.511 17.1604 125.576 17.4065 125.576 17.6686V20.0356H124.853ZM122.157 20.0356V16.2243H122.88V20.0356H122.157ZM127.092 20.0356V14.6275H127.814V20.0356H127.092ZM126.153 16.8823V16.2243H128.753V16.8823H126.153ZM131.108 20.1159C130.728 20.1159 130.386 20.0303 130.081 19.8591C129.776 19.6826 129.535 19.4446 129.359 19.145C129.182 18.8454 129.094 18.5058 129.094 18.126C129.094 17.7515 129.18 17.4145 129.351 17.115C129.527 16.8154 129.763 16.58 130.057 16.4089C130.357 16.2323 130.691 16.1441 131.06 16.1441C131.413 16.1441 131.723 16.2243 131.991 16.3848C132.264 16.5453 132.475 16.7673 132.625 17.0508C132.78 17.3343 132.857 17.6552 132.857 18.0136C132.857 18.0671 132.855 18.126 132.849 18.1902C132.844 18.249 132.833 18.3185 132.817 18.3988H129.6V17.797H132.432L132.167 18.0297C132.167 17.7729 132.122 17.5563 132.031 17.3797C131.94 17.1979 131.812 17.0588 131.646 16.9625C131.48 16.8609 131.279 16.81 131.044 16.81C130.798 16.81 130.581 16.8635 130.394 16.9705C130.207 17.0775 130.062 17.2273 129.961 17.4199C129.859 17.6124 129.808 17.8398 129.808 18.1019C129.808 18.3694 129.862 18.6047 129.969 18.808C130.076 19.0059 130.228 19.161 130.426 19.2734C130.624 19.3804 130.851 19.4339 131.108 19.4339C131.322 19.4339 131.517 19.3964 131.694 19.3215C131.876 19.2466 132.031 19.1343 132.159 18.9845L132.625 19.4579C132.443 19.6719 132.218 19.835 131.951 19.9474C131.688 20.0597 131.408 20.1159 131.108 20.1159ZM133.645 20.0356V16.2243H134.367V20.0356H133.645ZM134.367 17.8612L134.094 17.7408C134.094 17.254 134.206 16.8662 134.431 16.5774C134.656 16.2885 134.979 16.1441 135.402 16.1441C135.595 16.1441 135.768 16.1788 135.923 16.2484C136.079 16.3126 136.223 16.4222 136.357 16.5774L135.883 17.0668C135.803 16.9812 135.715 16.9197 135.619 16.8823C135.522 16.8448 135.41 16.8261 135.282 16.8261C135.014 16.8261 134.795 16.9117 134.624 17.0829C134.452 17.254 134.367 17.5135 134.367 17.8612ZM138.505 20.1159C138.125 20.1159 137.783 20.0303 137.478 19.8591C137.173 19.6826 136.932 19.4446 136.756 19.145C136.579 18.8454 136.491 18.5058 136.491 18.126C136.491 17.7515 136.577 17.4145 136.748 17.115C136.924 16.8154 137.16 16.58 137.454 16.4089C137.754 16.2323 138.088 16.1441 138.457 16.1441C138.81 16.1441 139.12 16.2243 139.388 16.3848C139.661 16.5453 139.872 16.7673 140.022 17.0508C140.177 17.3343 140.254 17.6552 140.254 18.0136C140.254 18.0671 140.252 18.126 140.246 18.1902C140.241 18.249 140.23 18.3185 140.214 18.3988H136.997V17.797H139.829L139.564 18.0297C139.564 17.7729 139.519 17.5563 139.428 17.3797C139.337 17.1979 139.209 17.0588 139.043 16.9625C138.877 16.8609 138.676 16.81 138.441 16.81C138.195 16.81 137.978 16.8635 137.791 16.9705C137.604 17.0775 137.459 17.2273 137.358 17.4199C137.256 17.6124 137.205 17.8398 137.205 18.1019C137.205 18.3694 137.259 18.6047 137.366 18.808C137.473 19.0059 137.625 19.161 137.823 19.2734C138.021 19.3804 138.248 19.4339 138.505 19.4339C138.719 19.4339 138.914 19.3964 139.091 19.3215C139.273 19.2466 139.428 19.1343 139.556 18.9845L140.022 19.4579C139.84 19.6719 139.615 19.835 139.348 19.9474C139.085 20.0597 138.805 20.1159 138.505 20.1159ZM142.253 20.1159C142.039 20.1159 141.836 20.0891 141.644 20.0356C141.456 19.9768 141.282 19.8966 141.122 19.7949C140.961 19.6879 140.822 19.5622 140.705 19.4178L141.17 18.9524C141.309 19.1236 141.47 19.252 141.652 19.3376C141.833 19.4178 142.037 19.4579 142.261 19.4579C142.486 19.4579 142.66 19.4205 142.783 19.3456C142.906 19.2654 142.967 19.1557 142.967 19.0166C142.967 18.8775 142.917 18.7705 142.815 18.6957C142.719 18.6154 142.593 18.5512 142.438 18.5031C142.283 18.4496 142.117 18.3988 141.94 18.3506C141.769 18.2971 141.606 18.2303 141.451 18.15C141.296 18.0698 141.167 17.9601 141.066 17.8211C140.97 17.682 140.921 17.4974 140.921 17.2674C140.921 17.0374 140.978 16.8395 141.09 16.6736C141.202 16.5025 141.357 16.3714 141.555 16.2805C141.759 16.1895 142.002 16.1441 142.285 16.1441C142.585 16.1441 142.85 16.1976 143.08 16.3045C143.315 16.4062 143.508 16.5613 143.658 16.7699L143.192 17.2353C143.085 17.0962 142.951 16.9892 142.791 16.9144C142.636 16.8395 142.459 16.802 142.261 16.802C142.053 16.802 141.892 16.8395 141.78 16.9144C141.673 16.9839 141.619 17.0829 141.619 17.2112C141.619 17.3396 141.668 17.4386 141.764 17.5081C141.86 17.5777 141.986 17.6365 142.141 17.6846C142.301 17.7328 142.467 17.7836 142.638 17.8371C142.81 17.8852 142.973 17.9521 143.128 18.0377C143.283 18.1233 143.409 18.2383 143.505 18.3827C143.607 18.5272 143.658 18.7171 143.658 18.9524C143.658 19.3108 143.529 19.5943 143.272 19.803C143.021 20.0116 142.681 20.1159 142.253 20.1159ZM145.052 20.0356V14.6275H145.774V20.0356H145.052ZM144.113 16.8823V16.2243H146.713V16.8823H144.113ZM28.2022 30.0356V26.2243H28.9243V30.0356H28.2022ZM28.5632 25.462C28.4295 25.462 28.3198 25.4192 28.2343 25.3337C28.1487 25.2427 28.1059 25.1304 28.1059 24.9966C28.1059 24.8683 28.1487 24.7613 28.2343 24.6757C28.3198 24.5848 28.4295 24.5393 28.5632 24.5393C28.697 24.5393 28.8066 24.5848 28.8922 24.6757C28.9778 24.7613 29.0206 24.8683 29.0206 24.9966C29.0206 25.1304 28.9778 25.2427 28.8922 25.3337C28.8066 25.4192 28.697 25.462 28.5632 25.462ZM32.6846 30.0356V27.813C32.6846 27.5242 32.5936 27.2861 32.4118 27.0989C32.2299 26.9117 31.9945 26.8181 31.7057 26.8181C31.5131 26.8181 31.3419 26.8609 31.1921 26.9465C31.0423 27.032 30.9247 27.1497 30.8391 27.2995C30.7535 27.4493 30.7107 27.6205 30.7107 27.813L30.4138 27.6445C30.4138 27.3557 30.478 27.0989 30.6064 26.8742C30.7348 26.6496 30.914 26.473 31.144 26.3447C31.374 26.2109 31.6334 26.1441 31.9223 26.1441C32.2112 26.1441 32.4652 26.2163 32.6846 26.3607C32.9092 26.5051 33.0858 26.695 33.2141 26.9304C33.3425 27.1604 33.4067 27.4065 33.4067 27.6686V30.0356H32.6846ZM29.9885 30.0356V26.2243H30.7107V30.0356H29.9885ZM35.9331 29.5783L38.0594 27.4118C38.2734 27.1979 38.4419 27.0133 38.5649 26.8582C38.688 26.6977 38.7762 26.5506 38.8297 26.4169C38.8832 26.2831 38.91 26.1441 38.91 25.9996C38.91 25.7161 38.8137 25.4941 38.6211 25.3337C38.4339 25.1732 38.1878 25.0929 37.8829 25.0929C37.5994 25.0929 37.3426 25.1598 37.1126 25.2935C36.888 25.4219 36.6874 25.6332 36.5108 25.9274L35.9732 25.4861C36.1979 25.1224 36.4707 24.8495 36.7917 24.6677C37.1126 24.4804 37.4844 24.3868 37.907 24.3868C38.26 24.3868 38.5649 24.4537 38.8217 24.5874C39.0838 24.7212 39.2871 24.9084 39.4315 25.1491C39.576 25.3898 39.6482 25.6707 39.6482 25.9916C39.6482 26.227 39.6187 26.4356 39.5599 26.6175C39.5011 26.7993 39.3994 26.9839 39.255 27.1711C39.1106 27.3583 38.9073 27.583 38.6452 27.8451L36.92 29.5542L35.9331 29.5783ZM35.9331 30.0356V29.5783L36.567 29.3616H39.7846V30.0356H35.9331ZM42.6318 30.1159C42.2306 30.1159 41.8642 29.9982 41.5325 29.7628C41.2062 29.5275 40.9441 29.1931 40.7462 28.7598C40.5483 28.3266 40.4493 27.8211 40.4493 27.2433C40.4493 26.6603 40.5456 26.1548 40.7382 25.7268C40.9361 25.2989 41.1982 24.9699 41.5245 24.7399C41.8562 24.5045 42.2226 24.3868 42.6238 24.3868C43.025 24.3868 43.3887 24.5045 43.715 24.7399C44.0467 24.9699 44.3088 25.2989 44.5014 25.7268C44.6993 26.1548 44.7982 26.6629 44.7982 27.2514C44.7982 27.8344 44.6993 28.3426 44.5014 28.7759C44.3088 29.2038 44.0493 29.5355 43.723 29.7709C43.3967 30.0009 43.033 30.1159 42.6318 30.1159ZM42.6238 29.4018C42.9019 29.4018 43.1453 29.3215 43.3539 29.161C43.5679 28.9952 43.7337 28.7518 43.8514 28.4309C43.9745 28.1099 44.036 27.7141 44.036 27.2433C44.036 26.7726 43.9745 26.3794 43.8514 26.0638C43.7337 25.7429 43.5679 25.5022 43.3539 25.3417C43.1453 25.1758 42.9019 25.0929 42.6238 25.0929C42.3456 25.0929 42.0995 25.1758 41.8856 25.3417C41.677 25.5022 41.5111 25.7429 41.3881 26.0638C41.2704 26.3794 41.2116 26.7726 41.2116 27.2433C41.2116 27.7141 41.2704 28.1099 41.3881 28.4309C41.5111 28.7518 41.6796 28.9952 41.8936 29.161C42.1076 29.3215 42.351 29.4018 42.6238 29.4018ZM48.801 30.1159C48.4479 30.1159 48.1323 30.0303 47.8542 29.8591C47.576 29.6826 47.354 29.4446 47.1882 29.145C47.0277 28.8454 46.9475 28.5084 46.9475 28.134C46.9475 27.7595 47.0277 27.4225 47.1882 27.123C47.354 26.8234 47.576 26.5854 47.8542 26.4089C48.1323 26.2323 48.4479 26.1441 48.801 26.1441C49.0845 26.1441 49.3412 26.2056 49.5713 26.3286C49.8013 26.4463 49.9858 26.6121 50.1249 26.8261C50.2693 27.0347 50.3496 27.2781 50.3656 27.5563V28.7037C50.3496 28.9765 50.272 29.2199 50.1329 29.4339C49.9939 29.6478 49.8093 29.8163 49.5793 29.9394C49.3493 30.057 49.0898 30.1159 48.801 30.1159ZM48.9213 29.4339C49.162 29.4339 49.3707 29.3777 49.5472 29.2654C49.7291 29.153 49.8708 29.0006 49.9725 28.808C50.0741 28.6101 50.1249 28.3854 50.1249 28.134C50.1249 27.8719 50.0714 27.6445 49.9644 27.452C49.8628 27.2594 49.721 27.1069 49.5392 26.9946C49.3626 26.8823 49.154 26.8261 48.9133 26.8261C48.6726 26.8261 48.4613 26.8823 48.2794 26.9946C48.0975 27.1069 47.9531 27.2621 47.8461 27.46C47.7445 27.6526 47.6937 27.8745 47.6937 28.126C47.6937 28.3827 47.7445 28.6101 47.8461 28.808C47.9531 29.0006 48.0975 29.153 48.2794 29.2654C48.4666 29.3777 48.6806 29.4339 48.9213 29.4339ZM50.8069 30.0356H50.0768V29.0086L50.2132 28.0778L50.0768 27.1551V24.3066H50.8069V30.0356ZM53.4791 30.1159C53.1314 30.1159 52.8158 30.0303 52.5323 29.8591C52.2488 29.6826 52.0241 29.4446 51.8583 29.145C51.6978 28.8454 51.6176 28.5084 51.6176 28.134C51.6176 27.7595 51.6978 27.4225 51.8583 27.123C52.0241 26.8234 52.2461 26.5854 52.5243 26.4089C52.8078 26.2323 53.1261 26.1441 53.4791 26.1441C53.768 26.1441 54.0248 26.2056 54.2494 26.3286C54.4795 26.4463 54.664 26.6121 54.8031 26.8261C54.9422 27.0347 55.0197 27.2781 55.0358 27.5563V28.7037C55.0197 28.9765 54.9422 29.2199 54.8031 29.4339C54.6694 29.6478 54.4875 29.8163 54.2575 29.9394C54.0328 30.057 53.7734 30.1159 53.4791 30.1159ZM53.5995 29.4339C53.9579 29.4339 54.2468 29.3135 54.4661 29.0728C54.6854 28.8267 54.7951 28.5138 54.7951 28.134C54.7951 27.8719 54.7442 27.6445 54.6426 27.452C54.5463 27.254 54.4072 27.1016 54.2254 26.9946C54.0435 26.8823 53.8322 26.8261 53.5915 26.8261C53.3508 26.8261 53.1368 26.8823 52.9496 26.9946C52.7677 27.1069 52.6233 27.2621 52.5163 27.46C52.4146 27.6526 52.3638 27.8745 52.3638 28.126C52.3638 28.3827 52.4146 28.6101 52.5163 28.808C52.6233 29.0006 52.7704 29.153 52.9576 29.2654C53.1448 29.3777 53.3588 29.4339 53.5995 29.4339ZM54.7469 30.0356V29.0086L54.8833 28.0778L54.7469 27.1551V26.2243H55.4771V30.0356H54.7469ZM57.7802 30.0677L56.1273 26.2243H56.9297L58.1573 29.2333H57.9006L59.1924 26.2243H59.9948L58.2135 30.0677H57.7802ZM56.6889 31.6324L57.8123 29.3295L58.2135 30.0677L57.4913 31.6324H56.6889ZM61.7207 30.1159C61.5067 30.1159 61.3034 30.0891 61.1109 30.0356C60.9236 29.9768 60.7498 29.8966 60.5893 29.7949C60.4288 29.6879 60.2897 29.5622 60.1721 29.4178L60.6374 28.9524C60.7765 29.1236 60.937 29.252 61.1189 29.3376C61.3008 29.4178 61.504 29.4579 61.7287 29.4579C61.9534 29.4579 62.1272 29.4205 62.2502 29.3456C62.3733 29.2654 62.4348 29.1557 62.4348 29.0166C62.4348 28.8775 62.384 28.7705 62.2823 28.6957C62.1861 28.6154 62.0603 28.5512 61.9052 28.5031C61.7501 28.4496 61.5843 28.3988 61.4077 28.3506C61.2366 28.2971 61.0734 28.2303 60.9183 28.15C60.7632 28.0698 60.6348 27.9601 60.5331 27.8211C60.4368 27.682 60.3887 27.4974 60.3887 27.2674C60.3887 27.0374 60.4449 26.8395 60.5572 26.6736C60.6695 26.5025 60.8247 26.3714 61.0226 26.2805C61.2259 26.1895 61.4693 26.1441 61.7528 26.1441C62.0523 26.1441 62.3171 26.1976 62.5471 26.3045C62.7825 26.4062 62.9751 26.5613 63.1248 26.7699L62.6595 27.2353C62.5525 27.0962 62.4187 26.9892 62.2583 26.9144C62.1031 26.8395 61.9266 26.802 61.7287 26.802C61.5201 26.802 61.3596 26.8395 61.2473 26.9144C61.1403 26.9839 61.0868 27.0829 61.0868 27.2112C61.0868 27.3396 61.1349 27.4386 61.2312 27.5081C61.3275 27.5777 61.4532 27.6365 61.6083 27.6846C61.7688 27.7328 61.9346 27.7836 62.1058 27.8371C62.277 27.8852 62.4401 27.9521 62.5953 28.0377C62.7504 28.1233 62.8761 28.2383 62.9724 28.3827C63.074 28.5272 63.1248 28.7171 63.1248 28.9524C63.1248 29.3108 62.9965 29.5943 62.7397 29.803C62.4883 30.0116 62.1486 30.1159 61.7207 30.1159ZM67.2232 30.1159C66.8755 30.1159 66.5599 30.0303 66.2764 29.8591C65.9928 29.6826 65.7682 29.4446 65.6023 29.145C65.4419 28.8454 65.3616 28.5084 65.3616 28.134C65.3616 27.7595 65.4419 27.4225 65.6023 27.123C65.7682 26.8234 65.9902 26.5854 66.2683 26.4089C66.5518 26.2323 66.8701 26.1441 67.2232 26.1441C67.512 26.1441 67.7688 26.2056 67.9935 26.3286C68.2235 26.4463 68.408 26.6121 68.5471 26.8261C68.6862 27.0347 68.7638 27.2781 68.7798 27.5563V28.7037C68.7638 28.9765 68.6862 29.2199 68.5471 29.4339C68.4134 29.6478 68.2315 29.8163 68.0015 29.9394C67.7768 30.057 67.5174 30.1159 67.2232 30.1159ZM67.3435 29.4339C67.7019 29.4339 67.9908 29.3135 68.2101 29.0728C68.4294 28.8267 68.5391 28.5138 68.5391 28.134C68.5391 27.8719 68.4883 27.6445 68.3866 27.452C68.2903 27.254 68.1513 27.1016 67.9694 26.9946C67.7875 26.8823 67.5762 26.8261 67.3355 26.8261C67.0948 26.8261 66.8808 26.8823 66.6936 26.9946C66.5117 27.1069 66.3673 27.2621 66.2603 27.46C66.1587 27.6526 66.1079 27.8745 66.1079 28.126C66.1079 28.3827 66.1587 28.6101 66.2603 28.808C66.3673 29.0006 66.5144 29.153 66.7016 29.2654C66.8888 29.3777 67.1028 29.4339 67.3435 29.4339ZM68.4909 30.0356V29.0086L68.6274 28.0778L68.4909 27.1551V26.2243H69.2211V30.0356H68.4909ZM71.4841 30.1159C71.2701 30.1159 71.0669 30.0891 70.8743 30.0356C70.6871 29.9768 70.5132 29.8966 70.3527 29.7949C70.1923 29.6879 70.0532 29.5622 69.9355 29.4178L70.4009 28.9524C70.54 29.1236 70.7004 29.252 70.8823 29.3376C71.0642 29.4178 71.2675 29.4579 71.4921 29.4579C71.7168 29.4579 71.8906 29.4205 72.0137 29.3456C72.1367 29.2654 72.1982 29.1557 72.1982 29.0166C72.1982 28.8775 72.1474 28.7705 72.0458 28.6957C71.9495 28.6154 71.8238 28.5512 71.6687 28.5031C71.5135 28.4496 71.3477 28.3988 71.1712 28.3506C71 28.2971 70.8368 28.2303 70.6817 28.15C70.5266 28.0698 70.3982 27.9601 70.2966 27.8211C70.2003 27.682 70.1521 27.4974 70.1521 27.2674C70.1521 27.0374 70.2083 26.8395 70.3206 26.6736C70.433 26.5025 70.5881 26.3714 70.786 26.2805C70.9893 26.1895 71.2327 26.1441 71.5162 26.1441C71.8158 26.1441 72.0805 26.1976 72.3106 26.3045C72.5459 26.4062 72.7385 26.5613 72.8883 26.7699L72.4229 27.2353C72.3159 27.0962 72.1822 26.9892 72.0217 26.9144C71.8666 26.8395 71.6901 26.802 71.4921 26.802C71.2835 26.802 71.123 26.8395 71.0107 26.9144C70.9037 26.9839 70.8502 27.0829 70.8502 27.2112C70.8502 27.3396 70.8984 27.4386 70.9946 27.5081C71.0909 27.5777 71.2166 27.6365 71.3718 27.6846C71.5322 27.7328 71.6981 27.7836 71.8693 27.8371C72.0404 27.8852 72.2036 27.9521 72.3587 28.0377C72.5138 28.1233 72.6395 28.2383 72.7358 28.3827C72.8375 28.5272 72.8883 28.7171 72.8883 28.9524C72.8883 29.3108 72.7599 29.5943 72.5031 29.803C72.2517 30.0116 71.912 30.1159 71.4841 30.1159ZM75.9515 30.0356V24.6275H76.6737V30.0356H75.9515ZM75.0127 26.8823V26.2243H77.6125V26.8823H75.0127ZM81.0159 30.0356V27.813C81.0159 27.5242 80.925 27.2861 80.7431 27.0989C80.5612 26.9117 80.3259 26.8181 80.037 26.8181C79.8444 26.8181 79.6732 26.8609 79.5235 26.9465C79.3737 27.032 79.256 27.1497 79.1704 27.2995C79.0848 27.4493 79.042 27.6205 79.042 27.813L78.7452 27.6445C78.7452 27.3557 78.8093 27.0989 78.9377 26.8742C79.0661 26.6496 79.2453 26.473 79.4753 26.3447C79.7053 26.2109 79.9648 26.1441 80.2536 26.1441C80.5425 26.1441 80.7966 26.2083 81.0159 26.3366C81.2406 26.465 81.4171 26.6442 81.5455 26.8742C81.6739 27.1043 81.7381 27.369 81.7381 27.6686V30.0356H81.0159ZM78.3199 30.0356V24.3066H79.042V30.0356H78.3199ZM84.481 30.1159C84.1012 30.1159 83.7589 30.0303 83.454 29.8591C83.1491 29.6826 82.9084 29.4446 82.7318 29.145C82.5553 28.8454 82.467 28.5058 82.467 28.126C82.467 27.7515 82.5526 27.4145 82.7238 27.115C82.9003 26.8154 83.1357 26.58 83.4299 26.4089C83.7295 26.2323 84.0638 26.1441 84.4329 26.1441C84.7859 26.1441 85.0962 26.2243 85.3637 26.3848C85.6365 26.5453 85.8478 26.7673 85.9975 27.0508C86.1527 27.3343 86.2302 27.6552 86.2302 28.0136C86.2302 28.0671 86.2276 28.126 86.2222 28.1902C86.2169 28.249 86.2062 28.3185 86.1901 28.3988H82.9725V27.797H85.805L85.5402 28.0297C85.5402 27.7729 85.4947 27.5563 85.4038 27.3797C85.3128 27.1979 85.1845 27.0588 85.0186 26.9625C84.8528 26.8609 84.6522 26.81 84.4168 26.81C84.1708 26.81 83.9541 26.8635 83.7669 26.9705C83.5797 27.0775 83.4353 27.2273 83.3336 27.4199C83.232 27.6124 83.1812 27.8398 83.1812 28.1019C83.1812 28.3694 83.2347 28.6047 83.3416 28.808C83.4486 29.0059 83.6011 29.161 83.799 29.2734C83.9969 29.3804 84.2243 29.4339 84.481 29.4339C84.695 29.4339 84.8903 29.3964 85.0668 29.3215C85.2487 29.2466 85.4038 29.1343 85.5322 28.9845L85.9975 29.4579C85.8157 29.6719 85.591 29.835 85.3235 29.9474C85.0614 30.0597 84.7806 30.1159 84.481 30.1159ZM91.3346 30.1159C90.9441 30.1159 90.5776 30.0437 90.2353 29.8992C89.8983 29.7495 89.6014 29.5435 89.3446 29.2814C89.0932 29.0193 88.8953 28.7144 88.7509 28.3667C88.6064 28.019 88.5342 27.6445 88.5342 27.2433C88.5342 26.8421 88.6064 26.4704 88.7509 26.128C88.8953 25.7803 89.0959 25.4754 89.3527 25.2133C89.6094 24.9512 89.909 24.7479 90.2513 24.6035C90.599 24.459 90.9762 24.3868 91.3827 24.3868C91.8267 24.3868 92.2359 24.4724 92.6104 24.6436C92.9848 24.8148 93.2977 25.0608 93.5492 25.3818L93.0276 25.9033C92.8511 25.6466 92.6184 25.4513 92.3295 25.3176C92.0407 25.1785 91.7251 25.109 91.3827 25.109C90.9762 25.109 90.6151 25.1999 90.2995 25.3818C89.9892 25.5637 89.7458 25.8151 89.5693 26.136C89.3981 26.457 89.3125 26.8261 89.3125 27.2433C89.3125 27.6659 89.4008 28.0377 89.5773 28.3587C89.7539 28.6796 89.9919 28.931 90.2915 29.1129C90.591 29.2948 90.9334 29.3857 91.3185 29.3857C91.709 29.3857 92.046 29.3108 92.3295 29.161C92.6184 29.0113 92.8404 28.7919 92.9955 28.5031C93.1506 28.2089 93.2282 27.8505 93.2282 27.4279L93.6856 27.7569H91.2784V27.0668H94.0065V27.1791C94.0065 27.8264 93.8915 28.3694 93.6615 28.808C93.4368 29.2413 93.1212 29.5676 92.7147 29.7869C92.3135 30.0062 91.8534 30.1159 91.3346 30.1159ZM94.8926 30.0356V26.2243H95.6148V30.0356H94.8926ZM95.6148 27.8612L95.342 27.7408C95.342 27.254 95.4543 26.8662 95.679 26.5774C95.9037 26.2885 96.2273 26.1441 96.6499 26.1441C96.8424 26.1441 97.0163 26.1788 97.1714 26.2484C97.3266 26.3126 97.471 26.4222 97.6047 26.5774L97.1313 27.0668C97.0511 26.9812 96.9628 26.9197 96.8665 26.8823C96.7702 26.8448 96.6579 26.8261 96.5295 26.8261C96.2621 26.8261 96.0427 26.9117 95.8716 27.0829C95.7004 27.254 95.6148 27.5135 95.6148 27.8612ZM99.729 30.1159C99.3545 30.1159 99.0175 30.0276 98.718 29.8511C98.4184 29.6746 98.1804 29.4365 98.0038 29.137C97.8273 28.8321 97.7391 28.4924 97.7391 28.1179C97.7391 27.7488 97.8273 27.4172 98.0038 27.123C98.1804 26.8234 98.4184 26.5854 98.718 26.4089C99.0175 26.2323 99.3545 26.1441 99.729 26.1441C100.098 26.1441 100.432 26.2323 100.732 26.4089C101.037 26.58 101.278 26.8154 101.454 27.115C101.631 27.4145 101.719 27.7488 101.719 28.1179C101.719 28.4924 101.631 28.8321 101.454 29.137C101.278 29.4365 101.037 29.6746 100.732 29.8511C100.432 30.0276 100.098 30.1159 99.729 30.1159ZM99.729 29.4178C99.9697 29.4178 100.184 29.3616 100.371 29.2493C100.558 29.137 100.705 28.9845 100.812 28.7919C100.919 28.594 100.973 28.3694 100.973 28.1179C100.973 27.8719 100.917 27.6526 100.804 27.46C100.697 27.2674 100.55 27.1176 100.363 27.0106C100.181 26.8983 99.9697 26.8421 99.729 26.8421C99.4883 26.8421 99.2743 26.8983 99.0871 27.0106C98.8998 27.1176 98.7527 27.2674 98.6458 27.46C98.5388 27.6526 98.4853 27.8719 98.4853 28.1179C98.4853 28.3694 98.5388 28.594 98.6458 28.7919C98.7527 28.9845 98.8998 29.137 99.0871 29.2493C99.2743 29.3616 99.4883 29.4178 99.729 29.4178ZM104.065 30.1159C103.755 30.1159 103.474 30.0463 103.223 29.9073C102.977 29.7628 102.784 29.5649 102.645 29.3135C102.506 29.0621 102.436 28.7705 102.436 28.4389V26.2243H103.158V28.4068C103.158 28.6154 103.193 28.7973 103.263 28.9524C103.338 29.1022 103.445 29.2172 103.584 29.2974C103.723 29.3777 103.886 29.4178 104.073 29.4178C104.357 29.4178 104.579 29.3295 104.739 29.153C104.9 28.9711 104.98 28.7224 104.98 28.4068V26.2243H105.702V28.4389C105.702 28.7705 105.632 29.0621 105.493 29.3135C105.354 29.5649 105.162 29.7628 104.916 29.9073C104.675 30.0463 104.391 30.1159 104.065 30.1159ZM108.676 30.1159C108.387 30.1159 108.125 30.057 107.89 29.9394C107.66 29.8163 107.475 29.6478 107.336 29.4339C107.197 29.2199 107.119 28.9765 107.103 28.7037V27.5563C107.119 27.2781 107.197 27.0347 107.336 26.8261C107.48 26.6121 107.668 26.4463 107.898 26.3286C108.133 26.2056 108.392 26.1441 108.676 26.1441C109.024 26.1441 109.336 26.2323 109.615 26.4089C109.898 26.5854 110.12 26.8234 110.281 27.123C110.441 27.4225 110.521 27.7595 110.521 28.134C110.521 28.5084 110.441 28.8454 110.281 29.145C110.12 29.4446 109.898 29.6826 109.615 29.8591C109.336 30.0303 109.024 30.1159 108.676 30.1159ZM108.556 29.4339C108.796 29.4339 109.008 29.3777 109.189 29.2654C109.371 29.153 109.516 29.0006 109.623 28.808C109.73 28.6101 109.783 28.3827 109.783 28.126C109.783 27.8745 109.73 27.6499 109.623 27.452C109.516 27.254 109.371 27.1016 109.189 26.9946C109.008 26.8823 108.799 26.8261 108.564 26.8261C108.323 26.8261 108.112 26.8823 107.93 26.9946C107.748 27.1016 107.606 27.254 107.504 27.452C107.403 27.6499 107.352 27.8772 107.352 28.134C107.352 28.3854 107.4 28.6101 107.496 28.808C107.598 29.0006 107.74 29.153 107.922 29.2654C108.109 29.3777 108.32 29.4339 108.556 29.4339ZM106.67 31.6324V26.2243H107.392V27.2273L107.256 28.15L107.392 29.0808V31.6324H106.67ZM112.501 30.0356L114.78 24.4671H115.325L117.596 30.0356H116.778L114.908 25.3256H115.189L113.303 30.0356H112.501ZM113.584 28.7759V28.1179H116.513V28.7759H113.584ZM119.739 30.1159C119.386 30.1159 119.07 30.0303 118.792 29.8591C118.514 29.6826 118.292 29.4446 118.126 29.145C117.965 28.8454 117.885 28.5084 117.885 28.134C117.885 27.7595 117.965 27.4225 118.126 27.123C118.292 26.8234 118.514 26.5854 118.792 26.4089C119.07 26.2323 119.386 26.1441 119.739 26.1441C120.022 26.1441 120.279 26.2056 120.509 26.3286C120.739 26.4463 120.924 26.6121 121.063 26.8261C121.207 27.0347 121.287 27.2781 121.303 27.5563V28.7037C121.287 28.9765 121.21 29.2199 121.071 29.4339C120.932 29.6478 120.747 29.8163 120.517 29.9394C120.287 30.057 120.028 30.1159 119.739 30.1159ZM119.859 29.4339C120.1 29.4339 120.308 29.3777 120.485 29.2654C120.667 29.153 120.809 29.0006 120.91 28.808C121.012 28.6101 121.063 28.3854 121.063 28.134C121.063 27.8719 121.009 27.6445 120.902 27.452C120.8 27.2594 120.659 27.1069 120.477 26.9946C120.3 26.8823 120.092 26.8261 119.851 26.8261C119.61 26.8261 119.399 26.8823 119.217 26.9946C119.035 27.1069 118.891 27.2621 118.784 27.46C118.682 27.6526 118.631 27.8745 118.631 28.126C118.631 28.3827 118.682 28.6101 118.784 28.808C118.891 29.0006 119.035 29.153 119.217 29.2654C119.404 29.3777 119.618 29.4339 119.859 29.4339ZM121.745 30.0356H121.014V29.0086L121.151 28.0778L121.014 27.1551V24.3066H121.745V30.0356ZM122.796 30.0356V26.2243H123.518V30.0356H122.796ZM125.372 30.0356V27.7328C125.372 27.4493 125.283 27.2273 125.107 27.0668C124.936 26.901 124.719 26.8181 124.457 26.8181C124.28 26.8181 124.123 26.8555 123.984 26.9304C123.844 27.0053 123.732 27.1096 123.647 27.2433C123.561 27.3771 123.518 27.5375 123.518 27.7248L123.221 27.5803C123.221 27.2915 123.283 27.0401 123.406 26.8261C123.534 26.6121 123.708 26.4463 123.927 26.3286C124.147 26.2056 124.393 26.1441 124.666 26.1441C124.933 26.1441 125.174 26.2029 125.388 26.3206C125.607 26.4383 125.778 26.6041 125.901 26.8181C126.03 27.032 126.094 27.2861 126.094 27.5803V30.0356H125.372ZM127.947 30.0356V27.7328C127.947 27.4493 127.859 27.2273 127.683 27.0668C127.511 26.901 127.297 26.8181 127.041 26.8181C126.864 26.8181 126.704 26.8555 126.559 26.9304C126.42 27.0053 126.308 27.1096 126.222 27.2433C126.137 27.3771 126.094 27.5375 126.094 27.7248L125.685 27.5803C125.701 27.2861 125.778 27.0347 125.917 26.8261C126.062 26.6121 126.246 26.4463 126.471 26.3286C126.696 26.2056 126.942 26.1441 127.209 26.1441C127.487 26.1441 127.736 26.2029 127.955 26.3206C128.175 26.4383 128.349 26.6041 128.477 26.8181C128.611 27.032 128.678 27.2888 128.678 27.5884V30.0356H127.947ZM129.668 30.0356V26.2243H130.39V30.0356H129.668ZM130.029 25.462C129.896 25.462 129.786 25.4192 129.7 25.3337C129.615 25.2427 129.572 25.1304 129.572 24.9966C129.572 24.8683 129.615 24.7613 129.7 24.6757C129.786 24.5848 129.896 24.5393 130.029 24.5393C130.163 24.5393 130.273 24.5848 130.358 24.6757C130.444 24.7613 130.487 24.8683 130.487 24.9966C130.487 25.1304 130.444 25.2427 130.358 25.3337C130.273 25.4192 130.163 25.462 130.029 25.462ZM134.151 30.0356V27.813C134.151 27.5242 134.06 27.2861 133.878 27.0989C133.696 26.9117 133.461 26.8181 133.172 26.8181C132.979 26.8181 132.808 26.8609 132.658 26.9465C132.508 27.032 132.391 27.1497 132.305 27.2995C132.22 27.4493 132.177 27.6205 132.177 27.813L131.88 27.6445C131.88 27.3557 131.944 27.0989 132.072 26.8742C132.201 26.6496 132.38 26.473 132.61 26.3447C132.84 26.2109 133.099 26.1441 133.388 26.1441C133.677 26.1441 133.931 26.2163 134.151 26.3607C134.375 26.5051 134.552 26.695 134.68 26.9304C134.809 27.1604 134.873 27.4065 134.873 27.6686V30.0356H134.151ZM131.455 30.0356V26.2243H132.177V30.0356H131.455Z" fill="white"/>
<rect x="14.2927" y="134.149" width="134.4" height="19.5582" rx="3.76119" fill="white"/>
<rect x="14.2927" y="134.149" width="134.4" height="19.5582" rx="3.76119" stroke="#5C70AF" stroke-width="0.501493"/>
<rect x="56.4717" y="137.408" width="50.0418" height="13.0388" rx="2.00597" fill="#724DE4" fill-opacity="0.1"/>
<path d="M61.2284 142.878C61.2762 142.878 61.3222 142.859 61.356 142.825C61.3899 142.791 61.4089 142.746 61.4089 142.698C61.4089 142.65 61.3899 142.604 61.356 142.57C61.3222 142.536 61.2762 142.517 61.2284 142.517H60.5477C60.4998 142.517 60.4539 142.536 60.4201 142.57C60.3862 142.604 60.3672 142.65 60.3672 142.698V146.661C60.3672 146.708 60.3862 146.754 60.4201 146.788C60.4539 146.822 60.4998 146.841 60.5477 146.841H64.5107C64.5586 146.841 64.6045 146.822 64.6384 146.788C64.6722 146.754 64.6912 146.708 64.6912 146.661V145.981C64.6912 145.933 64.6722 145.887 64.6384 145.853C64.6045 145.819 64.5586 145.8 64.5107 145.8C64.4628 145.8 64.4169 145.819 64.383 145.853C64.3492 145.887 64.3302 145.933 64.3302 145.981V146.48H60.7284V142.878H61.2284Z" fill="#734792"/>
<path d="M65.964 141.065H62.0008C61.953 141.065 61.907 141.084 61.8732 141.118C61.8393 141.152 61.8203 141.198 61.8203 141.246V145.209C61.8203 145.257 61.8393 145.303 61.8732 145.337C61.907 145.37 61.953 145.389 62.0008 145.389H65.9638C66.0117 145.389 66.0576 145.37 66.0915 145.337C66.1253 145.303 66.1444 145.257 66.1444 145.209V141.246C66.1444 141.222 66.1398 141.199 66.1307 141.177C66.1217 141.155 66.1084 141.135 66.0917 141.118C66.0749 141.101 66.055 141.088 66.0331 141.079C66.0112 141.07 65.9877 141.065 65.964 141.065ZM65.7835 145.028H62.1814V141.427H65.7833V145.028H65.7835Z" fill="#734792"/>
<path d="M69.4406 143.839V143.237H70.4937C70.6382 143.237 70.7645 143.209 70.8729 143.153C70.9852 143.093 71.0734 143.011 71.1376 142.906C71.2018 142.798 71.2339 142.672 71.2339 142.527C71.2339 142.383 71.2018 142.258 71.1376 142.154C71.0734 142.046 70.9852 141.963 70.8729 141.907C70.7645 141.847 70.6382 141.817 70.4937 141.817H69.4406V141.215H70.5298C70.7946 141.215 71.0313 141.269 71.2399 141.378C71.4526 141.486 71.6191 141.638 71.7394 141.835C71.8638 142.032 71.926 142.262 71.926 142.527C71.926 142.792 71.8638 143.023 71.7394 143.219C71.6191 143.416 71.4526 143.568 71.2399 143.677C71.0313 143.785 70.7946 143.839 70.5298 143.839H69.4406ZM68.9652 145.428V141.215H69.6572V145.428H68.9652ZM73.5695 145.488C73.3087 145.488 73.072 145.422 72.8594 145.289C72.6508 145.157 72.4843 144.978 72.3599 144.754C72.2395 144.525 72.1793 144.27 72.1793 143.989C72.1793 143.705 72.2395 143.45 72.3599 143.225C72.4843 142.996 72.6508 142.816 72.8594 142.684C73.072 142.547 73.3087 142.479 73.5695 142.479C73.7901 142.479 73.9847 142.527 74.1532 142.623C74.3257 142.716 74.4621 142.844 74.5624 143.009C74.6627 143.173 74.7129 143.36 74.7129 143.568V144.399C74.7129 144.607 74.6627 144.794 74.5624 144.958C74.4662 145.123 74.3318 145.253 74.1592 145.35C73.9867 145.442 73.7901 145.488 73.5695 145.488ZM73.6778 144.862C73.9225 144.862 74.1191 144.78 74.2676 144.615C74.42 144.451 74.4962 144.24 74.4962 143.983C74.4962 143.811 74.4621 143.658 74.3939 143.526C74.3257 143.394 74.2295 143.291 74.1051 143.219C73.9847 143.143 73.8423 143.105 73.6778 143.105C73.5173 143.105 73.3749 143.143 73.2505 143.219C73.1302 143.291 73.0339 143.394 72.9617 143.526C72.8935 143.658 72.8594 143.811 72.8594 143.983C72.8594 144.156 72.8935 144.308 72.9617 144.441C73.0339 144.573 73.1302 144.678 73.2505 144.754C73.3749 144.826 73.5173 144.862 73.6778 144.862ZM74.4541 145.428V144.651L74.5685 143.947L74.4541 143.249V142.539H75.1161V145.428H74.4541ZM76.7835 145.458L75.5498 142.539H76.278L77.1205 144.682H76.9099L77.8005 142.539H78.5347L77.1927 145.458H76.7835ZM75.923 146.631L76.8196 144.784L77.1927 145.458L76.6571 146.631H75.923ZM80.6095 145.428V141.336H81.2715V145.428H80.6095ZM79.9175 143.141V142.539H81.9636V143.141H79.9175ZM83.6863 145.488C83.4054 145.488 83.1507 145.422 82.922 145.289C82.6933 145.153 82.5108 144.97 82.3743 144.742C82.242 144.513 82.1758 144.258 82.1758 143.977C82.1758 143.697 82.242 143.444 82.3743 143.219C82.5108 142.994 82.6933 142.816 82.922 142.684C83.1507 142.547 83.4054 142.479 83.6863 142.479C83.9711 142.479 84.2279 142.545 84.4565 142.678C84.6852 142.81 84.8658 142.99 84.9982 143.219C85.1346 143.444 85.2028 143.697 85.2028 143.977C85.2028 144.258 85.1346 144.513 84.9982 144.742C84.8658 144.97 84.6852 145.153 84.4565 145.289C84.2279 145.422 83.9711 145.488 83.6863 145.488ZM83.6863 144.85C83.8507 144.85 83.9952 144.814 84.1195 144.742C84.2479 144.665 84.3462 144.561 84.4144 144.429C84.4866 144.296 84.5227 144.146 84.5227 143.977C84.5227 143.809 84.4866 143.66 84.4144 143.532C84.3422 143.404 84.2439 143.303 84.1195 143.231C83.9952 143.155 83.8507 143.117 83.6863 143.117C83.5258 143.117 83.3813 143.155 83.253 143.231C83.1286 143.303 83.0303 143.404 82.9581 143.532C82.8899 143.66 82.8558 143.809 82.8558 143.977C82.8558 144.146 82.8899 144.296 82.9581 144.429C83.0303 144.561 83.1286 144.665 83.253 144.742C83.3813 144.814 83.5258 144.85 83.6863 144.85ZM88.1315 145.428L86.7474 141.215H87.4274L88.4685 144.459H88.288L89.305 141.215H89.7864L90.8035 144.459H90.6229L91.664 141.215H92.344L90.9599 145.428H90.4785L89.4555 142.19H89.636L88.6129 145.428H88.1315ZM93.6566 145.488C93.3958 145.488 93.1591 145.422 92.9465 145.289C92.7379 145.157 92.5714 144.978 92.447 144.754C92.3267 144.525 92.2665 144.27 92.2665 143.989C92.2665 143.705 92.3267 143.45 92.447 143.225C92.5714 142.996 92.7379 142.816 92.9465 142.684C93.1591 142.547 93.3958 142.479 93.6566 142.479C93.8773 142.479 94.0718 142.527 94.2403 142.623C94.4129 142.716 94.5493 142.844 94.6496 143.009C94.7499 143.173 94.8 143.36 94.8 143.568V144.399C94.8 144.607 94.7499 144.794 94.6496 144.958C94.5533 145.123 94.4189 145.253 94.2464 145.35C94.0739 145.442 93.8773 145.488 93.6566 145.488ZM93.7649 144.862C94.0097 144.862 94.2062 144.78 94.3547 144.615C94.5071 144.451 94.5834 144.24 94.5834 143.983C94.5834 143.811 94.5493 143.658 94.4811 143.526C94.4129 143.394 94.3166 143.291 94.1922 143.219C94.0718 143.143 93.9294 143.105 93.7649 143.105C93.6045 143.105 93.462 143.143 93.3377 143.219C93.2173 143.291 93.121 143.394 93.0488 143.526C92.9806 143.658 92.9465 143.811 92.9465 143.983C92.9465 144.156 92.9806 144.308 93.0488 144.441C93.121 144.573 93.2173 144.678 93.3377 144.754C93.462 144.826 93.6045 144.862 93.7649 144.862ZM94.5412 145.428V144.651L94.6556 143.947L94.5412 143.249V142.539H95.2032V145.428H94.5412ZM95.9379 145.428V141.095H96.5998V145.428H95.9379ZM97.3366 145.428V141.095H97.9985V145.428H97.3366ZM100.077 145.488C99.7884 145.488 99.5276 145.424 99.2949 145.295C99.0662 145.163 98.8837 144.982 98.7473 144.754C98.6149 144.525 98.5487 144.268 98.5487 143.983C98.5487 143.699 98.6149 143.444 98.7473 143.219C98.8797 142.99 99.0582 142.81 99.2829 142.678C99.5116 142.545 99.7643 142.479 100.041 142.479C100.31 142.479 100.547 142.541 100.751 142.666C100.96 142.79 101.122 142.96 101.239 143.177C101.359 143.394 101.419 143.64 101.419 143.917C101.419 143.965 101.415 144.016 101.407 144.068C101.403 144.116 101.395 144.17 101.383 144.23H99.0121V143.689H101.04L100.793 143.905C100.785 143.729 100.751 143.58 100.691 143.46C100.631 143.34 100.545 143.247 100.432 143.183C100.324 143.119 100.19 143.087 100.029 143.087C99.8606 143.087 99.7142 143.123 99.5898 143.195C99.4654 143.267 99.3691 143.37 99.3009 143.502C99.2327 143.63 99.1986 143.785 99.1986 143.965C99.1986 144.146 99.2347 144.304 99.307 144.441C99.3792 144.577 99.4815 144.684 99.6139 144.76C99.7463 144.832 99.8987 144.868 100.071 144.868C100.22 144.868 100.356 144.842 100.48 144.79C100.609 144.738 100.717 144.661 100.805 144.561L101.227 144.988C101.086 145.153 100.916 145.277 100.715 145.362C100.515 145.446 100.302 145.488 100.077 145.488ZM102.313 145.428V141.336H102.975V145.428H102.313ZM101.621 143.141V142.539H103.667V143.141H101.621Z" fill="#00AF54"/>
<path d="M110 72.5005C110 88.2406 97.2401 101 81.5 101C65.7599 101 53 88.2406 53 72.5005C53 56.7604 65.7599 44.0005 81.5 44.0005C97.2401 44.0005 110 56.7604 110 72.5005ZM57.8417 72.5005C57.8417 85.5666 68.4339 96.1588 81.5 96.1588C94.5661 96.1588 105.158 85.5666 105.158 72.5005C105.158 59.4344 94.5661 48.8422 81.5 48.8422C68.4339 48.8422 57.8417 59.4344 57.8417 72.5005Z" fill="white"/>
<rect x="56.2507" y="106.065" width="56.5104" height="16.5104" rx="2.25672" stroke="white" stroke-width="0.501493"/>
<path d="M60.1753 116.82L58.2235 111.947H58.9396L60.5474 116.069H60.2877L61.9095 111.947H62.6186L60.6527 116.82H60.1753ZM63.31 116.82V113.485H63.9419V116.82H63.31ZM63.6259 112.818C63.5089 112.818 63.413 112.78 63.3381 112.706C63.2632 112.626 63.2257 112.528 63.2257 112.411C63.2257 112.298 63.2632 112.205 63.3381 112.13C63.413 112.05 63.5089 112.011 63.6259 112.011C63.7429 112.011 63.8389 112.05 63.9138 112.13C63.9887 112.205 64.0261 112.298 64.0261 112.411C64.0261 112.528 63.9887 112.626 63.9138 112.706C63.8389 112.78 63.7429 112.818 63.6259 112.818ZM66.4177 116.89C66.0853 116.89 65.7858 116.815 65.519 116.665C65.2522 116.511 65.0416 116.303 64.8871 116.041C64.7326 115.778 64.6554 115.481 64.6554 115.149C64.6554 114.821 64.7303 114.526 64.8801 114.264C65.0345 114.002 65.2405 113.796 65.4979 113.646C65.76 113.492 66.0526 113.415 66.3755 113.415C66.6845 113.415 66.9559 113.485 67.19 113.625C67.4287 113.766 67.6136 113.96 67.7446 114.208C67.8803 114.456 67.9482 114.737 67.9482 115.051C67.9482 115.097 67.9459 115.149 67.9412 115.205C67.9365 115.257 67.9272 115.317 67.9131 115.388H65.0977V114.861H67.5761L67.3444 115.065C67.3444 114.84 67.3046 114.65 67.2251 114.496C67.1455 114.337 67.0332 114.215 66.8881 114.131C66.743 114.042 66.5674 113.997 66.3615 113.997C66.1462 113.997 65.9566 114.044 65.7928 114.138C65.629 114.231 65.5026 114.363 65.4137 114.531C65.3247 114.7 65.2803 114.898 65.2803 115.128C65.2803 115.362 65.3271 115.568 65.4207 115.746C65.5143 115.919 65.6477 116.055 65.8209 116.153C65.9941 116.246 66.193 116.293 66.4177 116.293C66.6049 116.293 66.7757 116.26 66.9302 116.195C67.0893 116.129 67.2251 116.031 67.3374 115.9L67.7446 116.314C67.5855 116.502 67.3889 116.644 67.1549 116.743C66.9255 116.841 66.6798 116.89 66.4177 116.89ZM69.5509 116.82L68.231 113.485H68.8909L69.8458 116.083H69.6351L70.583 113.485H70.9481L71.8959 116.083H71.6853L72.6401 113.485H73.3001L71.9871 116.82H71.615L70.6532 114.299H70.8849L69.916 116.82H69.5509ZM75.8768 116.82V116.244H77.3512C77.632 116.244 77.852 116.162 78.0111 115.998C78.1703 115.83 78.2498 115.629 78.2498 115.395C78.2498 115.235 78.2147 115.093 78.1445 114.966C78.0743 114.835 77.9713 114.732 77.8356 114.657C77.7046 114.582 77.5501 114.545 77.3722 114.545H75.8768V113.969H77.2739C77.508 113.969 77.6929 113.908 77.8286 113.787C77.969 113.66 78.0392 113.48 78.0392 113.246C78.0392 113.012 77.9667 112.834 77.8216 112.713C77.6765 112.586 77.4846 112.523 77.2459 112.523H75.8768V111.947H77.2599C77.5782 111.947 77.8426 112.006 78.0533 112.123C78.2686 112.235 78.43 112.385 78.5377 112.572C78.65 112.759 78.7062 112.965 78.7062 113.19C78.7062 113.452 78.6337 113.681 78.4886 113.878C78.3481 114.075 78.1398 114.229 77.8637 114.341L77.9199 114.131C78.2335 114.243 78.4769 114.414 78.65 114.643C78.8279 114.868 78.9168 115.135 78.9168 115.444C78.9168 115.701 78.8536 115.933 78.7273 116.139C78.6009 116.345 78.4183 116.511 78.1796 116.637C77.9456 116.759 77.6577 116.82 77.3161 116.82H75.8768ZM75.4345 116.82V111.947H76.0944V116.82H75.4345ZM79.6965 116.82V113.485H80.3284V116.82H79.6965ZM80.3284 114.917L80.0896 114.812C80.0896 114.386 80.1879 114.047 80.3845 113.794C80.5811 113.541 80.8643 113.415 81.2341 113.415C81.4026 113.415 81.5547 113.445 81.6904 113.506C81.8261 113.562 81.9525 113.658 82.0695 113.794L81.6553 114.222C81.5851 114.147 81.5079 114.093 81.4236 114.061C81.3394 114.028 81.2411 114.011 81.1287 114.011C80.8947 114.011 80.7028 114.086 80.553 114.236C80.4032 114.386 80.3284 114.613 80.3284 114.917ZM83.9493 116.89C83.617 116.89 83.3175 116.815 83.0507 116.665C82.7839 116.511 82.5732 116.303 82.4188 116.041C82.2643 115.778 82.1871 115.481 82.1871 115.149C82.1871 114.821 82.262 114.526 82.4118 114.264C82.5662 114.002 82.7722 113.796 83.0296 113.646C83.2917 113.492 83.5842 113.415 83.9072 113.415C84.2161 113.415 84.4876 113.485 84.7216 113.625C84.9603 113.766 85.1452 113.96 85.2763 114.208C85.412 114.456 85.4799 114.737 85.4799 115.051C85.4799 115.097 85.4775 115.149 85.4729 115.205C85.4682 115.257 85.4588 115.317 85.4448 115.388H82.6294V114.861H85.1078L84.8761 115.065C84.8761 114.84 84.8363 114.65 84.7567 114.496C84.6772 114.337 84.5648 114.215 84.4197 114.131C84.2746 114.042 84.0991 113.997 83.8932 113.997C83.6779 113.997 83.4883 114.044 83.3245 114.138C83.1607 114.231 83.0343 114.363 82.9453 114.531C82.8564 114.7 82.8119 114.898 82.8119 115.128C82.8119 115.362 82.8588 115.568 82.9524 115.746C83.046 115.919 83.1794 116.055 83.3526 116.153C83.5257 116.246 83.7247 116.293 83.9493 116.293C84.1366 116.293 84.3074 116.26 84.4619 116.195C84.621 116.129 84.7567 116.031 84.8691 115.9L85.2763 116.314C85.1171 116.502 84.9206 116.644 84.6865 116.743C84.4572 116.841 84.2114 116.89 83.9493 116.89ZM87.5871 116.89C87.2828 116.89 87.0067 116.815 86.7586 116.665C86.5105 116.511 86.314 116.303 86.1689 116.041C86.0284 115.778 85.9582 115.484 85.9582 115.156C85.9582 114.828 86.0284 114.533 86.1689 114.271C86.314 114.009 86.5082 113.801 86.7516 113.646C86.9997 113.492 87.2782 113.415 87.5871 113.415C87.8398 113.415 88.0645 113.469 88.2611 113.576C88.4624 113.679 88.6238 113.824 88.7455 114.011C88.8672 114.194 88.9351 114.407 88.9491 114.65V115.654C88.9351 115.893 88.8672 116.106 88.7455 116.293C88.6285 116.48 88.4694 116.628 88.2681 116.736C88.0715 116.839 87.8445 116.89 87.5871 116.89ZM87.6924 116.293C88.006 116.293 88.2588 116.188 88.4507 115.977C88.6426 115.762 88.7385 115.488 88.7385 115.156C88.7385 114.927 88.694 114.728 88.6051 114.559C88.5209 114.386 88.3992 114.253 88.24 114.159C88.0809 114.061 87.896 114.011 87.6854 114.011C87.4748 114.011 87.2875 114.061 87.1237 114.159C86.9646 114.257 86.8382 114.393 86.7446 114.566C86.6556 114.735 86.6112 114.929 86.6112 115.149C86.6112 115.374 86.6556 115.572 86.7446 115.746C86.8382 115.914 86.9669 116.048 87.1307 116.146C87.2945 116.244 87.4818 116.293 87.6924 116.293ZM88.6964 116.82V115.921L88.8157 115.107L88.6964 114.299V113.485H89.3353V116.82H88.6964ZM92.3896 116.82L90.831 115.114L92.3756 113.485H93.1408L91.4207 115.282L91.4488 114.917L93.204 116.82H92.3896ZM90.2552 116.82V111.807H90.8871V116.82H90.2552ZM94.9712 116.89C94.6623 116.89 94.3861 116.815 94.1427 116.665C93.8993 116.511 93.7051 116.303 93.56 116.041C93.4196 115.778 93.3494 115.484 93.3494 115.156C93.3494 114.828 93.4196 114.533 93.56 114.271C93.7051 114.009 93.8993 113.801 94.1427 113.646C94.3861 113.492 94.6623 113.415 94.9712 113.415C95.2193 113.415 95.4439 113.469 95.6452 113.576C95.8465 113.679 96.008 113.824 96.1296 114.011C96.256 114.194 96.3262 114.407 96.3403 114.65V115.654C96.3262 115.893 96.2584 116.106 96.1367 116.293C96.015 116.48 95.8535 116.628 95.6522 116.736C95.451 116.839 95.224 116.89 94.9712 116.89ZM95.0765 116.293C95.2871 116.293 95.4697 116.244 95.6241 116.146C95.7833 116.048 95.9073 115.914 95.9963 115.746C96.0852 115.572 96.1296 115.376 96.1296 115.156C96.1296 114.927 96.0828 114.728 95.9892 114.559C95.9003 114.391 95.7763 114.257 95.6171 114.159C95.4627 114.061 95.2801 114.011 95.0695 114.011C94.8589 114.011 94.674 114.061 94.5148 114.159C94.3557 114.257 94.2293 114.393 94.1357 114.566C94.0468 114.735 94.0023 114.929 94.0023 115.149C94.0023 115.374 94.0468 115.572 94.1357 115.746C94.2293 115.914 94.3557 116.048 94.5148 116.146C94.6787 116.244 94.8659 116.293 95.0765 116.293ZM96.7264 116.82H96.0875V115.921L96.2069 115.107L96.0875 114.299V111.807H96.7264V116.82ZM99.1699 116.89C98.8423 116.89 98.5474 116.813 98.2853 116.658C98.0232 116.504 97.8149 116.296 97.6604 116.033C97.506 115.767 97.4287 115.469 97.4287 115.142C97.4287 114.819 97.506 114.529 97.6604 114.271C97.8149 114.009 98.0232 113.801 98.2853 113.646C98.5474 113.492 98.8423 113.415 99.1699 113.415C99.4929 113.415 99.7854 113.492 100.048 113.646C100.314 113.796 100.525 114.002 100.679 114.264C100.834 114.526 100.911 114.819 100.911 115.142C100.911 115.469 100.834 115.767 100.679 116.033C100.525 116.296 100.314 116.504 100.048 116.658C99.7854 116.813 99.4929 116.89 99.1699 116.89ZM99.1699 116.279C99.3805 116.279 99.5678 116.23 99.7316 116.132C99.8954 116.033 100.024 115.9 100.118 115.732C100.211 115.558 100.258 115.362 100.258 115.142C100.258 114.927 100.209 114.735 100.111 114.566C100.017 114.398 99.8884 114.267 99.7246 114.173C99.5654 114.075 99.3805 114.026 99.1699 114.026C98.9593 114.026 98.7721 114.075 98.6082 114.173C98.4444 114.267 98.3157 114.398 98.2221 114.566C98.1285 114.735 98.0817 114.927 98.0817 115.142C98.0817 115.362 98.1285 115.558 98.2221 115.732C98.3157 115.9 98.4444 116.033 98.6082 116.132C98.7721 116.23 98.9593 116.279 99.1699 116.279ZM102.482 116.82L101.162 113.485H101.822L102.777 116.083H102.566L103.514 113.485H103.879L104.827 116.083H104.616L105.571 113.485H106.231L104.918 116.82H104.546L103.584 114.299H103.816L102.847 116.82H102.482ZM109.152 116.82V114.875C109.152 114.622 109.072 114.414 108.913 114.25C108.754 114.086 108.548 114.004 108.295 114.004C108.127 114.004 107.977 114.042 107.846 114.117C107.715 114.192 107.612 114.295 107.537 114.426C107.462 114.557 107.425 114.707 107.425 114.875L107.165 114.728C107.165 114.475 107.221 114.25 107.333 114.054C107.446 113.857 107.602 113.703 107.804 113.59C108.005 113.473 108.232 113.415 108.485 113.415C108.738 113.415 108.96 113.478 109.152 113.604C109.348 113.731 109.503 113.897 109.615 114.103C109.727 114.304 109.784 114.519 109.784 114.749V116.82H109.152ZM106.793 116.82V113.485H107.425V116.82H106.793Z" fill="white"/>
<path d="M66.7331 70.3735L69.5491 67.4035C69.8351 67.1102 70.0588 66.8572 70.2201 66.6445C70.3815 66.4245 70.4951 66.2228 70.5611 66.0395C70.6345 65.8562 70.6711 65.6655 70.6711 65.4675C70.6711 65.0788 70.5465 64.7745 70.2971 64.5545C70.0478 64.3345 69.7251 64.2245 69.3291 64.2245C68.9405 64.2245 68.5995 64.3198 68.3061 64.5105C68.0128 64.6938 67.7525 64.9798 67.5251 65.3685L66.7991 64.7635C67.0998 64.2648 67.4628 63.8908 67.8881 63.6415C68.3135 63.3848 68.8048 63.2565 69.3621 63.2565C69.8315 63.2565 70.2385 63.3482 70.5831 63.5315C70.9351 63.7148 71.2065 63.9715 71.3971 64.3015C71.5878 64.6315 71.6831 65.0165 71.6831 65.4565C71.6831 65.7718 71.6428 66.0542 71.5621 66.3035C71.4888 66.5528 71.3531 66.8095 71.1551 67.0735C70.9645 67.3302 70.6968 67.6382 70.3521 67.9975L68.0751 70.3405L66.7331 70.3735ZM66.7331 71.0005V70.3735L67.6131 70.0765H71.8591V71.0005H66.7331ZM73.1023 72.2105L73.7843 70.9015L74.1363 70.8135C74.0996 70.8942 74.052 70.9602 73.9933 71.0115C73.942 71.0628 73.876 71.0885 73.7953 71.0885C73.6413 71.0885 73.4983 71.0262 73.3663 70.9015C73.2416 70.7695 73.1793 70.6082 73.1793 70.4175C73.1793 70.2048 73.249 70.0288 73.3883 69.8895C73.5276 69.7428 73.7036 69.6695 73.9163 69.6695C74.107 69.6695 74.2756 69.7428 74.4223 69.8895C74.569 70.0288 74.6423 70.2048 74.6423 70.4175C74.6423 70.4982 74.624 70.5972 74.5873 70.7145C74.558 70.8245 74.4956 70.9675 74.4003 71.1435L73.6743 72.5185L73.1023 72.2105ZM76.3512 71.0005V63.3665H77.3742V71.0005H76.3512ZM74.7892 64.2905V63.3665H77.2642V64.2905H74.7892ZM79.0427 72.2105L79.7247 70.9015L80.0767 70.8135C80.0401 70.8942 79.9924 70.9602 79.9337 71.0115C79.8824 71.0628 79.8164 71.0885 79.7357 71.0885C79.5817 71.0885 79.4387 71.0262 79.3067 70.9015C79.1821 70.7695 79.1197 70.6082 79.1197 70.4175C79.1197 70.2048 79.1894 70.0288 79.3287 69.8895C79.4681 69.7428 79.6441 69.6695 79.8567 69.6695C80.0474 69.6695 80.2161 69.7428 80.3627 69.8895C80.5094 70.0288 80.5827 70.2048 80.5827 70.4175C80.5827 70.4982 80.5644 70.5972 80.5277 70.7145C80.4984 70.8245 80.4361 70.9675 80.3407 71.1435L79.6147 72.5185L79.0427 72.2105ZM82.2917 71.0005V63.3665H83.3147V71.0005H82.2917ZM80.7297 64.2905V63.3665H83.2047V64.2905H80.7297ZM87.3041 71.1105C86.7981 71.1105 86.3435 70.9932 85.9401 70.7585C85.5441 70.5238 85.2288 70.2085 84.9941 69.8125C84.7595 69.4165 84.6421 68.9765 84.6421 68.4925C84.6421 67.8178 84.8768 67.1468 85.3461 66.4795L87.5901 63.3665H88.7891L86.4901 66.5015L86.1161 66.6995C86.2041 66.5455 86.3105 66.4172 86.4351 66.3145C86.5598 66.2045 86.7138 66.1202 86.8971 66.0615C87.0805 66.0028 87.2968 65.9735 87.5461 65.9735C87.9935 65.9735 88.3968 66.0798 88.7561 66.2925C89.1228 66.5052 89.4161 66.7985 89.6361 67.1725C89.8635 67.5392 89.9771 67.9682 89.9771 68.4595C89.9771 68.9435 89.8561 69.3872 89.6141 69.7905C89.3795 70.1938 89.0568 70.5165 88.6461 70.7585C88.2428 70.9932 87.7955 71.1105 87.3041 71.1105ZM87.3041 70.1425C87.6121 70.1425 87.8871 70.0692 88.1291 69.9225C88.3785 69.7685 88.5728 69.5668 88.7121 69.3175C88.8588 69.0608 88.9321 68.7748 88.9321 68.4595C88.9321 68.1442 88.8588 67.8618 88.7121 67.6125C88.5728 67.3558 88.3785 67.1542 88.1291 67.0075C87.8871 66.8608 87.6121 66.7875 87.3041 66.7875C86.9961 66.7875 86.7175 66.8608 86.4681 67.0075C86.2261 67.1542 86.0318 67.3558 85.8851 67.6125C85.7458 67.8618 85.6761 68.1442 85.6761 68.4595C85.6761 68.7748 85.7458 69.0608 85.8851 69.3175C86.0318 69.5742 86.2261 69.7758 86.4681 69.9225C86.7175 70.0692 86.9961 70.1425 87.3041 70.1425ZM94.0411 71.1105C93.4691 71.1105 92.9448 70.9492 92.4681 70.6265C91.9988 70.3038 91.6248 69.8492 91.3461 69.2625C91.0675 68.6685 90.9281 67.9718 90.9281 67.1725C90.9281 66.3732 91.0638 65.6802 91.3351 65.0935C91.6138 64.5068 91.9878 64.0558 92.4571 63.7405C92.9265 63.4178 93.4435 63.2565 94.0081 63.2565C94.5875 63.2565 95.1118 63.4178 95.5811 63.7405C96.0505 64.0558 96.4208 64.5068 96.6921 65.0935C96.9708 65.6802 97.1101 66.3768 97.1101 67.1835C97.1101 67.9828 96.9708 68.6795 96.6921 69.2735C96.4208 69.8602 96.0505 70.3148 95.5811 70.6375C95.1191 70.9528 94.6058 71.1105 94.0411 71.1105ZM94.0191 70.1315C94.4225 70.1315 94.7745 70.0215 95.0751 69.8015C95.3831 69.5742 95.6251 69.2405 95.8011 68.8005C95.9771 68.3605 96.0651 67.8178 96.0651 67.1725C96.0651 66.5272 95.9771 65.9882 95.8011 65.5555C95.6251 65.1155 95.3831 64.7855 95.0751 64.5655C94.7671 64.3382 94.4115 64.2245 94.0081 64.2245C93.6121 64.2245 93.2601 64.3382 92.9521 64.5655C92.6441 64.7855 92.4021 65.1155 92.2261 65.5555C92.0575 65.9882 91.9731 66.5272 91.9731 67.1725C91.9731 67.8178 92.0575 68.3605 92.2261 68.8005C92.4021 69.2405 92.6441 69.5742 92.9521 69.8015C93.2601 70.0215 93.6158 70.1315 94.0191 70.1315Z" fill="white"/>
<path d="M64.8604 82.0005V76.3525H65.7564L67.9804 79.8165H67.5244L69.7404 76.3525H70.6444V82.0005H69.3884V78.4725L69.6124 78.5285L68.1644 80.7845H67.3324L65.8924 78.5285L66.1084 78.4725V82.0005H64.8604ZM73.5356 82.0885C73.1143 82.0885 72.7383 82.0032 72.4076 81.8325C72.0823 81.6565 71.8263 81.4138 71.6396 81.1045C71.4529 80.7952 71.3596 80.4458 71.3596 80.0565C71.3596 79.6672 71.4503 79.3205 71.6316 79.0165C71.8183 78.7072 72.0689 78.4645 72.3836 78.2885C72.6983 78.1125 73.0529 78.0245 73.4476 78.0245C73.8316 78.0245 74.1703 78.1072 74.4636 78.2725C74.7569 78.4378 74.9863 78.6672 75.1516 78.9605C75.3223 79.2538 75.4076 79.5898 75.4076 79.9685C75.4076 80.0378 75.4023 80.1125 75.3916 80.1925C75.3863 80.2672 75.3729 80.3552 75.3516 80.4565L71.9996 80.4645V79.6245L74.8316 79.6165L74.3036 79.9685C74.2983 79.7445 74.2636 79.5605 74.1996 79.4165C74.1356 79.2672 74.0396 79.1552 73.9116 79.0805C73.7889 79.0005 73.6369 78.9605 73.4556 78.9605C73.2636 78.9605 73.0956 79.0058 72.9516 79.0965C72.8129 79.1818 72.7036 79.3045 72.6236 79.4645C72.5489 79.6245 72.5116 79.8192 72.5116 80.0485C72.5116 80.2778 72.5516 80.4752 72.6316 80.6405C72.7169 80.8005 72.8343 80.9258 72.9836 81.0165C73.1383 81.1018 73.3196 81.1445 73.5276 81.1445C73.7196 81.1445 73.8929 81.1125 74.0476 81.0485C74.2023 80.9792 74.3383 80.8778 74.4556 80.7445L75.1276 81.4165C74.9356 81.6405 74.7036 81.8085 74.4316 81.9205C74.1596 82.0325 73.8609 82.0885 73.5356 82.0885ZM75.9984 82.0005V78.1125H77.2224V82.0005H75.9984ZM78.4864 82.0005V79.7285C78.4864 79.5312 78.4251 79.3792 78.3024 79.2725C78.1851 79.1605 78.0384 79.1045 77.8624 79.1045C77.7397 79.1045 77.6304 79.1312 77.5344 79.1845C77.4384 79.2325 77.3611 79.3018 77.3024 79.3925C77.2491 79.4832 77.2224 79.5952 77.2224 79.7285L76.7504 79.5205C76.7504 79.2112 76.8171 78.9472 76.9504 78.7285C77.0837 78.5045 77.2651 78.3338 77.4944 78.2165C77.7237 78.0938 77.9824 78.0325 78.2704 78.0325C78.5424 78.0325 78.7851 78.0938 78.9984 78.2165C79.2171 78.3392 79.3904 78.5098 79.5184 78.7285C79.6464 78.9472 79.7104 79.2085 79.7104 79.5125V82.0005H78.4864ZM80.9744 82.0005V79.7285C80.9744 79.5312 80.9131 79.3792 80.7904 79.2725C80.6731 79.1605 80.5264 79.1045 80.3504 79.1045C80.2277 79.1045 80.1184 79.1312 80.0224 79.1845C79.9264 79.2325 79.8491 79.3018 79.7904 79.3925C79.7371 79.4832 79.7104 79.5952 79.7104 79.7285L79.0064 79.6325C79.0171 79.3018 79.0944 79.0192 79.2384 78.7845C79.3877 78.5445 79.5824 78.3605 79.8224 78.2325C80.0677 78.0992 80.3424 78.0325 80.6464 78.0325C80.9451 78.0325 81.2091 78.0965 81.4384 78.2245C81.6731 78.3472 81.8571 78.5258 81.9904 78.7605C82.1291 78.9898 82.1984 79.2672 82.1984 79.5925V82.0005H80.9744ZM85.2228 82.0805C84.9614 82.0805 84.7214 82.0272 84.5028 81.9205C84.2841 81.8085 84.1054 81.6618 83.9668 81.4805C83.8281 81.2938 83.7481 81.0858 83.7268 80.8565V79.2165C83.7481 78.9872 83.8281 78.7845 83.9668 78.6085C84.1054 78.4272 84.2841 78.2858 84.5028 78.1845C84.7214 78.0832 84.9614 78.0325 85.2228 78.0325C85.5908 78.0325 85.9161 78.1205 86.1988 78.2965C86.4868 78.4725 86.7108 78.7125 86.8708 79.0165C87.0361 79.3205 87.1188 79.6672 87.1188 80.0565C87.1188 80.4458 87.0361 80.7925 86.8708 81.0965C86.7108 81.4005 86.4868 81.6405 86.1988 81.8165C85.9161 81.9925 85.5908 82.0805 85.2228 82.0805ZM85.0068 80.9765C85.1774 80.9765 85.3268 80.9365 85.4548 80.8565C85.5881 80.7765 85.6921 80.6672 85.7668 80.5285C85.8414 80.3898 85.8788 80.2325 85.8788 80.0565C85.8788 79.8752 85.8414 79.7152 85.7668 79.5765C85.6921 79.4378 85.5881 79.3312 85.4548 79.2565C85.3268 79.1765 85.1774 79.1365 85.0068 79.1365C84.8361 79.1365 84.6841 79.1765 84.5508 79.2565C84.4174 79.3312 84.3134 79.4378 84.2388 79.5765C84.1694 79.7152 84.1348 79.8752 84.1348 80.0565C84.1348 80.2378 84.1721 80.3978 84.2468 80.5365C84.3214 80.6752 84.4228 80.7845 84.5508 80.8645C84.6841 80.9392 84.8361 80.9765 85.0068 80.9765ZM82.9828 82.0005V76.1925H84.2068V79.0645L84.0068 80.0085L84.1908 80.9525V82.0005H82.9828ZM89.6606 82.0885C89.2393 82.0885 88.8633 82.0032 88.5326 81.8325C88.2073 81.6565 87.9513 81.4138 87.7646 81.1045C87.5779 80.7952 87.4846 80.4458 87.4846 80.0565C87.4846 79.6672 87.5753 79.3205 87.7566 79.0165C87.9433 78.7072 88.1939 78.4645 88.5086 78.2885C88.8233 78.1125 89.1779 78.0245 89.5726 78.0245C89.9566 78.0245 90.2953 78.1072 90.5886 78.2725C90.8819 78.4378 91.1113 78.6672 91.2766 78.9605C91.4473 79.2538 91.5326 79.5898 91.5326 79.9685C91.5326 80.0378 91.5273 80.1125 91.5166 80.1925C91.5113 80.2672 91.4979 80.3552 91.4766 80.4565L88.1246 80.4645V79.6245L90.9566 79.6165L90.4286 79.9685C90.4233 79.7445 90.3886 79.5605 90.3246 79.4165C90.2606 79.2672 90.1646 79.1552 90.0366 79.0805C89.9139 79.0005 89.7619 78.9605 89.5806 78.9605C89.3886 78.9605 89.2206 79.0058 89.0766 79.0965C88.9379 79.1818 88.8286 79.3045 88.7486 79.4645C88.6739 79.6245 88.6366 79.8192 88.6366 80.0485C88.6366 80.2778 88.6766 80.4752 88.7566 80.6405C88.8419 80.8005 88.9593 80.9258 89.1086 81.0165C89.2633 81.1018 89.4446 81.1445 89.6526 81.1445C89.8446 81.1445 90.0179 81.1125 90.1726 81.0485C90.3273 80.9792 90.4633 80.8778 90.5806 80.7445L91.2526 81.4165C91.0606 81.6405 90.8286 81.8085 90.5566 81.9205C90.2846 82.0325 89.9859 82.0885 89.6606 82.0885ZM92.1234 82.0005V78.1125H93.3474V82.0005H92.1234ZM93.3474 79.8645L92.8354 79.4645C92.9367 79.0112 93.1074 78.6592 93.3474 78.4085C93.5874 78.1578 93.9207 78.0325 94.3474 78.0325C94.5341 78.0325 94.6967 78.0618 94.8354 78.1205C94.9794 78.1738 95.1047 78.2592 95.2114 78.3765L94.4834 79.2965C94.4301 79.2378 94.3634 79.1925 94.2834 79.1605C94.2034 79.1285 94.1127 79.1125 94.0114 79.1125C93.8087 79.1125 93.6461 79.1765 93.5234 79.3045C93.4061 79.4272 93.3474 79.6138 93.3474 79.8645ZM96.8675 82.0965C96.6382 82.0965 96.4115 82.0672 96.1875 82.0085C95.9689 81.9498 95.7635 81.8672 95.5715 81.7605C95.3849 81.6485 95.2249 81.5205 95.0915 81.3765L95.7875 80.6725C95.9155 80.8112 96.0675 80.9205 96.2435 81.0005C96.4195 81.0752 96.6115 81.1125 96.8195 81.1125C96.9635 81.1125 97.0729 81.0912 97.1475 81.0485C97.2275 81.0058 97.2675 80.9472 97.2675 80.8725C97.2675 80.7765 97.2195 80.7045 97.1235 80.6565C97.0329 80.6032 96.9155 80.5578 96.7715 80.5205C96.6275 80.4778 96.4755 80.4325 96.3155 80.3845C96.1555 80.3365 96.0035 80.2698 95.8595 80.1845C95.7155 80.0992 95.5982 79.9818 95.5075 79.8325C95.4169 79.6778 95.3715 79.4832 95.3715 79.2485C95.3715 78.9978 95.4355 78.7818 95.5635 78.6005C95.6915 78.4138 95.8729 78.2672 96.1075 78.1605C96.3422 78.0538 96.6169 78.0005 96.9315 78.0005C97.2622 78.0005 97.5662 78.0592 97.8435 78.1765C98.1262 78.2885 98.3555 78.4565 98.5315 78.6805L97.8355 79.3845C97.7129 79.2405 97.5742 79.1392 97.4195 79.0805C97.2702 79.0218 97.1235 78.9925 96.9795 78.9925C96.8409 78.9925 96.7369 79.0138 96.6675 79.0565C96.5982 79.0938 96.5635 79.1498 96.5635 79.2245C96.5635 79.3045 96.6089 79.3685 96.6995 79.4165C96.7902 79.4645 96.9075 79.5072 97.0515 79.5445C97.1955 79.5818 97.3475 79.6272 97.5075 79.6805C97.6675 79.7338 97.8195 79.8058 97.9635 79.8965C98.1075 79.9872 98.2249 80.1098 98.3155 80.2645C98.4062 80.4138 98.4515 80.6112 98.4515 80.8565C98.4515 81.2352 98.3075 81.5365 98.0195 81.7605C97.7369 81.9845 97.3529 82.0965 96.8675 82.0965Z" fill="white"/>
</svg>
