<svg width="295" height="296" viewBox="0 0 295 296" fill="none" xmlns="http://www.w3.org/2000/svg">
<path d="M262.957 236.749C260.998 239.272 258.949 241.75 256.809 244.178L255.684 243.187C254.632 244.38 253.558 245.562 252.463 246.731C251.367 247.9 250.257 249.047 249.133 250.174L250.196 251.233C247.91 253.525 245.569 255.73 243.178 257.847L242.183 256.724C239.783 258.848 237.331 260.884 234.833 262.83L235.755 264.014C233.202 266.002 230.601 267.898 227.957 269.702L227.111 268.462C224.468 270.265 221.78 271.975 219.053 273.591L219.818 274.881C217.04 276.528 214.221 278.078 211.366 279.532L210.685 278.196C207.836 279.647 204.952 281.002 202.036 282.26L202.63 283.637C199.668 284.915 196.674 286.094 193.654 287.173L193.149 285.761C190.142 286.835 187.109 287.81 184.056 288.685L184.469 290.127C181.369 291.016 178.248 291.802 175.111 292.487L174.791 291.021C171.674 291.701 168.542 292.28 165.398 292.756L165.623 294.239C162.438 294.722 159.242 295.101 156.041 295.376L155.913 293.882C152.737 294.155 149.555 294.324 146.374 294.39L146.405 295.89C143.187 295.957 139.969 295.919 136.757 295.775L136.824 294.277C133.642 294.135 130.467 293.888 127.302 293.537L127.137 295.028C123.941 294.674 120.755 294.214 117.587 293.648L117.851 292.171C114.719 291.612 111.604 290.948 108.511 290.179L108.149 291.635C105.032 290.86 101.938 289.98 98.8706 288.994L99.3295 287.566C96.3051 286.594 93.3082 285.519 90.3442 284.339L89.7895 285.733C86.8082 284.546 83.8598 283.255 80.9495 281.86L81.5979 280.508C78.7392 279.137 75.9178 277.665 73.1388 276.091L72.3995 277.396C69.6127 275.818 66.868 274.138 64.1707 272.356L64.9975 271.105C62.3551 269.359 59.7585 267.515 57.2127 265.572L56.3026 266.764C53.7636 264.826 51.2747 262.791 48.8407 260.658L49.8292 259.53C48.6341 258.482 47.4522 257.411 46.2843 256.316C45.1163 255.221 43.9713 254.111 42.8491 252.986L41.7871 254.045C39.5017 251.754 37.3102 249.401 35.2126 246.992L36.3438 246.007C34.2405 243.592 32.2328 241.12 30.3206 238.595L29.1249 239.501C27.173 236.924 25.3196 234.293 23.5648 231.614L24.8196 230.792C23.0697 228.121 21.4188 225.4 19.8671 222.635L18.5591 223.37C16.9794 220.555 15.5014 217.696 14.1251 214.798L15.4801 214.154C14.1119 211.272 12.8452 208.351 11.6803 205.396L10.2848 205.946C9.10347 202.949 8.02574 199.917 7.05167 196.856L8.48103 196.401C7.5146 193.365 6.65126 190.299 5.89111 187.209L4.43457 187.568C3.66565 184.443 3.00126 181.294 2.44153 178.127L3.91864 177.866C3.36453 174.731 2.914 171.577 2.56718 168.411L1.07611 168.575C0.725975 165.379 0.480475 162.17 0.339714 158.954L1.83828 158.889C1.69913 155.71 1.66335 152.524 1.73107 149.337L0.2314 149.305C0.299631 146.093 0.471919 142.879 0.748343 139.67L2.24281 139.799C2.5156 136.631 2.89086 133.468 3.36866 130.314L1.88559 130.089C2.36651 126.914 2.95029 123.749 3.63702 120.598L5.10261 120.918C5.77914 117.814 6.55658 114.725 7.43506 111.655L5.99295 111.242C6.8754 108.159 7.85876 105.095 8.94314 102.056L10.3559 102.56C11.423 99.57 12.5889 96.604 13.8538 93.6674L12.4761 93.074C13.7434 90.1317 15.109 87.2188 16.5729 84.3401L17.91 85.0201C19.3469 82.1945 20.8797 79.4022 22.5083 76.6481L21.2171 75.8846C22.8466 73.129 24.5711 70.4112 26.3907 67.7361L27.6309 68.5797C29.4123 65.9608 31.2857 63.383 33.2513 60.851L32.0664 59.9312C34.025 57.4081 36.0742 54.93 38.214 52.5014L39.3395 53.493C40.3911 52.2995 41.4649 51.118 42.5608 49.949C43.6567 48.78 44.7665 47.6323 45.8898 46.506L44.8277 45.4468C47.1134 43.1548 49.4542 40.9502 51.8458 38.833L52.84 39.9562C55.2402 37.8314 57.6918 35.7958 60.1905 33.8494L59.2687 32.666C61.821 30.6778 64.4219 28.7818 67.0668 26.978L67.9119 28.2173C70.5553 26.4146 73.243 24.705 75.9701 23.0889L75.2054 21.7985C77.9837 20.1521 80.8026 18.6016 83.657 17.1473L84.3379 18.4838C87.1869 17.0323 90.0717 15.6777 92.9871 14.42L92.3929 13.0427C95.3555 11.7647 98.3495 10.5859 101.37 9.50656L101.874 10.9191C104.881 9.84457 107.914 8.86962 110.967 7.99446L110.554 6.55251C113.654 5.66413 116.775 4.87754 119.912 4.19299L120.232 5.6585C123.349 4.97838 126.482 4.40001 129.625 3.92363L129.4 2.44056C132.585 1.95784 135.781 1.57879 138.982 1.30366L139.11 2.79815C142.287 2.52515 145.468 2.35551 148.649 2.28949L148.618 0.789815C151.836 0.72302 155.054 0.76119 158.266 0.904588L158.199 2.40309C161.381 2.54513 164.557 2.79148 167.721 3.14236L167.886 1.65149C171.083 2.00594 174.268 2.46598 177.436 3.03187L177.172 4.5085C180.304 5.06793 183.419 5.73187 186.512 6.50056L186.874 5.04485C189.991 5.81961 193.086 6.69969 196.153 7.68536L195.694 9.11342C198.718 10.0854 201.715 11.1611 204.679 12.3409L205.234 10.9472C208.215 12.1337 211.163 13.4244 214.074 14.8194L213.425 16.172C216.284 17.5423 219.106 19.0144 221.885 20.5885L222.624 19.2833C225.411 20.8618 228.155 22.5418 230.853 24.3235L230.026 25.5751C232.668 27.3206 235.265 29.1648 237.811 31.108L238.721 29.9157C241.26 31.8536 243.749 33.889 246.183 36.0219L245.194 37.1501C246.389 38.1974 247.571 39.2685 248.739 40.3634C249.907 41.4583 251.052 42.5687 252.174 43.6938L253.236 42.6346C255.522 44.9262 257.713 47.2787 259.811 49.6875L258.68 50.6726C260.783 53.0878 262.791 55.5601 264.703 58.0845L265.898 57.1788C267.85 59.7556 269.704 62.3863 271.459 65.0656L270.204 65.8874C271.954 68.5592 273.604 71.2799 275.156 74.0443L276.464 73.3101C278.044 76.1244 279.522 78.9835 280.898 81.8821L279.543 82.5255C280.911 85.4073 282.178 88.3287 283.343 91.2841L284.739 90.7341C285.92 93.7311 286.998 96.7627 287.972 99.8234L286.542 100.278C287.509 103.315 288.372 106.381 289.132 109.47L290.589 109.112C291.358 112.237 292.022 115.386 292.582 118.553L291.105 118.814C291.659 121.949 292.109 125.102 292.456 128.268L293.947 128.105C294.297 131.301 294.543 134.51 294.684 137.725L293.185 137.791C293.324 140.97 293.36 144.155 293.292 147.343L294.792 147.375C294.724 150.587 294.551 153.8 294.275 157.01L292.78 156.881C292.508 160.049 292.132 163.212 291.655 166.366L293.138 166.591C292.657 169.766 292.073 172.931 291.386 176.082L289.921 175.762C289.244 178.866 288.467 181.955 287.588 185.025L289.03 185.437C288.148 188.521 287.165 191.585 286.08 194.623L284.667 194.119C283.6 197.11 282.434 200.076 281.169 203.012L282.547 203.606C281.28 206.548 279.914 209.461 278.45 212.34L277.113 211.66C275.676 214.485 274.144 217.277 272.515 220.032L273.806 220.795C272.177 223.551 270.452 226.269 268.633 228.944L267.392 228.1C265.611 230.719 263.738 233.297 261.772 235.829L262.957 236.749Z" stroke="#051070" stroke-width="3" stroke-dasharray="10 10"/>
</svg>
