<svg width="14" height="14" viewBox="0 0 14 14" fill="none" xmlns="http://www.w3.org/2000/svg">
<mask id="mask0_647_1380" style="mask-type:luminance" maskUnits="userSpaceOnUse" x="0" y="0" width="14" height="14">
<path fill-rule="evenodd" clip-rule="evenodd" d="M0 0H14V14H0V0Z" fill="white"/>
</mask>
<g mask="url(#mask0_647_1380)">
<path fill-rule="evenodd" clip-rule="evenodd" d="M11.5766 3.26337C11.5766 3.72728 11.2005 4.10337 10.7366 4.10337C10.2727 4.10337 9.89658 3.72728 9.89658 3.26337C9.89658 2.79945 10.2727 2.42337 10.7366 2.42337C11.2005 2.42337 11.5766 2.79945 11.5766 3.26337ZM7 9.33335C5.71134 9.33335 4.66665 8.28866 4.66665 7C4.66665 5.71134 5.71134 4.66665 7 4.66665C8.28866 4.66665 9.33335 5.71134 9.33335 7C9.33335 8.28866 8.28866 9.33335 7 9.33335ZM7 3.40539C5.01479 3.40539 3.40539 5.01473 3.40539 7C3.40539 8.98521 5.01479 10.5946 7 10.5946C8.98521 10.5946 10.5946 8.98521 10.5946 7C10.5946 5.01473 8.98521 3.40539 7 3.40539ZM7 0C5.0989 0 4.86057 0.00803906 4.11392 0.0421094C3.36886 0.076125 2.85999 0.194414 2.41473 0.3675C1.95442 0.546383 1.56406 0.78575 1.17491 1.17491C0.78575 1.56401 0.546383 1.95437 0.3675 2.41473C0.194469 2.85999 0.076125 3.3688 0.0421094 4.11392C0.00803906 4.86052 0 5.0989 0 7C0 8.9011 0.00803906 9.13948 0.0421094 9.88608C0.076125 10.6311 0.194469 11.14 0.3675 11.5853C0.546383 12.0455 0.78575 12.4359 1.17491 12.8251C1.56406 13.2143 1.95442 13.4536 2.41473 13.6325C2.85999 13.8056 3.36886 13.9239 4.11392 13.9579C4.86057 13.992 5.0989 14 7 14C8.9011 14 9.13954 13.992 9.88608 13.9579C10.6312 13.9239 11.14 13.8056 11.5853 13.6325C12.0456 13.4536 12.436 13.2143 12.8251 12.8251C13.2143 12.4359 13.4536 12.0456 13.6326 11.5853C13.8056 11.14 13.9239 10.6311 13.9579 9.88608C13.992 9.13948 14 8.9011 14 7C14 5.0989 13.992 4.86052 13.9579 4.11392C13.9239 3.3688 13.8056 2.85999 13.6326 2.41473C13.4536 1.95437 13.2143 1.56401 12.8251 1.17491C12.436 0.78575 12.0456 0.546383 11.5853 0.3675C11.14 0.194414 10.6312 0.076125 9.88608 0.0421094C9.13954 0.00803906 8.9011 0 7 0ZM7 1.26126C8.86911 1.26126 9.09048 1.26837 9.8286 1.30205C10.5111 1.33323 10.8817 1.44725 11.1285 1.54306C11.4551 1.67005 11.6884 1.8218 11.9333 2.0667C12.1783 2.31164 12.3299 2.54488 12.4569 2.87159C12.5528 3.11828 12.6668 3.48895 12.6979 4.1714C12.7316 4.90952 12.7387 5.13089 12.7387 7C12.7387 8.86905 12.7316 9.09043 12.6979 9.82855C12.6668 10.5111 12.5528 10.8817 12.4569 11.1284C12.3299 11.4551 12.1783 11.6883 11.9333 11.9333C11.6884 12.1782 11.4551 12.33 11.1285 12.4569C10.8817 12.5528 10.5111 12.6668 9.8286 12.6979C9.09059 12.7316 8.86922 12.7387 7 12.7387C5.13084 12.7387 4.90941 12.7316 4.1714 12.6979C3.48895 12.6668 3.11828 12.5528 2.87164 12.4569C2.54488 12.33 2.31164 12.1782 2.0667 11.9333C1.8218 11.6883 1.6701 11.4551 1.54312 11.1284C1.44725 10.8817 1.33323 10.5111 1.30211 9.8286C1.26837 9.09043 1.26126 8.86905 1.26126 7C1.26126 5.13089 1.26837 4.90952 1.30211 4.1714C1.33323 3.48895 1.44725 3.11828 1.54312 2.87159C1.6701 2.54488 1.8218 2.31164 2.0667 2.0667C2.31164 1.8218 2.54488 1.67005 2.87164 1.54306C3.11828 1.44725 3.48895 1.33323 4.1714 1.30205C4.90952 1.26837 5.13095 1.26126 7 1.26126Z" fill="url(#paint0_linear_647_1380)"/>
</g>
<defs>
<linearGradient id="paint0_linear_647_1380" x1="14" y1="0.0879204" x2="-8.00211e-07" y2="13.9121" gradientUnits="userSpaceOnUse">
<stop stop-color="#5F6BFB"/>
<stop offset="1" stop-color="#724DE4"/>
</linearGradient>
</defs>
</svg>
