<svg width="40" height="40" viewBox="0 0 40 40" fill="none" xmlns="http://www.w3.org/2000/svg">
<circle cx="20" cy="20" r="20" fill="#F1ECF4"/>
<g clip-path="url(#clip0_1_7542)">
<path d="M27.083 12.5H12.9163C12.6953 12.5 12.4834 12.5878 12.3271 12.7441C12.1708 12.9004 12.083 13.1123 12.083 13.3333V23.3333C12.083 23.5543 12.1708 23.7663 12.3271 23.9226C12.4834 24.0789 12.6953 24.1667 12.9163 24.1667H27.083C27.304 24.1667 27.516 24.0789 27.6723 23.9226C27.8285 23.7663 27.9163 23.5543 27.9163 23.3333V13.3333C27.9163 13.1123 27.8285 12.9004 27.6723 12.7441C27.516 12.5878 27.304 12.5 27.083 12.5ZM22.9163 18.6667C22.9163 20.0417 20.7913 21.7083 20.1663 22.0417H19.833C19.2497 21.7083 17.083 20.0417 17.083 18.6667V16.625L19.9997 15L22.9163 16.625V18.6667ZM19.9997 16.9167L18.7497 17.625V18.6667C18.833 19 19.458 19.6667 19.9997 20.125V16.9167Z" fill="#051070"/>
<path d="M28.333 25.833H11.6663C11.4453 25.833 11.2334 25.9208 11.0771 26.0771C10.9208 26.2334 10.833 26.4453 10.833 26.6663C10.833 26.8874 10.9208 27.0993 11.0771 27.2556C11.2334 27.4119 11.4453 27.4997 11.6663 27.4997H28.333C28.554 27.4997 28.766 27.4119 28.9223 27.2556C29.0785 27.0993 29.1663 26.8874 29.1663 26.6663C29.1663 26.4453 29.0785 26.2334 28.9223 26.0771C28.766 25.9208 28.554 25.833 28.333 25.833Z" fill="#051070"/>
</g>
<defs>
<clipPath id="clip0_1_7542">
<rect width="20" height="20" fill="white" transform="translate(10 10)"/>
</clipPath>
</defs>
</svg>
