<svg width="78" height="24" viewBox="0 0 78 24" fill="none" xmlns="http://www.w3.org/2000/svg">
    <path
        d="M22.9902 1.17285C24.3733 1.17285 25.497 2.37978 25.497 3.86531C25.497 5.35084 24.3733 6.55777 22.9902 6.55777C21.6071 6.55777 20.4834 5.35084 20.4834 3.86531C20.4834 2.37978 21.6071 1.17285 22.9902 1.17285ZM20.8289 8.60052H25.1515V23.6408H20.8289V8.60052Z"
        fill="#051070" />
    <path
        d="M27.5986 8.53858H31.9212V10.9524H31.979C32.901 9.12625 34.1108 8.16748 36.0127 8.16748C36.5021 8.16748 37.0503 8.19906 37.4536 8.32201V12.562C36.8487 12.3759 36.2438 12.253 35.6095 12.253C32.3245 12.253 31.9212 14.2957 31.9212 17.2973V23.58H27.5986V8.53858Z"
        fill="#051070" />
    <path d="M54.5703 0.270996H58.8929V23.6673H54.5703V0.270996Z" fill="#051070" />
    <path
        d="M70.5981 19.0696C70.0467 19.4893 69.3862 19.7476 68.5723 19.7476C66.9014 19.7476 65.6622 18.6027 65.3167 16.8385H72.0127L74.9206 12.2511C74.0427 9.2834 71.8426 7.49219 68.7739 7.49219C64.4513 7.49219 60.9941 10.5873 60.9941 15.3846C60.9941 19.875 64.0239 22.8731 67.9558 23.2386L70.5981 19.0696ZM68.3717 10.8344C69.9281 10.8344 71.0518 12.1338 71.0224 13.6813H65.3167C65.4322 12.2274 66.4698 10.8344 68.3717 10.8344Z"
        fill="#051070" />
    <path
        d="M74.1681 23.729C76.2845 23.729 78.0002 21.8862 78.0002 19.613C78.0002 17.3399 76.2845 15.4971 74.1681 15.4971C72.0516 15.4971 70.3359 17.3399 70.3359 19.613C70.3359 21.8862 72.0516 23.729 74.1681 23.729Z"
        fill="#00C637" />
    <path
        d="M14.4369 6.85911C13.5432 5.71423 12.2473 5.06451 10.5754 5.06451C7.17487 5.06451 4.66808 8.03558 4.66808 12.1211C4.66808 16.2066 7.17487 19.1777 10.4304 19.1777C12.2462 19.1777 13.7154 18.3114 14.6375 16.8258L18.3835 19.8274C16.6832 22.4273 13.8015 23.6343 11.007 23.6343C4.63867 23.6343 0 19.1472 0 12.1211C0 5.0961 4.63867 0.60791 11.007 0.60791C13.2827 0.60791 16.1645 1.44374 17.8931 3.82601L14.4369 6.85911Z"
        fill="#051070" />
    <path
        d="M7.45605 11.5724C7.45605 11.3796 7.49095 11.1975 7.56075 11.0275C7.6293 10.8575 7.72403 10.7089 7.84242 10.5804C7.95957 10.4533 8.09792 10.3529 8.25745 10.2792C8.41574 10.2056 8.58525 10.1695 8.76471 10.1695C8.92674 10.1695 9.07629 10.1976 9.21464 10.2551C9.35422 10.3127 9.48136 10.3917 9.59851 10.4907C9.71566 10.3917 9.84279 10.3127 9.98114 10.2551C10.1182 10.1976 10.2678 10.1695 10.4286 10.1695C10.6093 10.1695 10.7813 10.2056 10.9446 10.2792C11.1078 10.3529 11.2512 10.4533 11.3745 10.5804C11.4979 10.7089 11.5951 10.8575 11.6687 11.0275C11.7422 11.1975 11.7784 11.3796 11.7784 11.5724V13.4384C11.7784 13.5121 11.7659 13.5803 11.7397 13.6432C11.7148 13.7062 11.6799 13.7597 11.6363 13.8052C11.5914 13.8507 11.5416 13.8869 11.4842 13.9136C11.4269 13.9391 11.3658 13.9525 11.2998 13.9525C11.2312 13.9525 11.1677 13.9391 11.1103 13.9136C11.0518 13.8869 11.0007 13.8507 10.9558 13.8052C10.9122 13.7597 10.8773 13.7062 10.8523 13.6432C10.8262 13.5803 10.8137 13.5121 10.8137 13.4398V11.6058C10.8137 11.5563 10.8025 11.5095 10.7813 11.4653C10.7589 11.4211 10.7302 11.3823 10.6941 11.3502C10.6579 11.3167 10.6168 11.2913 10.5732 11.2725C10.5283 11.2551 10.4834 11.2458 10.4398 11.2458C10.3563 11.2458 10.2815 11.2752 10.218 11.3341C10.1531 11.393 10.1157 11.4666 10.1033 11.555C10.1033 11.5657 10.1033 11.5764 10.1033 11.5871C10.1033 11.5978 10.1033 11.6085 10.1033 11.6219V12.4224C10.1033 12.4961 10.0908 12.563 10.0647 12.6259C10.0397 12.6888 10.0048 12.7437 9.96245 12.7905C9.92007 12.8374 9.86898 12.8749 9.81041 12.903C9.75308 12.9298 9.69076 12.9445 9.6247 12.9445C9.55615 12.9445 9.49259 12.9298 9.43526 12.903C9.37669 12.8749 9.3256 12.8374 9.28072 12.7905C9.23709 12.7437 9.20221 12.6888 9.17727 12.6259C9.1511 12.563 9.13863 12.4961 9.13863 12.4224V11.6581C9.13863 11.6474 9.13613 11.6313 9.13114 11.6099V11.6072C9.13114 11.5563 9.12241 11.5095 9.10373 11.4653C9.08504 11.4211 9.0601 11.3823 9.02769 11.3475C8.99653 11.314 8.95914 11.2873 8.91803 11.2672C8.87564 11.2471 8.83201 11.2377 8.78467 11.2377C8.69992 11.2377 8.62389 11.2658 8.55658 11.322C8.49052 11.3783 8.44816 11.4479 8.42821 11.5309C8.4307 11.5443 8.4332 11.5563 8.43444 11.5684C8.43569 11.5804 8.43569 11.5925 8.43569 11.6058L8.42075 13.4398C8.41825 13.5121 8.40456 13.5803 8.37961 13.6432C8.35344 13.7062 8.31979 13.7597 8.27616 13.8052C8.23378 13.8507 8.18393 13.8869 8.12661 13.9136C8.06928 13.9391 8.00821 13.9525 7.94215 13.9525C7.8736 13.9525 7.81129 13.9391 7.75271 13.9136C7.69414 13.8869 7.64305 13.8507 7.59817 13.8052C7.55454 13.7597 7.51966 13.7062 7.49472 13.6432C7.46855 13.5803 7.45608 13.5121 7.45608 13.4384V11.5724H7.45605ZM12.3105 10.6875C12.3105 10.6166 12.323 10.5496 12.3491 10.4867C12.374 10.4238 12.4089 10.3689 12.4513 10.3221C12.4937 10.2752 12.5448 10.2378 12.6046 10.211C12.6644 10.1829 12.7268 10.1695 12.7928 10.1695C12.8614 10.1695 12.9249 10.1828 12.9835 10.211C13.0408 10.2377 13.0932 10.2752 13.138 10.3221C13.1829 10.3689 13.219 10.4238 13.244 10.4867C13.2702 10.5496 13.2826 10.6166 13.2826 10.6875V12.1493C13.2826 12.2644 13.3026 12.3715 13.3412 12.4692C13.3798 12.567 13.4334 12.6526 13.502 12.7249C13.5693 12.7959 13.6503 12.8521 13.7425 12.8936C13.8347 12.9337 13.9357 12.9538 14.0454 12.9538C14.1526 12.9538 14.2523 12.9311 14.3457 12.8869C14.438 12.8427 14.5177 12.7825 14.5838 12.7062C14.6511 12.6312 14.7047 12.5428 14.7433 12.4424C14.7819 12.342 14.8019 12.2336 14.8019 12.1185V10.6875C14.8019 10.6165 14.8156 10.5496 14.843 10.4867C14.8717 10.4238 14.9078 10.3689 14.9514 10.3221C14.9951 10.2752 15.0474 10.2377 15.1085 10.2109C15.1695 10.1828 15.2331 10.1694 15.2979 10.1694C15.3665 10.1694 15.4288 10.1828 15.4861 10.2109C15.5434 10.2377 15.5945 10.2752 15.6381 10.3221C15.6818 10.3689 15.7154 10.4238 15.7379 10.4867C15.7615 10.5496 15.7728 10.6165 15.7728 10.6875V12.1386C15.7728 12.3527 15.7416 12.5562 15.6793 12.7477C15.6182 12.9404 15.531 13.1144 15.4188 13.2697C15.3066 13.425 15.1745 13.5602 15.0212 13.674C14.8679 13.7878 14.7009 13.8734 14.5202 13.9296V14.785C14.5202 14.8613 14.5077 14.9309 14.4841 14.9952C14.4592 15.0594 14.4255 15.1143 14.3819 15.1612C14.3382 15.2094 14.2871 15.2455 14.2286 15.271C14.17 15.2977 14.1064 15.3111 14.0379 15.3111C13.9706 15.3111 13.9058 15.2977 13.8447 15.271C13.7836 15.2455 13.7313 15.2094 13.6864 15.1612C13.6415 15.1143 13.6067 15.0594 13.5817 14.9952C13.558 14.9309 13.5456 14.8613 13.5456 14.785V13.9229C13.3649 13.8627 13.2003 13.7744 13.0483 13.6592C12.8975 13.5441 12.7679 13.4089 12.6582 13.2536C12.5485 13.0984 12.4625 12.9257 12.4014 12.7356C12.3404 12.5469 12.3105 12.3474 12.3105 12.1386V10.6875L12.3105 10.6875Z"
        fill="#00C637" />
    <path fill-rule="evenodd" clip-rule="evenodd"
        d="M41.8833 10.0176C41.7119 10.1249 41.1992 10.7727 41.0311 11.0143C38.9077 14.0658 39.1058 18.0784 41.4058 20.9214C43.9477 24.0635 48.5595 24.5896 51.6878 22.0006C52.3952 21.4152 52.736 20.277 52.225 19.2821C51.8231 18.4998 50.7851 17.8974 49.7643 18.3752C49.081 18.695 48.8485 19.3173 47.2636 19.4539C46.2362 19.5425 45.1919 19.048 44.5622 18.3998C43.8822 17.6999 43.4863 16.8796 43.463 15.8308C43.4143 13.641 45.0633 12.0597 47.0683 12.0091C47.8532 11.9892 48.623 12.2475 49.2109 12.7314C49.4003 12.8873 49.5336 13.0554 49.6853 13.1995C49.8829 13.3872 50.1574 13.2698 50.2166 13.0408C50.3715 12.4407 48.1183 10.6722 45.7353 11.5331C44.8603 11.8492 44.1868 12.341 43.6414 13.0949C43.0811 13.8696 42.7248 14.9176 42.8166 16.0561C42.8614 16.6122 43.0483 17.365 43.3115 17.8225C43.4649 18.0893 43.6943 18.4549 43.8835 18.673C45.2657 20.2657 47.4303 20.6043 49.1865 19.5882C49.5647 19.3694 49.8703 19.0077 50.3209 18.9357C51.3612 18.7693 52.1602 19.9031 51.6541 20.9594C51.2133 21.8796 49.149 22.7168 48.1479 22.8664C45.9168 23.2 44.121 22.5144 42.6231 21.2017C41.4304 20.1565 40.301 18.2063 40.2317 16.2193C40.1585 14.1235 40.6585 12.5583 41.8653 11.0351C41.9647 10.9096 42.2507 10.6236 42.295 10.53C42.3447 10.502 42.3186 10.5201 42.3668 10.4838L42.7814 10.113C44.9458 8.3466 47.7603 8.00253 50.2396 9.36522C50.5832 9.5541 51.0302 9.84769 51.3361 10.122C51.7781 10.5184 51.2819 11.2775 50.7859 10.9665C50.399 10.7238 50.3376 10.5634 49.6964 10.2313C46.5542 8.60394 42.8367 10.0966 41.5461 13.5722C41.0067 14.956 41.0697 16.7908 41.6843 18.2135L41.6817 18.2173C41.7035 18.2669 41.7259 18.3162 41.7489 18.3652C41.7712 18.4174 41.7936 18.468 41.8115 18.4998C41.8183 18.512 41.8246 18.5229 41.8304 18.5328C41.96 18.7902 42.1059 19.0385 42.2674 19.2784C42.2753 19.3227 42.3097 19.3539 42.4172 19.499C43.0991 20.4194 44.1679 21.2674 45.2298 21.602C45.5246 21.6949 46.6796 22.0438 46.9184 21.8139C47.1446 21.596 47.0202 21.2523 46.7021 21.197C45.7965 21.0397 45.3639 21.032 44.433 20.4563C43.7293 20.0211 43.2458 19.503 42.7673 18.8391C42.558 18.5069 42.3467 18.0773 42.1379 17.5325L42.1375 17.5332C42.0378 17.2437 41.9626 16.9427 41.8964 16.5557C41.7415 15.6504 41.9037 15.1269 42.0062 14.2586C42.1237 14.0527 42.1792 13.7572 42.2804 13.5112C42.3759 13.2789 42.5093 13.0236 42.6359 12.8211C43.427 11.5549 44.6326 10.6463 46.1084 10.3663C47.4548 10.1108 48.9821 10.4568 50.0585 11.2791C50.2385 11.4166 50.4312 11.5975 50.6784 11.6864C51.7636 12.0769 52.7075 10.5848 51.8171 9.63473C51.5487 9.34838 50.9612 8.97335 50.6274 8.78112C48.159 7.35957 45.3175 7.58394 42.9726 9.09499C42.714 9.26161 42.0527 9.78011 41.8833 10.0176H41.8833ZM50.4334 19.9875C50.2567 20.0441 49.7334 20.5317 49.0006 20.8245C48.8343 20.891 48.275 21.0544 48.1934 21.1298C47.9364 21.3673 48.1273 21.7852 48.5105 21.7301C48.7244 21.6993 49.1266 21.5309 49.3349 21.4421C49.593 21.3321 49.8308 21.1942 50.0702 21.0541C50.2663 20.9394 50.5916 20.7248 50.7382 20.5791C50.9987 20.3203 50.7853 19.8748 50.4334 19.9875L50.4334 19.9875Z"
        fill="#00C637" />
</svg>
    