<svg width="132" height="40" viewBox="0 0 132 40" fill="none" xmlns="http://www.w3.org/2000/svg">
    <mask id="mask0_1_7379" style="mask-type:luminance" maskUnits="userSpaceOnUse" x="0" y="0"
        width="132" height="40">
        <path fill-rule="evenodd" clip-rule="evenodd" d="M0 0H131.827V39.0599H0V0Z" fill="white" />
    </mask>
    <g mask="url(#mask0_1_7379)">
        <path fill-rule="evenodd" clip-rule="evenodd"
            d="M126.945 39.0599H4.88249C2.1483 39.0599 0 36.9116 0 34.1774V4.88249C0 2.1483 2.1483 0 4.88249 0H126.945C129.679 0 131.827 2.1483 131.827 4.88249V34.1774C131.827 36.9116 129.679 39.0599 126.945 39.0599Z"
            fill="black" />
    </g>
    <path fill-rule="evenodd" clip-rule="evenodd"
        d="M73.823 12.6945V6.83549H74.7019L77.5337 11.425V6.83549H78.3149V12.6945H77.5337L74.5066 7.90964V12.6945H73.823ZM68.1593 11.4251C68.5499 11.8157 69.1358 12.1087 69.7217 12.1087C70.3076 12.1087 70.8935 11.9134 71.2841 11.4251C71.6747 11.0345 71.9677 10.4486 71.9677 9.76508C71.9677 9.08153 71.7724 8.49563 71.2841 8.10503C70.8935 7.71443 70.3076 7.42148 69.7217 7.42148C69.1358 7.42148 68.5499 7.61678 68.1593 8.10503C67.7687 8.49563 67.4758 9.08153 67.4758 9.76508C67.4758 10.4486 67.6711 11.0345 68.1593 11.4251ZM71.87 11.9133C71.2841 12.4992 70.6006 12.7922 69.7217 12.7922C68.8429 12.7922 68.1593 12.4992 67.5734 11.9133C66.9875 11.3274 66.6946 10.6439 66.6946 9.76505C66.6946 8.8862 66.9875 8.20265 67.5734 7.61675C68.1593 7.03085 68.8429 6.7379 69.7217 6.7379C70.6006 6.7379 71.2841 7.03085 71.87 7.61675C72.4559 8.20265 72.7489 8.8862 72.7489 9.76505C72.7489 10.6439 72.4559 11.3274 71.87 11.9133ZM62.5933 12.6945H61.8121V7.51904H60.152V6.83549H64.1557V7.51904H62.4956V12.6945H62.5933ZM58.492 12.6945H59.2732V6.83549H58.492V12.6945ZM54.0001 12.6945H53.2189V7.51904H51.5589V6.83549H55.6602V7.51904H54.0001V12.6945ZM50.7777 7.51904H48.1411V9.37438H50.5824V10.0579H48.1411V11.9133H50.7777V12.6945H47.3599V6.83549H50.7777V7.51904ZM46.2857 9.96024C46.2857 10.7414 46.0904 11.425 45.6022 11.9132C45.0163 12.4991 44.3328 12.7921 43.4539 12.7921C42.5751 12.7921 41.8915 12.4991 41.3056 11.9132C40.7197 11.3273 40.4268 10.6438 40.4268 9.76494C40.4268 8.88609 40.7197 8.20254 41.3056 7.61664C41.8915 7.03074 42.5751 6.73779 43.4539 6.73779C43.8445 6.73779 44.2351 6.83544 44.6257 7.03074C45.0163 7.22604 45.3092 7.42134 45.5045 7.71429L45.0163 8.20254C44.6257 7.71429 44.1375 7.51899 43.4539 7.51899C42.868 7.51899 42.2821 7.71429 41.8915 8.20254C41.4033 8.59314 41.208 9.17904 41.208 9.86259C41.208 10.5461 41.4033 11.132 41.8915 11.5226C42.3798 11.9132 42.868 12.2062 43.4539 12.2062C44.1375 12.2062 44.6257 12.0109 45.1139 11.5226C45.4069 11.2297 45.6022 10.8391 45.6022 10.3508H43.4539V9.56964H46.2857V9.96024Z"
        fill="white" />
    <path
        d="M73.823 12.6945H73.8054V12.7121H73.823V12.6945ZM73.823 6.83549V6.81791H73.8054V6.83549H73.823ZM74.7019 6.83549L74.7168 6.82626L74.7117 6.81791H74.7019V6.83549ZM77.5337 11.425L77.5188 11.4343L77.5513 11.487V11.425H77.5337ZM77.5337 6.83549V6.81791H77.5161V6.83549H77.5337ZM78.3149 6.83549H78.3325V6.81791H78.3149V6.83549ZM78.3149 12.6945V12.7121H78.3325V12.6945H78.3149ZM77.5337 12.6945L77.5189 12.7039L77.524 12.7121H77.5337V12.6945ZM74.5066 7.90964L74.5214 7.90024L74.489 7.84898V7.90964H74.5066ZM74.5066 12.6945V12.7121H74.5241V12.6945H74.5066ZM68.1593 11.4251L68.1718 11.4126L68.1703 11.4114L68.1593 11.4251ZM71.2841 11.4251L71.2716 11.4126L71.2704 11.4141L71.2841 11.4251ZM71.2841 8.10503L71.2716 8.11754L71.2731 8.11876L71.2841 8.10503ZM68.1593 8.10503L68.1718 8.11754L68.1731 8.11601L68.1593 8.10503ZM61.8121 12.6945H61.7945V12.7121H61.8121V12.6945ZM61.8121 7.51904H61.8297V7.50146H61.8121V7.51904ZM60.152 7.51904H60.1345V7.53661H60.152V7.51904ZM60.152 6.83549V6.81791H60.1345V6.83549H60.152ZM64.1557 6.83549H64.1733V6.81791H64.1557V6.83549ZM64.1557 7.51904V7.53661H64.1733V7.51904H64.1557ZM62.4956 7.51904V7.50146H62.4781V7.51904H62.4956ZM62.4956 12.6945H62.4781V12.7121H62.4956V12.6945ZM58.492 12.6945H58.4744V12.7121H58.492V12.6945ZM59.2732 12.6945V12.7121H59.2908V12.6945H59.2732ZM59.2732 6.83549H59.2908V6.81791H59.2732V6.83549ZM58.492 6.83549V6.81791H58.4744V6.83549H58.492ZM54.0001 12.6945V12.7121H54.0177V12.6945H54.0001ZM53.2189 12.6945H53.2013V12.7121H53.2189V12.6945ZM53.2189 7.51904H53.2365V7.50146H53.2189V7.51904ZM51.5589 7.51904H51.5413V7.53661H51.5589V7.51904ZM51.5589 6.83549V6.81791H51.5413V6.83549H51.5589ZM55.6602 6.83549H55.6777V6.81791H55.6602V6.83549ZM55.6602 7.51904V7.53661H55.6777V7.51904H55.6602ZM54.0001 7.51904V7.50146H53.9825V7.51904H54.0001ZM50.7777 7.51904V7.53661H50.7952V7.51904H50.7777ZM48.1411 7.51904V7.50146H48.1235V7.51904H48.1411ZM48.1411 9.37438H48.1235V9.39196H48.1411V9.37438ZM50.5824 9.37438H50.5999V9.35681H50.5824V9.37438ZM50.5824 10.0579V10.0755H50.5999V10.0579H50.5824ZM48.1411 10.0579V10.0404H48.1235V10.0579H48.1411ZM48.1411 11.9133H48.1235V11.9309H48.1411V11.9133ZM50.7777 11.9133H50.7952V11.8957H50.7777V11.9133ZM50.7777 12.6945V12.7121H50.7952V12.6945H50.7777ZM47.3599 12.6945H47.3423V12.7121H47.3599V12.6945ZM47.3599 6.83549V6.81791H47.3423V6.83549H47.3599ZM50.7777 6.83549H50.7952V6.81791H50.7777V6.83549ZM45.5045 7.71429L45.517 7.72672L45.5272 7.71653L45.5192 7.70454L45.5045 7.71429ZM45.0163 8.20254L45.0026 8.21352L45.0148 8.22886L45.0287 8.21497L45.0163 8.20254ZM41.8915 8.20254L41.9028 8.21661L41.9052 8.21352L41.8915 8.20254ZM45.6022 10.3508H45.6198V10.3333H45.6022V10.3508ZM43.4539 10.3508H43.4363V10.3684H43.4539V10.3508ZM43.4539 9.56964V9.55206H43.4363V9.56964H43.4539ZM46.2857 9.56964H46.3033V9.55206H46.2857V9.56964ZM73.8406 12.6945V6.83549H73.8054V12.6945H73.8406ZM73.823 6.85306H74.7019V6.81791H73.823V6.85306ZM74.6869 6.84472L77.5188 11.4343L77.5487 11.4158L74.7168 6.82626L74.6869 6.84472ZM77.5513 11.425V6.83549H77.5161V11.425H77.5513ZM77.5337 6.85306H78.3149V6.81791H77.5337V6.85306ZM78.2973 6.83549V12.6945H78.3325V6.83549H78.2973ZM78.3149 12.6769H77.5337V12.7121H78.3149V12.6769ZM77.5486 12.6851L74.5214 7.90024L74.4917 7.91903L77.5189 12.7039L77.5486 12.6851ZM74.489 7.90964V12.6945H74.5241V7.90964H74.489ZM74.5066 12.6769H73.823V12.7121H74.5066V12.6769ZM68.1469 11.4376C68.5402 11.8308 69.1303 12.1263 69.7217 12.1263V12.0911C69.1413 12.0911 68.5597 11.8006 68.1718 11.4127L68.1469 11.4376ZM69.7217 12.1263C70.3113 12.1263 70.903 11.9297 71.2978 11.4361L71.2704 11.4141C70.884 11.8971 70.3039 12.0911 69.7217 12.0911V12.1263ZM71.2966 11.4376C71.6901 11.044 71.9852 10.4537 71.9852 9.76508H71.9501C71.9501 10.4435 71.6593 11.0251 71.2717 11.4127L71.2966 11.4376ZM71.9852 9.76508C71.9852 9.07829 71.7889 8.48636 71.2951 8.09131L71.2731 8.11876C71.7558 8.5049 71.9501 9.08477 71.9501 9.76508H71.9852ZM71.2966 8.0926C70.9033 7.69934 70.3131 7.4039 69.7217 7.4039V7.43906C70.3021 7.43906 70.8838 7.72952 71.2717 8.11746L71.2966 8.0926ZM69.7217 7.4039C69.1321 7.4039 68.5404 7.6005 68.1456 8.09405L68.1731 8.11601C68.5594 7.63307 69.1395 7.43906 69.7217 7.43906V7.4039ZM68.1469 8.0926C67.7533 8.48618 67.4582 9.07643 67.4582 9.76508H67.4934C67.4934 9.08662 67.7841 8.50508 68.1718 8.11746L68.1469 8.0926ZM67.4582 9.76508C67.4582 10.4519 67.6545 11.0438 68.1483 11.4388L68.1703 11.4114C67.6876 11.0253 67.4934 10.4454 67.4934 9.76508H67.4582ZM71.8576 11.9009C71.275 12.4835 70.5959 12.7746 69.7217 12.7746V12.8098C70.6052 12.8098 71.2933 12.515 71.8825 11.9258L71.8576 11.9009ZM69.7217 12.7746C68.8475 12.7746 68.1685 12.4835 67.5859 11.9009L67.561 11.9258C68.1502 12.515 68.8382 12.8098 69.7217 12.8098V12.7746ZM67.5859 11.9009C67.0033 11.3183 66.7122 10.6392 66.7122 9.76505H66.677C66.677 10.6485 66.9718 11.3366 67.561 11.9258L67.5859 11.9009ZM66.7122 9.76505C66.7122 8.89085 67.0033 8.21177 67.5859 7.62918L67.561 7.60432C66.9718 8.19352 66.677 8.88155 66.677 9.76505H66.7122ZM67.5859 7.62918C68.1685 7.04658 68.8475 6.75548 69.7217 6.75548V6.72032C68.8382 6.72032 68.1502 7.01512 67.561 7.60432L67.5859 7.62918ZM69.7217 6.75548C70.5959 6.75548 71.275 7.04658 71.8576 7.62918L71.8825 7.60432C71.2933 7.01512 70.6052 6.72032 69.7217 6.72032V6.75548ZM71.8576 7.62918C72.4402 8.21177 72.7313 8.89085 72.7313 9.76505H72.7665C72.7665 8.88155 72.4717 8.19352 71.8825 7.60432L71.8576 7.62918ZM72.7313 9.76505C72.7313 10.6392 72.4402 11.3183 71.8576 11.9009L71.8825 11.9258C72.4717 11.3366 72.7665 10.6485 72.7665 9.76505H72.7313ZM62.5933 12.6769H61.8121V12.7121H62.5933V12.6769ZM61.8297 12.6945V7.51904H61.7945V12.6945H61.8297ZM61.8121 7.50146H60.152V7.53661H61.8121V7.50146ZM60.1696 7.51904V6.83549H60.1345V7.51904H60.1696ZM60.152 6.85306H64.1557V6.81791H60.152V6.85306ZM64.1381 6.83549V7.51904H64.1733V6.83549H64.1381ZM64.1557 7.50146H62.4956V7.53661H64.1557V7.50146ZM62.4781 7.51904V12.6945H62.5132V7.51904H62.4781ZM62.4956 12.7121H62.5933V12.6769H62.4956V12.7121ZM58.492 12.7121H59.2732V12.6769H58.492V12.7121ZM59.2908 12.6945V6.83549H59.2556V12.6945H59.2908ZM59.2732 6.81791H58.492V6.85306H59.2732V6.81791ZM58.4744 6.83549V12.6945H58.5096V6.83549H58.4744ZM54.0001 12.6769H53.2189V12.7121H54.0001V12.6769ZM53.2365 12.6945V7.51904H53.2013V12.6945H53.2365ZM53.2189 7.50146H51.5589V7.53661H53.2189V7.50146ZM51.5764 7.51904V6.83549H51.5413V7.51904H51.5764ZM51.5589 6.85306H55.6602V6.81791H51.5589V6.85306ZM55.6426 6.83549V7.51904H55.6777V6.83549H55.6426ZM55.6602 7.50146H54.0001V7.53661H55.6602V7.50146ZM53.9825 7.51904V12.6945H54.0177V7.51904H53.9825ZM50.7777 7.50146H48.1411V7.53661H50.7777V7.50146ZM48.1235 7.51904V9.37438H48.1587V7.51904H48.1235ZM48.1411 9.39196H50.5824V9.35681H48.1411V9.39196ZM50.5648 9.37438V10.0579H50.5999V9.37438H50.5648ZM50.5824 10.0404H48.1411V10.0755H50.5824V10.0404ZM48.1235 10.0579V11.9133H48.1587V10.0579H48.1235ZM48.1411 11.9309H50.7777V11.8957H48.1411V11.9309ZM50.7601 11.9133V12.6945H50.7952V11.9133H50.7601ZM50.7777 12.6769H47.3599V12.7121H50.7777V12.6769ZM47.3775 12.6945V6.83549H47.3423V12.6945H47.3775ZM47.3599 6.85306H50.7777V6.81791H47.3599V6.85306ZM50.7601 6.83549V7.51904H50.7952V6.83549H50.7601ZM46.2682 9.96024C46.2682 10.7387 46.0736 11.417 45.5898 11.9008L45.6146 11.9257C46.1073 11.433 46.3033 10.7441 46.3033 9.96024H46.2682ZM45.5898 11.9008C45.0072 12.4834 44.3281 12.7745 43.4539 12.7745V12.8097C44.3374 12.8097 45.0254 12.5149 45.6146 11.9257L45.5898 11.9008ZM43.4539 12.7745C42.5797 12.7745 41.9006 12.4834 41.318 11.9008L41.2932 11.9257C41.8824 12.5149 42.5704 12.8097 43.4539 12.8097V12.7745ZM41.318 11.9008C40.7354 11.3182 40.4443 10.6391 40.4443 9.76494H40.4092C40.4092 10.6484 40.704 11.3365 41.2932 11.9257L41.318 11.9008ZM40.4443 9.76494C40.4443 8.89074 40.7354 8.21167 41.318 7.62907L41.2932 7.60421C40.704 8.19341 40.4092 8.88144 40.4092 9.76494H40.4443ZM41.318 7.62907C41.9006 7.04647 42.5797 6.75537 43.4539 6.75537V6.72022C42.5704 6.72022 41.8824 7.01501 41.2932 7.60421L41.318 7.62907ZM43.4539 6.75537C43.8415 6.75537 44.2294 6.85224 44.6178 7.04646L44.6336 7.01502C44.2408 6.81865 43.8475 6.72022 43.4539 6.72022V6.75537ZM44.6178 7.04646C45.0077 7.24139 45.2972 7.435 45.4899 7.72404L45.5192 7.70454C45.3213 7.40768 45.0249 7.2107 44.6336 7.01502L44.6178 7.04646ZM45.4921 7.70186L45.0039 8.19011L45.0287 8.21497L45.517 7.72672L45.4921 7.70186ZM45.03 8.19156C44.6354 7.69831 44.1416 7.50141 43.4539 7.50141V7.53657C44.1333 7.53657 44.616 7.73028 45.0026 8.21352L45.03 8.19156ZM43.4539 7.50141C42.8643 7.50141 42.2726 7.69801 41.8778 8.19156L41.9052 8.21352C42.2916 7.73058 42.8717 7.53657 43.4539 7.53657V7.50141ZM41.8805 8.18881C41.3867 8.58387 41.1904 9.1758 41.1904 9.86259H41.2255C41.2255 9.18228 41.4198 8.60241 41.9025 8.21627L41.8805 8.18881ZM41.1904 9.86259C41.1904 10.5494 41.3867 11.1413 41.8805 11.5364L41.9025 11.5089C41.4198 11.1228 41.2255 10.5429 41.2255 9.86259H41.1904ZM41.8805 11.5364C42.3695 11.9275 42.8618 12.2238 43.4539 12.2238V12.1886C42.8742 12.1886 42.39 11.8989 41.9025 11.5089L41.8805 11.5364ZM43.4539 12.2238C43.7974 12.2238 44.0927 12.1747 44.3638 12.0638C44.6349 11.9529 44.881 11.7805 45.1264 11.5351L45.1015 11.5102C44.8587 11.753 44.6165 11.9224 44.3505 12.0312C44.0846 12.14 43.794 12.1886 43.4539 12.1886V12.2238ZM45.1264 11.5351C45.4223 11.2392 45.6198 10.8442 45.6198 10.3508H45.5846C45.5846 10.8339 45.3915 11.2202 45.1015 11.5102L45.1264 11.5351ZM45.6022 10.3333H43.4539V10.3684H45.6022V10.3333ZM43.4715 10.3508V9.56964H43.4363V10.3508H43.4715ZM43.4539 9.58721H46.2857V9.55206H43.4539V9.58721ZM46.2682 9.56964V9.96024H46.3033V9.56964H46.2682Z"
        fill="white" />
    <mask id="mask1_1_7379" style="mask-type:luminance" maskUnits="userSpaceOnUse" x="0" y="0"
        width="132" height="40">
        <path fill-rule="evenodd" clip-rule="evenodd" d="M0 39.0599H131.827V0H0V39.0599Z"
            fill="white" />
    </mask>
    <g mask="url(#mask1_1_7379)">
        <path fill-rule="evenodd" clip-rule="evenodd"
            d="M104.387 29.2952H106.243V17.089H104.387V29.2952ZM120.793 21.4832L118.742 26.7563H118.644L116.496 21.4832H114.543L117.765 28.9046L115.91 33.0059H117.765L122.746 21.4832H120.793ZM110.539 27.928C109.953 27.928 109.075 27.635 109.075 26.8538C109.075 25.8773 110.149 25.5844 111.028 25.5844C111.809 25.5844 112.199 25.7797 112.688 25.975C112.492 27.1468 111.516 27.928 110.539 27.928ZM110.735 21.1901C109.367 21.1901 108 21.776 107.512 23.0455L109.172 23.729C109.563 23.0455 110.149 22.8502 110.832 22.8502C111.809 22.8502 112.688 23.4361 112.785 24.4126V24.5102C112.492 24.3149 111.711 24.022 110.93 24.022C109.172 24.022 107.414 24.9985 107.414 26.7562C107.414 28.4162 108.879 29.4904 110.442 29.4904C111.711 29.4904 112.297 28.9045 112.785 28.3186H112.883V29.2951H114.641V24.6079C114.445 22.4596 112.785 21.1901 110.735 21.1901ZM99.5049 22.9478H96.8683V18.7489H99.5049C100.872 18.7489 101.653 19.9207 101.653 20.7995C101.556 21.8737 100.774 22.9478 99.5049 22.9478ZM99.4072 17.089H95.013V29.2952H96.8683V24.7056H99.4072C101.458 24.7056 103.411 23.2409 103.411 20.8973C103.411 18.5537 101.458 17.089 99.4072 17.089ZM75.5807 27.928C74.3112 27.928 73.2371 26.8538 73.2371 25.3891C73.2371 23.9244 74.3112 22.8502 75.5807 22.8502C76.8501 22.8502 77.8266 23.9244 77.8266 25.3891C77.8266 26.8538 76.8501 27.928 75.5807 27.928ZM77.7289 22.1666C77.2407 21.6784 76.4595 21.1901 75.483 21.1901C73.4324 21.1901 71.4794 23.0455 71.4794 25.3891C71.4794 27.7327 73.3347 29.4904 75.483 29.4904C76.4595 29.4904 77.2407 29.0021 77.6313 28.5139H77.7289V29.0998C77.7289 30.6622 76.8501 31.541 75.483 31.541C74.4089 31.541 73.6277 30.7598 73.4324 30.0763L71.87 30.7598C72.3582 31.834 73.53 33.2011 75.5807 33.2011C77.7289 33.2011 79.4866 31.9316 79.4866 28.9045V21.4831H77.7289V22.1666ZM80.6584 29.2952H82.5138V17.089H80.6584V29.2952ZM85.248 25.2915C85.248 23.7291 86.5174 22.8502 87.3963 22.8502C88.0798 22.8502 88.7634 23.2408 88.9587 23.7291L85.248 25.2915ZM90.9117 23.9244C90.5211 22.9479 89.5446 21.2879 87.3963 21.2879C85.248 21.2879 83.4903 22.9479 83.4903 25.4868C83.4903 27.8304 85.248 29.6858 87.5916 29.6858C89.4469 29.6858 90.6187 28.514 91.0093 27.8304L89.6422 26.8539C89.154 27.5375 88.5681 28.0257 87.5916 28.0257C86.6151 28.0257 86.0292 27.6351 85.5409 26.7563L91.107 24.4127L90.9117 23.9244ZM46.5787 22.5572V24.3149H50.7776C50.68 25.2914 50.2894 26.0726 49.8011 26.5609C49.2152 27.1468 48.2387 27.8303 46.5787 27.8303C43.9421 27.8303 41.9891 25.7797 41.9891 23.1431C41.9891 20.5066 44.0398 18.4559 46.5787 18.4559C47.9458 18.4559 49.0199 19.0418 49.8011 19.7254L51.0706 18.4559C49.9964 17.4794 48.6293 16.6982 46.6763 16.6982C43.1609 16.6982 40.1338 19.6277 40.1338 23.1431C40.1338 26.6585 43.1609 29.588 46.6763 29.588C48.6293 29.588 49.9964 29.0021 51.1682 27.7327C52.34 26.5609 52.7306 24.9008 52.7306 23.6314C52.7306 23.2408 52.7306 22.8502 52.633 22.5572H46.5787ZM57.4178 27.928C56.1483 27.928 55.0742 26.8538 55.0742 25.3891C55.0742 23.9244 56.1483 22.8502 57.4178 22.8502C58.6872 22.8502 59.7614 23.8267 59.7614 25.3891C59.7614 26.8538 58.6872 27.928 57.4178 27.928ZM57.4178 21.2879C55.0742 21.2879 53.2188 23.0456 53.2188 25.4868C53.2188 27.8304 55.0742 29.6858 57.4178 29.6858C59.7614 29.6858 61.6167 27.9281 61.6167 25.4868C61.6167 22.9479 59.7614 21.2879 57.4178 21.2879ZM66.4992 27.928C65.2298 27.928 64.1556 26.8538 64.1556 25.3891C64.1556 23.9244 65.2298 22.8502 66.4992 22.8502C67.7687 22.8502 68.8428 23.8267 68.8428 25.3891C68.8428 26.8538 67.7687 27.928 66.4992 27.928ZM66.4992 21.2879C64.1556 21.2879 62.3003 23.0456 62.3003 25.4868C62.3003 27.8304 64.1556 29.6858 66.4992 29.6858C68.8428 29.6858 70.6982 27.9281 70.6982 25.4868C70.6982 22.9479 68.8428 21.2879 66.4992 21.2879Z"
            fill="white" />
    </g>
    <mask id="mask2_1_7379" style="mask-type:luminance" maskUnits="userSpaceOnUse" x="9" y="7"
        width="14" height="25">
        <path fill-rule="evenodd" clip-rule="evenodd"
            d="M9.76465 8.69063V30.2712C9.76465 30.8573 9.95995 31.3454 10.2529 31.6383L10.3505 31.7362L22.4591 19.6276V19.4321L10.1552 7.32373C9.8623 7.61648 9.76465 8.10473 9.76465 8.69063Z"
            fill="white" />
    </mask>
    <g mask="url(#mask2_1_7379)">
        <path fill-rule="evenodd" clip-rule="evenodd"
            d="M9.76465 8.69063V30.2712C9.76465 30.8573 9.95995 31.3454 10.2529 31.6383L10.3505 31.7362L22.4591 19.6276V19.4321L10.1552 7.32373C9.8623 7.61648 9.76465 8.10473 9.76465 8.69063Z"
            fill="#32BBFF" />
    </g>
    <mask id="mask3_1_7379" style="mask-type:luminance" maskUnits="userSpaceOnUse" x="22" y="15"
        width="11" height="9">
        <path fill-rule="evenodd" clip-rule="evenodd"
            d="M22.3613 19.4325V19.7255L26.365 23.7291L31.2475 21.0926C32.6146 20.3114 32.6146 19.0419 31.2475 18.2606L26.4626 15.5266L26.365 15.4287L22.3613 19.4325Z"
            fill="white" />
    </mask>
    <g mask="url(#mask3_1_7379)">
        <path fill-rule="evenodd" clip-rule="evenodd"
            d="M22.3613 19.4325V19.7255L26.365 23.7291L31.2475 21.0926C32.6146 20.3114 32.6146 19.0419 31.2475 18.2606L26.4626 15.5266L26.365 15.4287L22.3613 19.4325Z"
            fill="#FFD500" />
    </g>
    <mask id="mask4_1_7379" style="mask-type:luminance" maskUnits="userSpaceOnUse" x="10" y="19"
        width="17" height="14">
        <path fill-rule="evenodd" clip-rule="evenodd"
            d="M10.1553 31.7362C10.6435 32.2243 11.3271 32.2243 12.2059 31.8337L26.4628 23.6311L22.3615 19.5298L10.1553 31.7362Z"
            fill="white" />
    </mask>
    <g mask="url(#mask4_1_7379)">
        <path fill-rule="evenodd" clip-rule="evenodd"
            d="M10.1553 31.7362C10.6435 32.2243 11.3271 32.2243 12.2059 31.8337L26.4628 23.6311L22.3615 19.5298L10.1553 31.7362Z"
            fill="url(#paint0_linear_1_7379)" />
    </g>
    <mask id="mask5_1_7379" style="mask-type:luminance" maskUnits="userSpaceOnUse" x="10" y="7"
        width="17" height="13">
        <path fill-rule="evenodd" clip-rule="evenodd"
            d="M10.1553 7.42146L22.3615 19.53L26.4628 15.4287L12.2059 7.324C11.8099 7.1039 11.4536 7.00293 11.137 7.00293C10.7507 7.00273 10.4236 7.15312 10.1553 7.42146Z"
            fill="white" />
    </mask>
    <g mask="url(#mask5_1_7379)">
        <path fill-rule="evenodd" clip-rule="evenodd"
            d="M10.1553 7.42146L22.3615 19.53L26.4628 15.4287L12.2059 7.324C11.8099 7.1039 11.4536 7.00293 11.137 7.00293C10.7507 7.00273 10.4236 7.15312 10.1553 7.42146Z"
            fill="#29CC5E" />
    </g>
    <path fill-rule="evenodd" clip-rule="evenodd"
        d="M26.3651 23.5337L12.2059 31.541C11.4247 32.0292 10.7412 31.9316 10.2529 31.541L10.1553 31.6386L10.2529 31.7363C10.7412 32.1269 11.4247 32.2245 12.2059 31.7363L26.3651 23.5337Z"
        fill="black" />
    <path fill-rule="evenodd" clip-rule="evenodd"
        d="M31.2476 20.7992L26.3651 23.5334L26.4628 23.6311L31.2476 20.8969C31.9312 20.5063 32.2241 20.018 32.2241 19.5298C32.2241 20.018 31.8335 20.4086 31.2476 20.7992ZM10.1552 31.5408C9.8623 31.2478 9.76465 30.7596 9.76465 30.1737V30.2713C9.76465 30.8572 9.95995 31.3455 10.2529 31.6384V31.5408H10.1552Z"
        fill="black" />
    <path fill-rule="evenodd" clip-rule="evenodd"
        d="M12.2059 7.42117L31.2476 18.2603C31.8335 18.6509 32.2241 19.0415 32.2241 19.5297C32.2241 19.0415 31.9312 18.5533 31.2476 18.1627L12.2059 7.32352C10.8388 6.54232 9.76465 7.12822 9.76465 8.69062V8.78827C9.76465 7.32352 10.8388 6.63997 12.2059 7.42117Z"
        fill="white" />
    <defs>
        <linearGradient id="paint0_linear_1_7379" x1="9.83447" y1="13.185" x2="-5.75555" y2="39.359"
            gradientUnits="userSpaceOnUse">
            <stop stop-color="#FF3A44" />
            <stop offset="1" stop-color="#C31162" />
        </linearGradient>
    </defs>
</svg>
    