<svg width="40" height="40" viewBox="0 0 40 40" fill="none" xmlns="http://www.w3.org/2000/svg">
<circle cx="20" cy="20" r="20" fill="#F1ECF4"/>
<g clip-path="url(#clip0_1_7535)">
<path d="M21.8909 22.5082C21.9628 21.9062 22.1869 21.3325 22.542 20.8412H19.1851V19.1745H25.8468C26.4215 19.1781 26.9891 19.3037 27.5124 19.5415V12.5107C27.5124 12.0683 27.3366 11.6441 27.0239 11.3313C26.7111 11.0185 26.2868 10.8428 25.8445 10.8428H12.5136C12.0712 10.8428 11.647 11.0185 11.3342 11.3313C11.0214 11.6441 10.8457 12.0683 10.8457 12.5107V24.1749C10.8457 24.6172 11.0214 25.0415 11.3342 25.3543C11.647 25.6671 12.0712 25.8428 12.5136 25.8428H20.8443V25.1753C20.8492 24.83 20.9253 24.4894 21.0679 24.1748H15.8448V22.5081L21.8909 22.5082ZM25.8443 17.5075H19.1826V15.8408H25.8443V17.5075ZM15.8448 12.5084H25.8443V14.175H15.8448V12.5084ZM14.1687 24.1748H12.502V22.5082H14.1687V24.1748ZM14.1687 14.175H12.502V12.5084H14.1687V14.175ZM15.8399 15.8409H17.5065V17.5075H15.8399V15.8409ZM15.8424 20.8412V19.1746H17.509V20.8412H15.8424ZM28.1777 24.1754V22.9254C28.1125 22.3522 27.8387 21.8229 27.4083 21.4387C26.978 21.0544 26.4213 20.8421 25.8443 20.8421C25.2674 20.8421 24.7106 21.0544 24.2803 21.4387C23.8499 21.8229 23.5761 22.3522 23.511 22.9254V24.1754C23.2516 24.193 23.0073 24.304 22.8235 24.4879C22.6396 24.6717 22.5286 24.916 22.511 25.1754V28.0921C22.512 28.365 22.6152 28.6276 22.8003 28.8282C22.9855 29.0287 23.239 29.1526 23.511 29.1754H28.0943C28.3672 29.1744 28.6299 29.0712 28.8304 28.886C29.031 28.7009 29.1549 28.4474 29.1777 28.1754V25.2587C29.1767 24.9858 29.0734 24.7232 28.8883 24.5226C28.7032 24.3221 28.4496 24.1982 28.1777 24.1754ZM27.0943 24.1754H24.5943V22.9254C24.602 22.7711 24.6409 22.6199 24.7086 22.4809C24.7763 22.342 24.8714 22.2182 24.9882 22.117C25.1049 22.0158 25.241 21.9393 25.3881 21.892C25.5353 21.8448 25.6904 21.8278 25.8443 21.8421C25.9982 21.8278 26.1534 21.8448 26.3005 21.892C26.4476 21.9393 26.5837 22.0158 26.7005 22.117C26.8172 22.2182 26.9123 22.342 26.98 22.481C27.0477 22.6199 27.0866 22.7711 27.0943 22.9254V24.1754Z" fill="#051070"/>
</g>
<defs>
<clipPath id="clip0_1_7535">
<rect width="20" height="20" fill="white" transform="translate(10 10)"/>
</clipPath>
</defs>
</svg>
