<svg width="24" height="25" viewBox="0 0 24 25" fill="none" xmlns="http://www.w3.org/2000/svg">
<path d="M8 20.5L7.64645 20.8536L8 21.2071L8.35355 20.8536L8 20.5ZM8 12.5L7.5 12.5L8 12.5ZM10 11C10.2761 11 10.5 10.7761 10.5 10.5C10.5 10.2239 10.2761 10 10 10L10 11ZM3.64645 16.8536L7.64645 20.8536L8.35355 20.1464L4.35355 16.1464L3.64645 16.8536ZM8.35355 20.8536L12.3536 16.8536L11.6464 16.1464L7.64645 20.1464L8.35355 20.8536ZM8.5 20.5L8.5 12.5L7.5 12.5L7.5 20.5L8.5 20.5ZM8.5 12.5C8.5 11.6716 9.17157 11 10 11L10 10C8.61929 10 7.5 11.1193 7.5 12.5L8.5 12.5Z" fill="#051070"/>
<path d="M16 4.5L15.6464 4.14645L16 3.79289L16.3536 4.14645L16 4.5ZM16 12.5L16.5 12.5L16 12.5ZM14 15C13.7239 15 13.5 14.7761 13.5 14.5C13.5 14.2239 13.7239 14 14 14L14 15ZM11.6464 8.14645L15.6464 4.14645L16.3536 4.85355L12.3536 8.85355L11.6464 8.14645ZM16.3536 4.14645L20.3536 8.14645L19.6464 8.85355L15.6464 4.85355L16.3536 4.14645ZM16.5 4.5L16.5 12.5L15.5 12.5L15.5 4.5L16.5 4.5ZM16.5 12.5C16.5 13.8807 15.3807 15 14 15L14 14C14.8284 14 15.5 13.3284 15.5 12.5L16.5 12.5Z" fill="#051070"/>
</svg>
