<svg width="159" height="10" viewBox="0 0 159 10" fill="none" xmlns="http://www.w3.org/2000/svg">
<path d="M34.6102 2.02824C49.7135 1.73583 64.8251 1.54786 79.9366 1.46431C95.0481 1.38077 110.02 1.40862 125.057 1.5409C133.6 1.61748 142.15 1.72191 150.693 1.86115L151.852 0.433931C132.35 0.719375 112.856 1.07444 93.3627 1.49912C73.869 1.92381 54.3752 2.41811 34.8815 2.989C23.9384 3.30926 13.0035 3.64343 2.06039 4.00546C1.41909 4.02635 0.457152 4.16559 0.0953964 4.6947C-0.241694 5.18901 0.383157 5.4466 0.901126 5.43268C21.217 4.99407 41.5494 4.9523 61.8735 5.31432C82.1976 5.67635 102.505 6.44914 122.788 7.61876C134.184 8.27319 145.571 9.05991 156.941 9.97193C157.558 10.0207 158.577 9.76307 158.906 9.28269C159.268 8.76054 158.594 8.57952 158.101 8.54471C137.867 6.92256 117.584 5.69724 97.2845 4.87572C76.985 4.05419 56.6527 3.64343 36.3286 3.63647C24.9086 3.63647 13.4886 3.75483 2.06861 4.00546L0.909348 5.43268C20.3948 4.78521 39.8886 4.21432 59.3823 3.70609C78.876 3.20482 98.3697 2.76622 117.863 2.40419C128.807 2.20229 139.758 2.01432 150.701 1.85419C151.342 1.84723 152.312 1.6871 152.666 1.16495C153.02 0.642792 152.37 0.433931 151.86 0.426969C136.741 0.19026 121.637 0.0440566 106.526 0.00924636C91.4141 -0.0255639 76.4424 0.0370945 61.4048 0.211146C52.8624 0.308614 44.3119 0.440893 35.7695 0.607982C35.1282 0.621906 34.158 0.775071 33.8045 1.29722C33.4674 1.79153 34.0922 2.04913 34.6102 2.0352V2.02824Z" fill="#26B403"/>
</svg>
