<svg width="40" height="40" viewBox="0 0 40 40" fill="none" xmlns="http://www.w3.org/2000/svg">
    <circle cx="20" cy="20" r="20" fill="#F1ECF4" />
    <path
        d="M28.5977 13.2686L21.0977 10.1436C20.8692 10.0488 20.6243 10 20.377 10C20.1296 10 19.8847 10.0488 19.6562 10.1436L12.1562 13.2686C11.457 13.5576 11 14.2412 11 14.999C11 22.7529 15.4727 28.1123 19.6523 29.8545C20.1133 30.0459 20.6328 30.0459 21.0938 29.8545C24.4414 28.46 29.75 23.6436 29.75 14.999C29.75 14.2412 29.293 13.5576 28.5977 13.2686ZM20.3789 27.4326L20.375 12.5498L27.2461 15.4131C27.1172 21.3272 24.0391 25.6123 20.3789 27.4326Z"
        fill="#051070" />
</svg>
    