<svg width="20" height="20" viewBox="0 0 20 20" fill="none" xmlns="http://www.w3.org/2000/svg">
<g clip-path="url(#clip0_1_7537)">
<path d="M11.8909 12.5082C11.9628 11.9062 12.1869 11.3325 12.542 10.8412H9.1851V9.17452H15.8468C16.4215 9.17807 16.9891 9.30367 17.5124 9.54151V2.51067C17.5124 2.06832 17.3366 1.64408 17.0239 1.33129C16.7111 1.0185 16.2868 0.842778 15.8445 0.842773H2.51359C2.07125 0.842782 1.64702 1.01851 1.33423 1.3313C1.02144 1.64409 0.845712 2.06832 0.845703 2.51067V14.1749C0.845705 14.6172 1.02143 15.0415 1.33422 15.3543C1.64701 15.6671 2.07124 15.8428 2.51359 15.8428H10.8443V15.1753C10.8492 14.83 10.9253 14.4894 11.0679 14.1748H5.84484V12.5081L11.8909 12.5082ZM15.8443 7.50751H9.1826V5.84084H15.8443V7.50751ZM5.84484 2.50837H15.8443V4.17504H5.84484V2.50837ZM4.1687 14.1748H2.50204V12.5082H4.1687V14.1748ZM4.1687 4.17504H2.50204V2.50837H4.1687V4.17504ZM5.83985 5.84087H7.50652V7.50754H5.83985V5.84087ZM5.84235 10.8412V9.17456H7.50902V10.8412H5.84235ZM18.1777 14.1754V12.9254C18.1125 12.3522 17.8387 11.8229 17.4083 11.4387C16.978 11.0544 16.4213 10.8421 15.8443 10.8421C15.2674 10.8421 14.7106 11.0544 14.2803 11.4387C13.8499 11.8229 13.5761 12.3522 13.511 12.9254V14.1754C13.2516 14.193 13.0073 14.304 12.8235 14.4879C12.6396 14.6717 12.5286 14.916 12.511 15.1754V18.0921C12.512 18.365 12.6152 18.6276 12.8003 18.8282C12.9855 19.0287 13.239 19.1526 13.511 19.1754H18.0943C18.3672 19.1744 18.6299 19.0712 18.8304 18.886C19.031 18.7009 19.1549 18.4474 19.1777 18.1754V15.2587C19.1767 14.9858 19.0734 14.7232 18.8883 14.5226C18.7032 14.3221 18.4496 14.1982 18.1777 14.1754ZM17.0943 14.1754H14.5943V12.9254C14.602 12.7711 14.6409 12.6199 14.7086 12.4809C14.7763 12.342 14.8714 12.2182 14.9882 12.117C15.1049 12.0158 15.241 11.9393 15.3881 11.892C15.5353 11.8448 15.6904 11.8278 15.8443 11.8421C15.9982 11.8278 16.1534 11.8448 16.3005 11.892C16.4476 11.9393 16.5837 12.0158 16.7005 12.117C16.8172 12.2182 16.9123 12.342 16.98 12.481C17.0477 12.6199 17.0866 12.7711 17.0943 12.9254V14.1754Z" fill="#051070"/>
</g>
<defs>
<clipPath id="clip0_1_7537">
<rect width="20" height="20" fill="white"/>
</clipPath>
</defs>
</svg>
