<svg width="14" height="18" viewBox="0 0 14 18" fill="none" xmlns="http://www.w3.org/2000/svg">
    <path fill-rule="evenodd" clip-rule="evenodd"
        d="M2.88334 2.5494C2.71193 2.66556 2.19918 3.36667 2.03105 3.62817C-0.0922826 6.93097 0.105831 11.2741 2.40575 14.3511C4.9477 17.752 9.55946 18.3214 12.6878 15.5193C13.3952 14.8857 13.736 13.6537 13.225 12.5769C12.8231 11.7301 11.7851 11.0781 10.7643 11.5952C10.081 11.9414 9.84847 12.6149 8.26361 12.7628C7.23625 12.8587 6.19194 12.3235 5.56221 11.6219C4.88218 10.8643 4.48627 9.9765 4.46296 8.84133C4.41432 6.47122 6.06334 4.75971 8.06827 4.70485C8.85319 4.68337 9.62298 4.96296 10.2109 5.48671C10.4003 5.6554 10.5336 5.83737 10.6853 5.99333C10.8829 6.19653 11.1574 6.0694 11.2166 5.82155C11.3715 5.17202 9.11829 3.25792 6.73534 4.18968C5.86034 4.53181 5.18678 5.06412 4.64143 5.88009C4.08106 6.71857 3.7248 7.8529 3.8166 9.08514C3.86145 9.68702 4.0483 10.5019 4.31148 10.9971C4.46493 11.2858 4.69431 11.6816 4.88354 11.9176C6.26573 13.6415 8.43027 14.0079 10.1865 12.9082C10.5647 12.6713 10.8703 12.2799 11.3209 12.2019C12.3612 12.0218 13.1602 13.249 12.6541 14.3923C12.2133 15.3883 10.149 16.2944 9.14787 16.4564C6.91683 16.8174 5.12096 16.0754 3.62306 14.6546C2.43036 13.5233 1.30105 11.4124 1.23168 9.26178C1.15854 6.99344 1.65855 5.29929 2.8653 3.65067C2.96474 3.51481 3.25069 3.20534 3.295 3.10402C3.34472 3.07372 3.31859 3.09324 3.36676 3.05397L3.78136 2.65263C5.94577 0.740776 8.76026 0.368373 11.2396 1.84328C11.5832 2.04772 12.0302 2.36549 12.3361 2.6624C12.7781 3.09143 12.2819 3.91305 11.7859 3.57641C11.399 3.31379 11.3376 3.14019 10.6964 2.78074C7.55416 1.01932 3.83667 2.63492 2.54607 6.39674C2.00673 7.89449 2.06974 9.88037 2.68426 11.4202L2.68169 11.4244C2.7035 11.4781 2.7259 11.5314 2.74888 11.5844C2.77115 11.6409 2.79359 11.6957 2.81148 11.7301C2.81834 11.7433 2.82459 11.7551 2.83041 11.7658C2.96003 12.0444 3.10593 12.3132 3.26736 12.5729C3.27526 12.6208 3.30971 12.6546 3.41717 12.8116C4.09908 13.8078 5.1679 14.7256 6.22977 15.0878C6.52457 15.1884 7.67956 15.566 7.91836 15.3171C8.14458 15.0814 8.02018 14.7093 7.70208 14.6495C6.79647 14.4792 6.36388 14.4709 5.43295 13.8477C4.72928 13.3767 4.24582 12.8159 3.76727 12.0974C3.55796 11.7379 3.34669 11.2728 3.13792 10.6832L3.13749 10.6839C3.03777 10.3706 2.96257 10.0448 2.89638 9.6259C2.74155 8.64602 2.90368 8.07946 3.00615 7.1397C3.12373 6.91679 3.17922 6.59693 3.28037 6.33071C3.3759 6.07928 3.50933 5.80299 3.63586 5.5838C4.42704 4.2133 5.6326 3.22985 7.10836 2.92678C8.4548 2.65026 9.98212 3.02479 11.0585 3.91479C11.2385 4.06361 11.4312 4.25938 11.6784 4.35567C12.7636 4.77826 13.7075 3.16325 12.8171 2.135C12.5487 1.82506 11.9612 1.41915 11.6274 1.21108C9.15903 -0.327538 6.31747 -0.0846858 3.97262 1.5508C3.71403 1.73115 3.05267 2.29234 2.88327 2.5494H2.88334ZM11.4334 13.3404C11.2567 13.4016 10.7334 13.9293 10.0006 14.2463C9.83428 14.3183 9.275 14.4951 9.19344 14.5767C8.93639 14.8338 9.12733 15.2861 9.51055 15.2264C9.72443 15.1931 10.1266 15.0108 10.3349 14.9147C10.593 14.7957 10.8308 14.6464 11.0702 14.4948C11.2663 14.3706 11.5916 14.1383 11.7382 13.9807C11.9987 13.7006 11.7853 13.2183 11.4334 13.3404L11.4334 13.3404Z"
        fill="#00C637" />
</svg>
    