<svg width="200" height="220" viewBox="0 0 320 344" fill="none" xmlns="http://www.w3.org/2000/svg">
<path d="M259.513 250.536C260.6 242.451 263.249 234.482 264.711 226.45C267.079 213.431 268.232 200.184 270.833 187.209C262.321 192.044 254.413 197.996 245.814 202.677C236.104 207.963 225.309 212.794 216.557 219.586C219.539 200.122 222.558 180.655 225.654 161.206C208.139 170.653 189.857 180.566 173.281 191.465L179.492 133.007C160.173 141.045 142.27 152.653 122.829 160.702C126.15 144.28 128.034 126.982 132.156 110.857C116.246 117.935 100.385 128.225 85.3879 137.021" stroke="#FFFFF5" stroke-width="12" stroke-miterlimit="1.5" stroke-linecap="round" stroke-linejoin="round"/>
</svg>
